<svg width="22" height="25" viewBox="0 0 22 25" fill="none" xmlns="http://www.w3.org/2000/svg">
<path d="M8.88806 11.041C8.20406 11.041 7.66406 11.641 7.66406 12.373C7.66406 13.105 8.21606 13.705 8.88806 13.705C9.57206 13.705 10.1121 13.105 10.1121 12.373C10.1241 11.641 9.57206 11.041 8.88806 11.041ZM13.2681 11.041C12.5841 11.041 12.0441 11.641 12.0441 12.373C12.0441 13.105 12.5961 13.705 13.2681 13.705C13.9521 13.705 14.4921 13.105 14.4921 12.373C14.4921 11.641 13.9521 11.041 13.2681 11.041Z" fill="#98A2B3"/>
<path d="M19.1001 0.973145H3.02006C1.66406 0.973145 0.560059 2.07714 0.560059 3.44514V19.6691C0.560059 21.0371 1.66406 22.1411 3.02006 22.1411H16.6281L15.9921 19.9211L17.5281 21.3491L18.9801 22.6931L21.5601 24.9731V3.44514C21.5601 2.07714 20.4561 0.973145 19.1001 0.973145ZM14.4681 16.6451C14.4681 16.6451 14.0361 16.1291 13.6761 15.6731C15.2481 15.2291 15.8481 14.2451 15.8481 14.2451C15.3561 14.5691 14.8881 14.7971 14.4681 14.9531C13.8681 15.2051 13.2921 15.3731 12.7281 15.4691C11.5761 15.6851 10.5201 15.6251 9.62006 15.4571C8.93606 15.3251 8.34806 15.1331 7.85606 14.9411C7.58006 14.8331 7.28006 14.7011 6.98006 14.5331C6.94406 14.5091 6.90806 14.4971 6.87206 14.4731C6.84806 14.4611 6.83606 14.4491 6.82406 14.4371C6.60806 14.3171 6.48806 14.2331 6.48806 14.2331C6.48806 14.2331 7.06406 15.1931 8.58806 15.6491C8.22806 16.1051 7.78406 16.6451 7.78406 16.6451C5.13206 16.5611 4.12406 14.8211 4.12406 14.8211C4.12406 10.9571 5.85206 7.82514 5.85206 7.82514C7.58006 6.52914 9.22406 6.56514 9.22406 6.56514L9.34406 6.70914C7.18406 7.33314 6.18806 8.28114 6.18806 8.28114C6.18806 8.28114 6.45206 8.13714 6.89606 7.93314C8.18006 7.36914 9.20006 7.21314 9.62006 7.17714C9.69206 7.16514 9.75206 7.15314 9.82406 7.15314C10.5561 7.05714 11.3841 7.03314 12.2481 7.12914C13.3881 7.26114 14.6121 7.59714 15.8601 8.28114C15.8601 8.28114 14.9121 7.38114 12.8721 6.75714L13.0401 6.56514C13.0401 6.56514 14.6841 6.52914 16.4121 7.82514C16.4121 7.82514 18.1401 10.9571 18.1401 14.8211C18.1401 14.8211 17.1201 16.5611 14.4681 16.6451Z" fill="#797B92"/>
</svg>
