<svg width="22" height="14" viewBox="0 0 22 14" fill="none" xmlns="http://www.w3.org/2000/svg">
<path d="M10.9043 0.728516C6.73756 0.728516 2.95891 3.0082 0.170642 6.71101C-0.0568806 7.01438 -0.0568806 7.43819 0.170642 7.74156C2.95891 11.4488 6.73756 13.7285 10.9043 13.7285C15.0711 13.7285 18.8498 11.4488 21.638 7.74602C21.8656 7.44265 21.8656 7.01884 21.638 6.71548C18.8498 3.0082 15.0711 0.728516 10.9043 0.728516ZM11.2032 11.8057C8.43729 11.9797 6.15314 9.70003 6.32713 6.92961C6.46989 4.64547 8.32129 2.79406 10.6054 2.6513C13.3714 2.47731 15.6555 4.757 15.4816 7.52742C15.3343 9.8071 13.4829 11.6585 11.2032 11.8057ZM11.0649 9.69111C9.5749 9.7848 8.3436 8.55796 8.44175 7.06791C8.51759 5.83662 9.5169 4.84176 10.7482 4.76146C12.2382 4.66777 13.4695 5.89461 13.3714 7.38466C13.2911 8.62042 12.2918 9.61527 11.0649 9.69111Z" fill="#B84794"/>
</svg>
