<svg width="24" height="24" viewBox="0 0 24 24" fill="none" xmlns="http://www.w3.org/2000/svg">
<path fill-rule="evenodd" clip-rule="evenodd" d="M12 0.000488281C5.3724 0.000488281 0 5.38129 0 12.0209C0 17.3309 3.438 21.8369 8.2068 23.4257C8.8068 23.5361 9.0252 23.1653 9.0252 22.8461C9.0252 22.5617 9.0156 21.8045 9.0096 20.8025C5.6712 21.5285 4.9668 19.1909 4.9668 19.1909C4.422 17.8013 3.6348 17.4317 3.6348 17.4317C2.5452 16.6877 3.7176 16.7021 3.7176 16.7021C4.9212 16.7861 5.5548 17.9405 5.5548 17.9405C6.6252 19.7765 8.364 19.2461 9.0468 18.9389C9.1572 18.1625 9.4668 17.6333 9.81 17.3333C7.146 17.0297 4.344 15.9977 4.344 11.3921C4.344 10.0805 4.812 9.00649 5.5788 8.16649C5.4552 7.86289 5.0436 6.64009 5.6964 4.98649C5.6964 4.98649 6.7044 4.66249 8.9964 6.21769C9.97532 5.95071 10.9853 5.81472 12 5.81329C13.02 5.81809 14.046 5.95129 15.0048 6.21769C17.2956 4.66249 18.3012 4.98529 18.3012 4.98529C18.9564 6.64009 18.5436 7.86289 18.4212 8.16649C19.1892 9.00649 19.6548 10.0805 19.6548 11.3921C19.6548 16.0097 16.848 17.0261 14.1756 17.3237C14.6064 17.6945 14.9892 18.4277 14.9892 19.5497C14.9892 21.1553 14.9748 22.4525 14.9748 22.8461C14.9748 23.1677 15.1908 23.5421 15.8004 23.4245C18.19 22.623 20.2672 21.0909 21.7386 19.0445C23.2099 16.9982 24.001 14.5413 24 12.0209C24 5.38129 18.6264 0.000488281 12 0.000488281Z" fill="#797B92"/>
</svg>
