<svg width="34" height="34" viewBox="0 0 34 34" fill="none" xmlns="http://www.w3.org/2000/svg">
<path d="M28.3138 5.65856C26.1059 3.45083 23.3003 1.93737 20.2428 1.30463C17.1853 0.67189 14.0094 0.947632 11.1066 2.09774C8.2038 3.24785 5.70093 5.22214 3.90646 7.77728C2.11199 10.3324 1.10435 13.3567 1.00767 16.4775C0.910995 19.5984 1.72953 22.6793 3.3624 25.3407C4.99527 28.002 7.3711 30.1274 10.1971 31.455C13.0232 32.7825 16.1759 33.2542 19.2667 32.8119C22.3576 32.3696 25.2515 31.0328 27.5918 28.9659C27.8402 28.7464 28.0828 28.5212 28.3138 28.2901C28.5449 28.0591 28.7759 27.8165 28.9897 27.5681C31.6815 24.5137 33.1097 20.549 32.9842 16.4796C32.8587 12.4103 31.1888 8.54126 28.3138 5.65856ZM26.6271 6.86585C28.8799 9.1186 26.7253 15.1663 21.8213 20.3996L16.9923 15.565C16.0858 14.6555 15.5767 13.4238 15.5767 12.1397C15.5767 10.8556 16.0858 9.62372 16.9923 8.71424C17.132 8.57572 17.2806 8.44649 17.4371 8.32727C17.8068 8.09622 18.2111 7.86521 18.5923 7.65149L18.6327 7.61102C22.2545 5.73372 25.2235 5.45644 26.6329 6.86585H26.6271ZM22.653 4.13946C20.0455 4.64514 17.5785 5.70918 15.4212 7.2586C15.4212 7.2586 15.3865 7.2586 15.3807 7.2586L15.1438 7.42035L15.0861 7.46083C14.0301 8.12187 12.7818 8.4068 11.5435 8.26945C10.3053 8.1321 9.1498 7.5805 8.26434 6.7041L7.87153 6.31135C9.88283 4.59571 12.3371 3.48189 14.9527 3.09773C17.5683 2.71357 20.2391 3.07462 22.6588 4.13946H22.653ZM4.16891 22.6236C3.10149 20.1902 2.74553 17.5042 3.14219 14.8768C3.53886 12.2494 4.6719 9.78831 6.41011 7.77855L6.80293 8.1713C7.68478 9.04564 8.24254 10.1942 8.38428 11.4279C8.52603 12.6616 8.24329 13.9069 7.58271 14.9584L7.52496 15.0508C7.45239 15.1433 7.38492 15.2398 7.32281 15.3396C5.75431 17.5087 4.67974 19.9949 4.17469 22.6236H4.16891ZM6.88959 26.5976C5.46284 25.1708 5.79787 22.0344 7.76181 18.4242C7.92932 18.1296 8.07368 17.8466 8.21809 17.6214C8.38057 17.3961 8.56019 17.1836 8.75531 16.9859C9.66578 16.079 10.8984 15.5699 12.1835 15.5699C13.4686 15.5699 14.7013 16.079 15.6118 16.9859L20.4292 21.7976C15.1958 26.7017 9.14812 28.8503 6.89537 26.5976H6.88959ZM10.4766 29.3818C13.8153 29.0006 17.9858 26.8287 21.827 23.1954L26.1939 27.5623C24.0613 29.4095 21.4215 30.5711 18.6189 30.8957C15.8162 31.2202 12.9808 30.6927 10.4824 29.3818H10.4766ZM27.5918 26.1644L23.2249 21.7976C26.8524 17.9506 29.0012 13.7916 29.4113 10.4471C30.7227 12.946 31.251 15.7819 30.9275 18.5854C30.604 21.3889 29.4436 24.0299 27.5976 26.1644H27.5918Z" fill="#B84794" stroke="#B84794" stroke-width="0.702929"/>
</svg>
