<svg width="34" height="34" viewBox="0 0 34 34" fill="none" xmlns="http://www.w3.org/2000/svg">
<path d="M28.3138 5.6859C26.1059 3.47817 23.3003 1.96471 20.2428 1.33197C17.1853 0.699234 14.0094 0.974976 11.1066 2.12508C8.2038 3.27519 5.70093 5.24948 3.90646 7.80463C2.11199 10.3598 1.10435 13.384 1.00767 16.5049C0.910995 19.6257 1.72953 22.7067 3.3624 25.368C4.99527 28.0293 7.3711 30.1547 10.1971 31.4823C13.0232 32.8099 16.1759 33.2815 19.2667 32.8392C22.3576 32.397 25.2515 31.0601 27.5918 28.9933C27.8402 28.7738 28.0828 28.5485 28.3138 28.3175C28.5449 28.0864 28.7759 27.8438 28.9897 27.5954C31.6815 24.541 33.1097 20.5764 32.9842 16.507C32.8587 12.4376 31.1888 8.5686 28.3138 5.6859ZM26.6271 6.8932C28.8799 9.14595 26.7253 15.1937 21.8213 20.427L16.9923 15.5923C16.0858 14.6828 15.5767 13.4511 15.5767 12.167C15.5767 10.8829 16.0858 9.65106 16.9923 8.74158C17.132 8.60306 17.2806 8.47383 17.4371 8.35461C17.8068 8.12356 18.2111 7.89256 18.5923 7.67883L18.6327 7.63836C22.2545 5.76107 25.2235 5.48378 26.6329 6.8932H26.6271ZM22.653 4.16681C20.0455 4.67248 17.5785 5.73652 15.4212 7.28594C15.4212 7.28594 15.3865 7.28594 15.3807 7.28594L15.1438 7.4477L15.0861 7.48817C14.0301 8.14921 12.7818 8.43414 11.5435 8.29679C10.3053 8.15945 9.1498 7.60784 8.26434 6.73144L7.87153 6.3387C9.88283 4.62305 12.3371 3.50924 14.9527 3.12507C17.5683 2.74091 20.2391 3.10197 22.6588 4.16681H22.653ZM4.16891 22.6509C3.10149 20.2176 2.74553 17.5315 3.14219 14.9041C3.53886 12.2767 4.6719 9.81565 6.41011 7.80589L6.80293 8.19864C7.68478 9.07298 8.24254 10.2216 8.38428 11.4553C8.52603 12.689 8.24329 13.9342 7.58271 14.9858L7.52496 15.0781C7.45239 15.1707 7.38492 15.2671 7.32281 15.367C5.75431 17.536 4.67974 20.0223 4.17469 22.6509H4.16891ZM6.88959 26.6249C5.46284 25.1982 5.79787 22.0617 7.76181 18.4515C7.92932 18.157 8.07368 17.874 8.21809 17.6487C8.38057 17.4234 8.56019 17.2109 8.75531 17.0133C9.66578 16.1064 10.8984 15.5972 12.1835 15.5972C13.4686 15.5972 14.7013 16.1064 15.6118 17.0133L20.4292 21.8249C15.1958 26.729 9.14812 28.8777 6.89537 26.6249H6.88959ZM10.4766 29.4091C13.8153 29.0279 17.9858 26.856 21.827 23.2228L26.1939 27.5897C24.0613 29.4369 21.4215 30.5984 18.6189 30.923C15.8162 31.2476 12.9808 30.72 10.4824 29.4091H10.4766ZM27.5918 26.1917L23.2249 21.8249C26.8524 17.9779 29.0012 13.8189 29.4113 10.4745C30.7227 12.9733 31.251 15.8093 30.9275 18.6127C30.604 21.4162 29.4436 24.0572 27.5976 26.1917H27.5918Z" fill="#B84794" stroke="#B84794" stroke-width="0.702929"/>
</svg>
