<svg width="18" height="19" viewBox="0 0 18 19" fill="none" xmlns="http://www.w3.org/2000/svg">
<path d="M17.8052 5.9054C17.8052 5.13901 17.6545 4.3963 17.3595 3.6945C17.0732 3.01852 16.6642 2.41144 16.1432 1.89046C15.6222 1.36949 15.0151 0.960462 14.3392 0.674142C13.6395 0.377058 12.8947 0.228516 12.1283 0.228516C11.3619 0.228516 10.6192 0.37921 9.91735 0.674142C9.2414 0.960462 8.63429 1.36949 8.11332 1.89046C7.59235 2.41144 7.18332 3.01852 6.897 3.6945C6.59991 4.39415 6.45137 5.13901 6.45137 5.9054C6.45137 6.86339 6.69248 7.80201 7.15103 8.63729L0.354691 15.4272C0.197538 15.5843 0.148024 15.8233 0.244899 16.0493C0.264274 16.0967 0.296566 16.1397 0.333163 16.1763L1.85518 17.6983C1.89178 17.7349 1.93483 17.7651 1.9822 17.7866C2.20824 17.8835 2.4472 17.8361 2.60435 17.6768L3.54512 16.736L4.89922 18.0901C4.93581 18.1267 4.97887 18.1569 5.02621 18.1784C5.25225 18.2753 5.49123 18.2279 5.64836 18.0686L7.14885 16.5681C7.18545 16.5315 7.21559 16.4885 7.23712 16.4411C7.33399 16.2151 7.28663 15.9761 7.12733 15.819L5.79475 14.4864L9.39421 10.8848C10.2273 11.3433 11.1681 11.5844 12.1261 11.5844C12.8925 11.5844 13.6352 11.4338 14.337 11.1388C15.0129 10.8525 15.6201 10.4435 16.141 9.9225C16.662 9.40155 17.071 8.79446 17.3574 8.11847C17.6545 7.41451 17.8052 6.6718 17.8052 5.9054ZM14.1175 7.89673C13.5857 8.42847 12.8774 8.72124 12.1261 8.72124C11.3748 8.72124 10.6665 8.42847 10.1348 7.89673C9.60307 7.36499 9.30814 6.65673 9.30814 5.9054C9.30814 5.15193 9.60092 4.44582 10.1327 3.91408C10.6644 3.38234 11.3727 3.08956 12.124 3.08956C12.8753 3.08956 13.5836 3.38234 14.1153 3.91408C14.647 4.44582 14.9398 5.15408 14.9398 5.9054C14.9441 6.65673 14.6513 7.36499 14.1175 7.89673Z" fill="#FEAA01"/>
</svg>
