<svg width="18" height="19" viewBox="0 0 18 19" fill="none" xmlns="http://www.w3.org/2000/svg">
<path d="M17.805 5.9054C17.805 5.13901 17.6543 4.3963 17.3593 3.6945C17.073 3.01852 16.664 2.41144 16.143 1.89046C15.622 1.36949 15.0149 0.960462 14.339 0.674142C13.6393 0.377058 12.8945 0.228516 12.1281 0.228516C11.3617 0.228516 10.619 0.37921 9.91716 0.674142C9.2412 0.960462 8.6341 1.36949 8.11312 1.89046C7.59215 2.41144 7.18312 3.01852 6.8968 3.6945C6.59972 4.39415 6.45117 5.13901 6.45117 5.9054C6.45117 6.86339 6.69229 7.80201 7.15083 8.63729L0.354493 15.4272C0.197339 15.5843 0.147825 15.8233 0.244701 16.0493C0.264076 16.0967 0.296367 16.1397 0.332965 16.1763L1.85498 17.6983C1.89158 17.7349 1.93464 17.7651 1.982 17.7866C2.20804 17.8835 2.447 17.8361 2.60415 17.6768L3.54492 16.736L4.89902 18.0901C4.93562 18.1267 4.97867 18.1569 5.02601 18.1784C5.25205 18.2753 5.49103 18.2279 5.64817 18.0686L7.14865 16.5681C7.18525 16.5315 7.21539 16.4885 7.23692 16.4411C7.33379 16.2151 7.28643 15.9761 7.12713 15.819L5.79455 14.4864L9.39401 10.8848C10.2271 11.3433 11.1679 11.5844 12.1259 11.5844C12.8923 11.5844 13.635 11.4338 14.3368 11.1388C15.0128 10.8525 15.6199 10.4435 16.1408 9.9225C16.6618 9.40155 17.0708 8.79446 17.3572 8.11847C17.6543 7.41451 17.805 6.6718 17.805 5.9054ZM14.1173 7.89673C13.5855 8.42847 12.8772 8.72124 12.1259 8.72124C11.3746 8.72124 10.6663 8.42847 10.1346 7.89673C9.60287 7.36499 9.30794 6.65673 9.30794 5.9054C9.30794 5.15193 9.60072 4.44582 10.1325 3.91408C10.6642 3.38234 11.3725 3.08956 12.1238 3.08956C12.8751 3.08956 13.5834 3.38234 14.1151 3.91408C14.6468 4.44582 14.9396 5.15408 14.9396 5.9054C14.9439 6.65673 14.6511 7.36499 14.1173 7.89673Z" fill="#B84794"/>
</svg>
