<svg width="45" height="51" viewBox="0 0 45 51" fill="none" xmlns="http://www.w3.org/2000/svg">
<g clip-path="url(#clip0_1_5954)">
<path d="M41.8686 19.3518V37.0893L22.2061 48.3643L2.54355 36.9518V14.2643L22.2061 2.85176L37.3311 11.6518L39.6686 10.2768L22.2061 0.239258L0.206055 12.8893V38.3268L22.2061 50.9768L44.2061 38.3268V17.9768L41.8686 19.3518Z" fill="white" fill-opacity="0.21"/>
<path d="M16.706 37.0914H13.406V26.0914H24.406C25.506 26.0914 26.4685 25.6789 27.156 24.8539C27.8435 24.1664 28.256 23.0664 28.256 22.1039C28.256 21.5539 28.1185 21.1414 27.981 20.5914C27.8435 20.1789 27.431 19.6289 27.156 19.3539C26.7435 18.9414 26.331 18.6664 25.9185 18.5289C25.506 18.3914 24.956 18.1164 24.406 18.1164H13.406V14.8164H24.406C26.331 14.8164 28.1185 15.6414 29.4935 17.0164C30.8685 18.3914 31.6935 20.1789 31.6935 22.1039C31.6935 23.6164 31.281 24.9914 30.456 26.2289C29.631 27.3289 28.531 28.2914 27.2935 28.8414C26.056 29.2539 24.681 29.3914 23.306 29.3914H16.706V37.0914Z" fill="white" fill-opacity="0.21"/>
<path d="M31.556 36.8163H27.706L24.681 31.5913C25.9185 31.4538 27.0185 31.3163 28.1185 30.9038L31.556 36.8163Z" fill="white" fill-opacity="0.21"/>
<path d="M39.6686 15.6392L42.0061 16.8767L44.3436 15.6392V12.8892L42.0061 11.5142L39.6686 12.8892V15.6392Z" fill="white" fill-opacity="0.21"/>
</g>
<defs>
<clipPath id="clip0_1_5954">
<rect width="44" height="50.7375" fill="white" transform="translate(0.206055 0.23877)"/>
</clipPath>
</defs>
</svg>
