<svg width="56" height="45" viewBox="0 0 56 45" fill="none" xmlns="http://www.w3.org/2000/svg">
<g clip-path="url(#clip0_1_5915)">
<path d="M8.45684 31.1609L13.4948 24.3651C13.567 24.2674 13.6667 24.1935 13.7813 24.1531C13.8958 24.1126 14.0199 24.1075 14.1374 24.1383C14.2549 24.1691 14.3604 24.2344 14.4404 24.3258C14.5204 24.4172 14.5711 24.5306 14.586 24.6511C16.126 36.1879 31.801 40.3173 38.764 30.6439L54.7228 9.13011C54.7763 9.0593 54.8507 9.00702 54.9354 8.98063C55.0201 8.95424 55.111 8.95507 55.1952 8.98298C55.2795 9.0109 55.3528 9.06451 55.405 9.13628C55.4572 9.20805 55.4856 9.29437 55.4862 9.38311V21.9759C55.4862 22.4995 55.319 23.0099 55.0066 23.4279L46.0724 35.4553C36.7224 48.8973 15.8752 47.4893 8.29844 33.1849C8.13268 32.8664 8.05984 32.5078 8.08824 32.1499C8.11664 31.792 8.24293 31.4493 8.45684 31.1609Z" fill="white" fill-opacity="0.21"/>
<path d="M47.3212 14.3891L42.2546 21.2245C42.1825 21.3222 42.0827 21.3961 41.9682 21.4365C41.8536 21.477 41.7296 21.4821 41.6121 21.4513C41.4946 21.4205 41.389 21.3552 41.309 21.2638C41.229 21.1723 41.1783 21.059 41.1634 20.9385C39.6124 9.44568 24.021 5.30968 17.0294 14.9105L8.06222 26.9841L1.24882 36.2571C1.19583 36.3285 1.12176 36.3815 1.03704 36.4086C0.952325 36.4356 0.861248 36.4354 0.77666 36.408C0.692072 36.3805 0.618244 36.3272 0.565594 36.2555C0.512943 36.1838 0.484129 36.0974 0.483215 36.0085L0.483215 23.3365C0.483215 22.8151 0.650415 22.3069 0.962815 21.8867L9.16882 10.8229C18.026 -3.40452 39.9028 -2.20552 47.4884 12.3761C47.6518 12.6939 47.7229 13.0511 47.6937 13.4072C47.6646 13.7634 47.5363 14.1043 47.3234 14.3913" fill="white" fill-opacity="0.21"/>
</g>
<defs>
<clipPath id="clip0_1_5915">
<rect width="55" height="44" fill="white" transform="translate(0.483215 0.771484)"/>
</clipPath>
</defs>
</svg>
