<svg width="45" height="45" viewBox="0 0 45 45" fill="white" fill-opacity="0.21" xmlns="http://www.w3.org/2000/svg">
<path d="M32.6252 34.5825C27.8822 26.8787 20.8103 22.512 12.0769 20.6943C8.9883 20.0553 5.88547 20.0624 2.88914 21.2411C0.837152 22.0505 0.524739 22.9025 1.49038 25.0539C8.05106 23.499 14.1573 24.9474 19.8731 28.2491C25.6314 31.5791 29.9271 36.2156 31.8797 42.8047C34.6204 41.9669 34.9754 41.5053 34.3151 38.9563C33.9246 37.4582 33.4346 35.8961 32.6252 34.5825Z"/>
<path d="M37.8155 28.314C31.7235 19.4386 23.0966 14.4755 12.5527 12.814C9.76225 12.3738 6.91503 12.4945 4.30212 13.8294C3.05247 14.4684 1.94482 15.285 1.64661 17.0174C9.86876 14.7524 17.246 16.7547 24.1901 20.7806C31.1697 24.8278 36.6227 30.2595 38.7457 38.6095C40.2226 37.303 40.4853 35.6983 40.1018 34.2073C39.5764 32.1624 38.98 30.011 37.8155 28.314Z"/>
<path d="M2.02295 28.8801C2.54127 30.0303 2.88209 31.3297 3.65602 32.2598C4.04654 32.7355 5.23229 32.5509 6.05592 32.6645C6.18373 32.6787 6.31153 32.7 6.43934 32.7142C13.7456 33.8006 19.511 37.3365 23.6292 43.5067C23.8706 43.8688 24.2611 44.4084 24.5806 44.4084C25.8161 44.4013 27.0586 44.2096 28.3083 44.0889C26.448 33.7722 11.0971 25.3086 2.02295 28.8801Z"/>
<path d="M41.1887 20.2247C37.1628 14.5942 31.6104 10.8452 25.3053 8.17552C20.9386 6.32235 16.4157 5.2076 11.6159 5.78272C9.95444 5.98153 8.39947 6.45725 7.11432 7.5365C23.5089 7.94832 35.8421 15.0486 44.3199 29.0717C44.3341 28.1416 44.4761 27.1049 44.1353 26.2671C43.2833 24.1867 42.4738 22.0211 41.1887 20.2247Z"/>
<path d="M44.9659 17.2854C41.6287 4.58301 28.0671 -1.53035 18.0415 1.56538C28.8411 3.69547 37.7022 8.84319 44.9659 17.2854Z"/>
<path d="M5.60144 35.6466C9.47821 40.5671 14.4058 43.4356 20.7251 44.3657C18.311 39.857 9.80482 34.9791 5.60144 35.6466Z"/>
</svg>
