<svg width="54" height="45" viewBox="0 0 54 45" fill="none" xmlns="http://www.w3.org/2000/svg">
<path d="M50.9393 17.4777C49.2957 15.1761 47.5513 13.9697 46.4592 13.3835C46.0699 12.6691 45.6447 11.975 45.185 11.3036C43.8409 9.33847 42.4402 7.63472 41.0226 6.23926C39.697 4.93411 38.3139 3.85738 36.9116 3.03862C34.472 1.61358 31.9412 0.918284 29.1753 0.913086H29.1437C26.6114 0.913086 24.2988 1.48914 22.3694 2.0535C21.8144 2.21747 21.2608 2.38644 20.7086 2.56036C19.3157 2.99378 18.0002 3.40381 16.89 3.58641C16.1336 3.71117 15.5407 3.99644 15.1283 4.43441C14.7384 4.84801 14.5067 5.401 14.4389 6.0781C14.3122 7.34426 14.7611 9.04059 15.7376 10.9838C17.6906 14.871 21.4314 19.1504 25.268 21.8867C25.6617 22.1686 26.0353 22.4774 26.386 22.8113L26.3704 22.8146C23.3868 23.241 21.8324 26.447 21.203 28.1795C21.0391 28.6313 21.4857 29.0363 21.9415 28.8823C23.7493 28.273 27.3929 27.2977 29.5258 28.4599C29.9243 30.3657 29.7563 32.2343 29.0373 33.6943C28.596 34.5899 27.9676 35.3058 27.1691 35.8222C26.3081 36.3794 25.2684 36.6911 24.0771 36.7484C22.7872 36.8105 21.3246 36.5733 19.7303 36.0424C17.996 35.465 16.0913 34.5352 14.0691 33.2784L14.0318 33.2555L13.9928 33.2347C13.9687 33.2217 13.945 33.2081 13.9217 33.194C16.8159 29.7062 15.0511 24.4389 14.3451 22.7022C14.2508 22.4706 13.9315 22.4725 13.804 22.6879C12.1503 25.4876 8.75824 25.28 8.81868 28.6145L8.81445 28.6071C6.22171 26.4984 4.29665 29.3037 1.07002 28.8823C0.821788 28.85 0.623921 29.1009 0.74836 29.3176C1.67921 30.9382 4.72682 35.5476 9.2339 35.4444C9.4126 35.6395 9.61957 35.8654 9.77974 36.0424L10.3236 36.6429C12.5323 39.0801 14.9513 41.0142 17.5135 42.3914C19.9002 43.6742 22.4121 44.4769 24.9798 44.7782C25.7492 44.8684 26.5194 44.9133 27.2904 44.9131C31.7611 44.9131 36.2052 43.4101 40.0122 40.5743C42.1344 38.9979 43.9695 37.068 45.4371 34.8689C46.9355 32.6225 47.9848 30.1913 48.5549 27.6427C48.9325 25.9642 49.0915 24.244 49.0279 22.5248C50.4416 22.104 52.0027 23.3507 52.7666 24.0825C52.9531 24.2608 53.2608 24.1499 53.2524 23.8919C53.2127 22.7217 52.8771 20.192 50.9393 17.4777ZM38.0566 38.7613C34.2145 41.485 29.6978 42.6972 25.2846 42.1797C23.0453 41.9171 20.8476 41.213 18.7523 40.0865C16.7522 39.0115 14.8391 37.5467 13.0535 35.725C17.0441 38.1486 20.6098 39.374 23.6668 39.374C23.8476 39.374 24.0263 39.3698 24.2033 39.3614C25.8608 39.2815 27.3367 38.8299 28.59 38.0186C29.7907 37.2421 30.7306 36.1756 31.3837 34.8504C31.9652 33.67 32.2888 32.3425 32.3454 30.9034C32.3979 29.5604 32.2171 28.1875 31.8066 26.8233C30.9454 23.9605 29.1626 21.4507 26.7876 19.7566C25.0281 18.5016 23.2633 16.8747 21.6849 15.0526C20.4078 13.5785 19.3216 12.061 18.5067 10.6163V10.6144C18.5067 10.6144 18.5002 10.6046 18.4901 10.5869L18.4654 10.5423C18.3303 10.2899 17.9748 9.45161 19.0948 9.29145C29.6773 7.78028 51.2094 27.8844 38.0566 38.7613Z" fill="white" fill-opacity="0.21"/>
<path fill-rule="evenodd" clip-rule="evenodd" d="M31.2799 6.65088C29.0018 6.65088 29.737 8.047 30.1042 8.56165C30.4717 9.07597 31.4269 9.70686 32.3827 10.1849C33.3379 10.6628 34.5873 10.7836 35.3225 10.8402C36.0572 10.8964 37.5269 10.7664 37.7477 10.1849C37.0396 9.23059 33.5583 6.65088 31.2799 6.65088ZM18.4601 10.5447C18.325 10.2915 17.9693 9.45401 19.0895 9.29404C29.672 7.78264 51.2045 27.8868 38.0517 38.7637C34.2096 41.487 29.6929 42.6992 25.2793 42.1819C23.0402 41.9195 20.8425 41.2154 18.7472 40.0889C16.7469 39.0139 14.834 37.5491 13.0483 35.7274C17.0392 38.1508 20.6045 39.3768 23.6617 39.3768C23.8406 39.3768 24.0195 39.3726 24.198 39.3638C25.8557 39.2837 27.3314 38.8319 28.585 38.021C29.7858 37.2445 30.7253 36.178 31.3788 34.8528C31.9603 33.6724 32.2837 32.3445 32.3401 30.9058C32.3928 29.5626 32.2118 28.1899 31.8015 26.8257C30.9405 23.9629 29.1581 21.4529 26.7823 19.7587C25.023 18.504 23.2588 16.8773 21.6798 15.055C20.4025 13.5809 19.3164 12.0632 18.5018 10.6187V10.6168L18.485 10.5893L18.4601 10.5447Z" fill="#191A2C"/>
</svg>
