<svg width="48" height="45" viewBox="0 0 48 45" fill="white" fill-opacity="0.21" xmlns="http://www.w3.org/2000/svg">
<path fill-rule="evenodd" clip-rule="evenodd" d="M36.6687 3.66423C34.6764 2.38122 32.469 1.40104 30.1103 0.771484C26.9559 3.79748 23.6516 6.36614 19.9671 7.76024C19.6266 7.88913 19.2522 7.70028 19.1399 7.35383L17.3359 1.79152C17.1924 1.35322 16.7143 1.10618 16.2841 1.27353C13.8854 2.17403 11.654 3.57657 9.51036 5.27397C4.50584 9.24253 1.15886 15.0519 0.840103 21.435C0.824165 21.8096 0.808228 22.1842 0.808228 22.5587C0.808228 22.8616 0.816197 23.1723 0.832134 23.4751C1.38944 22.877 1.94532 22.2746 2.50119 21.6722C7.52038 16.233 12.5376 10.7959 18.5775 8.50959C18.9182 8.38064 19.2925 8.56947 19.4049 8.91595L21.2088 14.4782C21.3523 14.9164 21.8304 15.1635 22.2608 14.9961C27.6319 12.98 32.1981 8.46156 36.6607 3.6722L36.6687 3.66423ZM40.7634 8.98566L40.7615 8.98759C35.7342 14.438 30.705 19.8903 24.653 22.1845C24.3123 22.3138 23.9376 22.1249 23.8253 21.7782L22.0214 16.2164C21.878 15.7781 21.3999 15.5311 20.9695 15.6985C14.9093 17.9754 9.8771 23.433 4.84571 28.8898C4.10122 29.6972 3.35674 30.5046 2.60896 31.3017C3.52539 33.4215 4.76059 35.3819 6.25876 37.1191C6.5633 36.7899 6.86761 36.46 7.17189 36.1301C12.1979 30.6812 17.2199 25.2365 23.2707 22.943C23.6115 22.8137 23.986 23.0026 24.0985 23.3492L25.9024 28.9111C26.0458 29.3494 26.5239 29.5963 26.9542 29.429C33.0353 27.14 38.0776 21.6677 43.1206 16.1945C43.8534 15.3992 44.5867 14.6033 45.3228 13.8178C44.4063 11.698 43.1712 9.73765 41.673 8.00837V8.00041C41.3696 8.32836 41.0665 8.657 40.7634 8.98566ZM47.1007 23.6987C46.766 30.2651 43.2277 36.1862 38.024 40.2025H38.032C36.0397 41.7406 33.9518 43.0075 31.7365 43.8523C31.7165 43.8602 31.6985 43.8662 31.6807 43.8723C31.6628 43.8782 31.6448 43.8842 31.6249 43.8922C31.2025 44.0277 30.7404 43.7885 30.6049 43.3661L28.8011 37.8047C28.6887 37.4579 28.3139 37.2691 27.9731 37.3985C24.3386 38.779 21.0702 41.3043 17.9511 44.2776C17.8961 44.3301 17.8176 44.3504 17.7442 44.3304C15.5164 43.7232 13.4251 42.7959 11.5175 41.609C11.4019 41.5371 11.3817 41.3776 11.4747 41.278C15.8804 36.5605 20.3885 32.1508 25.68 30.1616C26.1103 29.9942 26.5885 30.2413 26.732 30.6796L28.5359 36.2417C28.6483 36.5883 29.0226 36.777 29.3633 36.6482C35.4032 34.3618 40.4204 28.9248 45.4396 23.4856C45.9954 22.8831 46.5513 22.2808 47.1086 21.6826C47.1246 21.9694 47.1326 22.2643 47.1326 22.5591C47.1326 22.9417 47.1166 23.3241 47.1007 23.6987Z"/>
</svg>
