<svg width="45" height="52" viewBox="0 0 45 52" fill="none" xmlns="http://www.w3.org/2000/svg">
<path d="M39.0866 12.3506C39.948 11.4892 41.2828 11.5391 41.8346 12.4512C42.4313 13.4308 42.8822 14.4892 43.2032 15.5981C43.3832 16.2285 43.1741 16.9663 42.6507 17.4899L25.7764 34.3639C24.7575 35.3829 23.4904 36.0875 22.1449 36.3747L20.7433 36.6728C19.4034 36.9656 18.125 37.6684 17.1116 38.6817L4.15651 51.6368C3.60489 49.5091 3.36342 48.074 5.09142 46.3458L39.0866 12.3506ZM42.7421 19.6195C43.3051 19.0571 44.1706 19.3832 44.1142 20.1263C43.7652 24.6752 41.5983 29.4663 37.7364 33.3285C34.7918 36.5544 26.482 41.4876 20.5421 44.7925C19.3261 45.468 18.3348 44.0271 19.3309 43.0306L42.7348 19.6249L42.7421 19.6195ZM34.9775 5.52632C35.5122 4.99221 36.2996 4.87907 36.8399 5.25004C37.966 6.01577 39.0182 7.12644 39.5587 8.46643C39.7612 8.98437 39.5881 9.62075 39.1433 10.0655L20.9684 28.2386C19.9494 29.2576 18.6823 29.9622 17.3368 30.2492L15.9353 30.5475C14.5953 30.8403 13.3171 31.5447 12.3035 32.5581L1.09381 43.7679C0.542052 41.6398 0.807036 39.6966 2.53551 37.9681L34.9775 5.52632ZM27.2749 2.2953C28.2884 1.28228 29.7407 0.888098 30.9341 1.33843C31.6824 1.62542 32.4029 1.97421 33.0838 2.38495C33.9847 2.92545 34.0308 4.24451 33.1862 5.08905L16.5646 21.7088C15.6134 22.6598 14.3194 23.1671 13.0812 23.0774C11.7806 22.9816 10.4115 23.5167 9.40375 24.5246L0.299774 33.6284C-0.251965 31.5003 0.463197 29.1071 2.19156 27.3787L27.2749 2.2953ZM24.6111 0.679787C25.4106 0.668527 25.7204 1.61954 25.1123 2.2276L16.4823 10.8595L7.44608 19.8958C7.44044 19.9014 7.43875 19.9013 7.43875 19.9013L4.64135 22.6987C4.0558 23.2842 3.18961 22.7557 3.51616 22.0125L6.24038 15.8195C6.3924 15.4422 6.56139 15.0591 6.74718 14.6705L6.76365 14.6321C8.33439 11.3048 10.8626 7.7742 13.2386 5.39825C17.05 1.58679 20.4732 0.719298 24.6111 0.679787Z" fill="white" fill-opacity="0.21"/>
</svg>
