<svg width="59" height="45" viewBox="0 0 59 45" fill="white" fill-opacity="0.21" xmlns="http://www.w3.org/2000/svg">
<path fill-rule="evenodd" clip-rule="evenodd" d="M18.0368 44.157C18.0289 44.157 18.0206 44.1572 18.0124 44.1572C8.29224 44.1572 0.412354 36.2773 0.412354 26.5572C0.412354 18.1306 6.33421 11.0872 14.2432 9.3614C18.2345 3.78867 24.7637 0.157227 32.1413 0.157227C43.5132 0.157227 52.8697 8.78503 54.0222 19.8517C57.0523 22.3716 58.9815 26.1702 58.9815 30.4194C58.9815 38.0067 52.8307 44.1572 45.2437 44.1572C45.2185 44.1572 45.1929 44.1572 45.1677 44.157H32.2344C32.2033 44.1572 32.1723 44.1572 32.1413 44.1572C32.1103 44.1572 32.0793 44.1572 32.0483 44.157H18.0368ZM27.521 17.978C29.6072 17.978 31.2981 16.287 31.2981 14.2008C31.2981 12.1148 29.6072 10.4239 27.521 10.4239C25.435 10.4239 23.7438 12.1148 23.7438 14.2008C23.7438 16.287 25.435 17.978 27.521 17.978ZM42.6286 17.978C44.7145 17.978 46.4058 16.287 46.4058 14.2008C46.4058 12.1148 44.7145 10.4239 42.6286 10.4239C40.5424 10.4239 38.8514 12.1148 38.8514 14.2008C38.8514 16.287 40.5424 17.978 42.6286 17.978ZM41.9531 21.3983C43.3872 21.1966 44.5976 21.0262 45.3263 21.0262C47.1142 21.0262 48.5636 22.4759 48.5636 24.2637C48.5636 31.7133 42.5243 37.7526 35.0748 37.7526C27.625 37.7526 21.5857 31.7133 21.5857 24.2637C21.5857 22.4759 23.0354 21.0262 24.8232 21.0262C25.552 21.0262 26.7623 21.1966 28.1964 21.3983C30.2807 21.6917 32.8373 22.0516 35.0748 22.0516C37.3119 22.0516 39.8689 21.6917 41.9531 21.3983ZM35.0742 35.0549C38.0305 35.0549 40.7093 33.8659 42.658 31.9403H42.6569C43.5242 31.0831 43.2401 29.6175 42.1211 29.1344C40.2306 28.3184 37.7676 27.8246 35.0737 27.8246C32.3798 27.8246 29.9168 28.3184 28.0263 29.1344C26.9073 29.6175 26.6232 31.0836 27.4905 31.9403C29.4398 33.8659 32.118 35.0549 35.0742 35.0549Z"/>
</svg>
