<svg width="54" height="45" viewBox="0 0 54 45" fill="white" fill-opacity="0.21" xmlns="http://www.w3.org/2000/svg">
<path d="M7.21859 44.7725C13.9613 44.7725 19.0286 38.9085 22.0526 34.2748C21.6848 35.3 21.4804 36.3251 21.4804 37.3092C21.4804 40.0157 23.0334 41.943 26.0982 41.943C30.3073 41.943 34.8024 38.2524 37.1317 34.2748C36.9682 34.8489 36.8866 35.382 36.8866 35.874C36.8866 37.7603 37.949 38.9496 40.1149 38.9496C46.9394 38.9496 53.8046 26.8526 53.8046 16.273C53.8046 8.03061 49.6364 0.772461 39.175 0.772461C20.7858 0.772461 0.966248 23.2441 0.966248 37.7603C0.966248 43.4602 4.03112 44.7725 7.21859 44.7725ZM32.8409 15.3708C32.8409 13.3205 33.9852 11.8853 35.6606 11.8853C37.2952 11.8853 38.4394 13.3205 38.4394 15.3708C38.4394 17.4211 37.2952 18.8973 35.6606 18.8973C33.9852 18.8973 32.8409 17.4211 32.8409 15.3708ZM41.586 15.3708C41.586 13.3205 42.7303 11.8853 44.4057 11.8853C46.0403 11.8853 47.1845 13.3205 47.1845 15.3708C47.1845 17.4211 46.0403 18.8973 44.4057 18.8973C42.7303 18.8973 41.586 17.4211 41.586 15.3708Z"/>
</svg>
