<svg width="46" height="41" viewBox="0 0 46 41" fill="white" fill-opacity="0.21" xmlns="http://www.w3.org/2000/svg">
<path d="M43.8017 0.684588H39.9709L38.0849 3.95059L36.2006 7.22479L34.3147 10.4908L32.4288 13.765L30.5428 17.0081L32.4222 20.2823L34.3147 23.5565L45.6582 3.91131C45.8493 3.58518 45.9509 3.21427 45.9524 2.83624C45.9539 2.45821 45.8555 2.08653 45.6669 1.75886C45.4784 1.43118 45.2066 1.15919 44.879 0.970521C44.5514 0.781851 44.1797 0.683219 43.8017 0.684588Z" />
<path d="M36.2 0.684574L28.6563 13.7503L24.8844 7.2166L28.6563 0.684574H36.2Z" />
<path d="M26.7709 17.0164L23.0056 10.4762L21.1197 7.21013L17.3494 0.669922H9.79911L17.3363 13.7422L19.2272 17.0082L26.7644 30.0903L28.6569 33.3464L30.5428 30.0804L32.4287 26.8062L26.7709 17.0164Z" />
<path d="M2.19639 0.684583H6.0272L7.91314 3.95059L9.79908 7.22479L11.685 10.4908L13.571 13.765L15.4569 17.0081L22.9941 30.0885L24.8915 33.3463L26.7774 36.6124L24.8555 39.9275C24.6675 40.2536 24.3969 40.5243 24.071 40.7126C23.7451 40.9009 23.3754 41 22.999 41C22.6226 41 22.2529 40.9009 21.927 40.7126C21.6011 40.5243 21.3305 40.2536 21.1425 39.9275L0.335006 3.89983C0.146482 3.57363 0.0472867 3.20352 0.0474245 2.82676C0.0475622 2.45 0.147032 2.07991 0.335795 1.75385C0.524558 1.42779 0.795944 1.15729 1.1226 0.969556C1.44926 0.781826 1.81963 0.683528 2.19639 0.684583Z" />
</svg>
