<svg width="18" height="18" viewBox="0 0 18 18" fill="none" xmlns="http://www.w3.org/2000/svg">
<path d="M17.4926 0.735061C13.3065 0.303949 9.22387 2.30862 6.70833 5.58721C5.41713 7.26642 4.53982 9.27755 4.27254 11.4719L6.75575 13.9551C8.95011 13.6878 10.9612 12.8105 12.6404 11.5193C15.919 9.00379 17.9237 4.92116 17.4926 0.735061ZM10.8039 7.42375C10.0408 6.66069 10.0408 5.42342 10.8039 4.66034C11.567 3.89727 12.8043 3.89727 13.5673 4.66033C14.3304 5.42341 14.3304 6.6607 13.5673 7.42378C12.8042 8.18685 11.567 8.18683 10.8039 7.42375Z" fill="#B84794"/>
<path d="M4.79321 10.9531C3.61718 10.6204 2.37199 10.6884 1.07271 11.0695C1.74741 7.45888 4.10343 5.69349 7.229 5.06836C7.50138 7.25743 6.73842 9.30586 4.79321 10.9531Z" fill="#B84794"/>
<path d="M7.27559 13.4345C7.60824 14.6106 7.54024 15.8557 7.15918 17.155C10.7698 16.4803 12.5352 14.1243 13.1603 10.9987C10.9712 10.7263 8.92278 11.4893 7.27559 13.4345Z" fill="#B84794"/>
<path d="M4.12118 16.869C3.09729 17.8929 0.454592 17.7722 0.454592 17.7722C0.454592 17.7722 0.333855 15.1295 1.35775 14.1056C1.94192 13.5214 2.52177 13.3425 3.05417 13.4352C2.40107 14.1099 2.45064 15.7761 2.45064 15.7761C2.45064 15.7761 4.1169 15.8257 4.79155 15.1726C4.88427 15.705 4.70535 16.2849 4.12118 16.869Z" fill="#B84794"/>
</svg>
