<svg width="18" height="18" viewBox="0 0 18 18" fill="none" xmlns="http://www.w3.org/2000/svg">
<path d="M17.4925 0.735061C13.3064 0.303949 9.22379 2.30862 6.70826 5.58721C5.41705 7.26642 4.53975 9.27755 4.27246 11.4719L6.75567 13.9551C8.95003 13.6878 10.9611 12.8105 12.6404 11.5193C15.919 9.00379 17.9236 4.92116 17.4925 0.735061ZM10.8038 7.42375C10.0408 6.66069 10.0407 5.42342 10.8038 4.66034C11.5669 3.89727 12.8042 3.89727 13.5672 4.66033C14.3303 5.42341 14.3303 6.6607 13.5672 7.42378C12.8042 8.18685 11.5669 8.18683 10.8038 7.42375Z" fill="#FEAA01"/>
<path d="M4.79277 10.9531C3.61673 10.6204 2.37155 10.6884 1.07227 11.0695C1.74697 7.45888 4.10298 5.69349 7.22856 5.06836C7.50094 7.25743 6.73798 9.30586 4.79277 10.9531Z" fill="#FEAA01"/>
<path d="M7.27559 13.4345C7.60824 14.6106 7.54024 15.8557 7.15918 17.155C10.7698 16.4803 12.5352 14.1243 13.1603 10.9987C10.9712 10.7263 8.92278 11.4893 7.27559 13.4345Z" fill="#FEAA01"/>
<path d="M4.12118 16.869C3.09729 17.8929 0.454592 17.7722 0.454592 17.7722C0.454592 17.7722 0.333855 15.1295 1.35775 14.1056C1.94192 13.5214 2.52177 13.3425 3.05417 13.4352C2.40107 14.1099 2.45064 15.7761 2.45064 15.7761C2.45064 15.7761 4.1169 15.8257 4.79155 15.1726C4.88427 15.705 4.70535 16.2849 4.12118 16.869Z" fill="#FEAA01"/>
</svg>
