<svg width="140" height="144" viewBox="0 0 140 144" fill="none" xmlns="http://www.w3.org/2000/svg">
<path d="M54.3438 2.45114C75.23 -3.99204 97.4993 2.53377 111.822 18.8945C111.931 19.0196 112.069 19.1166 112.225 19.1758C113.059 19.5007 114.005 19.5053 114.943 19.6884C126.84 22.0253 136.013 31.2265 139.003 42.7509C141.814 53.5815 138.613 65.2738 130.267 72.8828C129.292 73.7717 128.586 74.4275 128.15 74.8506C128.142 74.8587 128.131 74.8638 128.119 74.8652C128.108 74.8666 128.096 74.8641 128.086 74.8584C128.076 74.8526 128.067 74.8437 128.062 74.833C128.058 74.8223 128.057 74.8102 128.06 74.7988C128.354 73.4904 128.562 72.298 128.685 71.2216C130.008 59.5476 121.561 49.681 109.615 49.957C104.806 50.0671 100.686 51.7591 97.2559 55.0332C95.2473 56.9504 92.5468 59.6402 89.1533 63.1015C90.2522 63.9956 91.3249 64.8781 92.3721 65.748C94.8441 67.8046 96.8198 70.261 98.2979 73.1172C100.422 77.2269 101.363 81.606 101.124 86.2539C100.762 93.2369 97.9742 99.0011 92.7598 103.546L52.4375 143.791C52.3744 143.854 52.2993 143.904 52.2168 143.938C52.1345 143.972 52.0461 143.989 51.957 143.989H28.8945C28.8765 143.989 28.8588 143.984 28.8437 143.975C28.8288 143.965 28.8165 143.951 28.8096 143.935C28.8027 143.918 28.8012 143.899 28.8047 143.882C28.8083 143.864 28.8172 143.848 28.8301 143.835L81.1914 91.6035C83.8167 89.1806 84.7033 86.2349 83.8506 82.7666C83.3364 80.6696 82.0209 79.259 80.083 77.7295C79.0839 76.9419 78.124 76.1123 77.2041 75.2422C77.1709 75.2113 77.1271 75.1939 77.082 75.1943C77.0368 75.1948 76.9936 75.2133 76.9619 75.2451L67.9639 84.1543L8.03125 143.81C7.90889 143.931 7.74319 144 7.57129 144H0.26953C0.208297 144 0.149007 143.976 0.105468 143.933C0.0621821 143.89 0.0378101 143.831 0.0371083 143.77C0.00265555 138.29 -0.00384043 133.07 0.0185536 128.111C0.0211376 127.456 0.104178 127.175 0.605468 126.677C13.6597 113.698 32.1188 95.3001 55.9824 71.4843C56.5113 70.9582 57.0434 70.4353 57.5791 69.916L62.207 65.3711C62.2285 65.3501 62.2459 65.3248 62.2568 65.2968C62.2677 65.269 62.272 65.239 62.2705 65.209C62.269 65.1788 62.2617 65.1491 62.248 65.122C62.2344 65.0949 62.2149 65.0711 62.1914 65.0517C61.1708 64.2109 59.9097 63.1813 58.6514 62.7119C55.2596 61.4516 51.9899 61.8053 48.8428 63.7724C48.3122 64.1026 47.5668 64.7573 46.6074 65.7373C44.2612 68.1291 41.9023 70.4997 39.5303 72.8486L0.158202 112.168C0.146831 112.179 0.132573 112.186 0.117186 112.189C0.101942 112.192 0.086458 112.19 0.0722646 112.185C0.0580947 112.179 0.0455961 112.17 0.0371083 112.157C0.0286146 112.145 0.0242967 112.129 0.024413 112.114C0.0123545 108.589 0.00585833 101.325 0.00585833 90.3213C0.00586348 89.8364 0.0392662 89.4114 0.106444 89.0468C0.12336 88.9628 0.163732 88.8857 0.222655 88.8252L23.6494 65.4873C26.8775 62.2649 30.1059 59.06 33.334 55.872C36.4003 52.8422 38.1602 51.1395 38.6133 50.7646C40.5236 49.1913 42.6264 47.9402 44.9209 47.0117C52.4315 43.97 59.7774 44.136 66.959 47.5097C69.8298 48.8587 72.3575 50.816 74.4453 53.1425C74.4545 53.1531 74.4659 53.1619 74.4785 53.1679C74.4911 53.1739 74.5048 53.1772 74.5186 53.1777C74.5323 53.1781 74.546 53.176 74.5586 53.1709C74.5711 53.1658 74.5825 53.1581 74.5918 53.1484L76.166 51.5595L98.5869 29.374C98.5976 29.3632 98.6061 29.3502 98.6113 29.3359C98.6165 29.3217 98.6184 29.3061 98.6172 29.291C98.6159 29.276 98.6119 29.2612 98.6045 29.248C98.597 29.2347 98.5866 29.2228 98.5742 29.2138C97.7396 28.6128 96.8016 27.4807 95.8662 26.6992C87.8843 20.0161 77.9922 16.6766 67.54 17.4375C59.9348 17.9895 52.9473 20.6445 46.5771 25.4023C44.8218 26.7831 42.7646 28.6428 40.4062 30.9814C26.8663 44.418 13.446 57.7471 0.145507 70.9687C0.136334 70.9775 0.124785 70.9838 0.112304 70.9863C0.0998243 70.9887 0.086776 70.987 0.0751943 70.9824C0.0637114 70.9778 0.0536385 70.97 0.046874 70.9599C0.0401023 70.9497 0.0367315 70.9371 0.0371083 70.9248C0.00265555 62.5059 -0.00792258 54.9785 0.00585833 48.3427C0.00758096 47.9885 0.123431 47.6827 0.352538 47.4248C0.852105 46.8642 1.33228 46.3536 1.79394 45.8945C2.48083 45.2123 12.2121 35.5177 30.9873 16.8105C32.0898 15.7118 33.5537 14.3748 35.3779 12.7998C41.1091 8.03326 47.4309 4.5834 54.3438 2.45114Z" fill="#FEAA01"/>
</svg>
