<svg width="1200" height="675" viewBox="0 0 1200 675" fill="none" xmlns="http://www.w3.org/2000/svg">
<g clip-path="url(#clip0_5140_844)">
<rect width="1200" height="675" fill="white"/>
<rect width="1200" height="675" fill="url(#paint0_radial_5140_844)" fill-opacity="0.3"/>
<path d="M202.31 316.851C201.857 312.83 199.988 309.714 196.703 307.505C193.417 305.268 189.282 304.149 184.298 304.149C180.729 304.149 177.642 304.716 175.037 305.848C172.431 306.953 170.406 308.482 168.962 310.437C167.545 312.362 166.837 314.557 166.837 317.021C166.837 319.089 167.319 320.873 168.282 322.374C169.273 323.875 170.562 325.135 172.148 326.155C173.762 327.146 175.49 327.982 177.331 328.662C179.171 329.313 180.942 329.851 182.641 330.276L191.137 332.485C193.913 333.165 196.759 334.085 199.676 335.246C202.594 336.408 205.298 337.937 207.791 339.834C210.283 341.732 212.294 344.083 213.823 346.887C215.381 349.69 216.16 353.046 216.16 356.955C216.16 361.883 214.885 366.259 212.336 370.082C209.816 373.905 206.148 376.922 201.333 379.131C196.547 381.34 190.755 382.444 183.958 382.444C177.444 382.444 171.808 381.411 167.05 379.343C162.292 377.276 158.567 374.344 155.877 370.549C153.186 366.726 151.699 362.194 151.416 356.955H164.586C164.841 360.099 165.86 362.718 167.645 364.814C169.457 366.882 171.765 368.425 174.569 369.445C177.401 370.436 180.503 370.932 183.873 370.932C187.583 370.932 190.883 370.351 193.771 369.19C196.688 368 198.983 366.358 200.653 364.262C202.324 362.138 203.16 359.66 203.16 356.827C203.16 354.25 202.424 352.14 200.951 350.498C199.506 348.855 197.538 347.495 195.046 346.419C192.582 345.343 189.792 344.394 186.677 343.573L176.396 340.769C169.429 338.871 163.906 336.082 159.828 332.4C155.778 328.718 153.753 323.847 153.753 317.786C153.753 312.773 155.112 308.397 157.831 304.659C160.55 300.92 164.232 298.017 168.877 295.95C173.521 293.854 178.761 292.806 184.595 292.806C190.486 292.806 195.683 293.84 200.186 295.908C204.718 297.975 208.286 300.821 210.892 304.446C213.497 308.043 214.857 312.178 214.97 316.851H202.31ZM258.313 382.317C252.195 382.317 246.857 380.915 242.297 378.111C237.737 375.307 234.197 371.385 231.676 366.344C229.156 361.302 227.895 355.411 227.895 348.671C227.895 341.902 229.156 335.983 231.676 330.913C234.197 325.844 237.737 321.907 242.297 319.103C246.857 316.299 252.195 314.897 258.313 314.897C264.43 314.897 269.769 316.299 274.329 319.103C278.889 321.907 282.429 325.844 284.949 330.913C287.47 335.983 288.73 341.902 288.73 348.671C288.73 355.411 287.47 361.302 284.949 366.344C282.429 371.385 278.889 375.307 274.329 378.111C269.769 380.915 264.43 382.317 258.313 382.317ZM258.355 371.654C262.32 371.654 265.606 370.606 268.211 368.51C270.817 366.414 272.743 363.625 273.989 360.141C275.263 356.658 275.901 352.82 275.901 348.628C275.901 344.465 275.263 340.642 273.989 337.158C272.743 333.646 270.817 330.828 268.211 328.704C265.606 326.58 262.32 325.518 258.355 325.518C254.362 325.518 251.048 326.58 248.414 328.704C245.809 330.828 243.869 333.646 242.594 337.158C241.348 340.642 240.725 344.465 240.725 348.628C240.725 352.82 241.348 356.658 242.594 360.141C243.869 363.625 245.809 366.414 248.414 368.51C251.048 370.606 254.362 371.654 258.355 371.654ZM315.611 293.996V381H302.909V293.996H315.611ZM351.689 382.444C347.555 382.444 343.816 381.68 340.474 380.15C337.132 378.593 334.484 376.341 332.53 373.396C330.604 370.45 329.641 366.839 329.641 362.563C329.641 358.881 330.349 355.85 331.765 353.471C333.181 351.092 335.093 349.209 337.5 347.821C339.908 346.433 342.598 345.385 345.572 344.677C348.546 343.969 351.576 343.431 354.663 343.063C358.572 342.61 361.744 342.242 364.179 341.959C366.615 341.647 368.385 341.151 369.49 340.472C370.594 339.792 371.146 338.687 371.146 337.158V336.861C371.146 333.151 370.099 330.276 368.003 328.237C365.935 326.198 362.848 325.178 358.742 325.178C354.465 325.178 351.095 326.127 348.631 328.024C346.195 329.894 344.51 331.975 343.575 334.269L331.638 331.55C333.054 327.585 335.121 324.385 337.84 321.949C340.587 319.485 343.745 317.701 347.314 316.596C350.882 315.464 354.635 314.897 358.572 314.897C361.177 314.897 363.939 315.209 366.856 315.832C369.801 316.427 372.548 317.531 375.097 319.145C377.675 320.76 379.785 323.068 381.427 326.07C383.07 329.044 383.891 332.91 383.891 337.668V381H371.486V372.079H370.977C370.155 373.721 368.923 375.336 367.281 376.922C365.638 378.508 363.528 379.825 360.951 380.873C358.373 381.92 355.286 382.444 351.689 382.444ZM354.451 372.249C357.963 372.249 360.965 371.555 363.457 370.167C365.978 368.779 367.889 366.967 369.192 364.729C370.523 362.463 371.189 360.042 371.189 357.465V349.053C370.736 349.506 369.858 349.931 368.555 350.328C367.281 350.696 365.822 351.022 364.179 351.305C362.537 351.56 360.937 351.8 359.379 352.027C357.821 352.225 356.518 352.395 355.47 352.537C353.006 352.848 350.755 353.372 348.716 354.109C346.705 354.845 345.091 355.907 343.873 357.295C342.683 358.654 342.088 360.467 342.088 362.733C342.088 365.876 343.25 368.255 345.572 369.87C347.894 371.456 350.854 372.249 354.451 372.249ZM413.512 342.256V381H400.81V315.747H413.002V326.367H413.81C415.311 322.912 417.661 320.137 420.862 318.041C424.09 315.945 428.154 314.897 433.054 314.897C437.501 314.897 441.395 315.832 444.737 317.701C448.079 319.542 450.67 322.289 452.511 325.943C454.352 329.596 455.273 334.113 455.273 339.495V381H442.57V341.024C442.57 336.294 441.338 332.598 438.874 329.936C436.41 327.245 433.026 325.9 428.721 325.9C425.775 325.9 423.156 326.537 420.862 327.812C418.596 329.086 416.797 330.956 415.466 333.42C414.164 335.855 413.512 338.801 413.512 342.256ZM491.298 382.444C487.163 382.444 483.424 381.68 480.082 380.15C476.74 378.593 474.092 376.341 472.138 373.396C470.212 370.45 469.249 366.839 469.249 362.563C469.249 358.881 469.957 355.85 471.373 353.471C472.789 351.092 474.701 349.209 477.109 347.821C479.516 346.433 482.206 345.385 485.18 344.677C488.154 343.969 491.184 343.431 494.271 343.063C498.18 342.61 501.352 342.242 503.788 341.959C506.223 341.647 507.993 341.151 509.098 340.472C510.202 339.792 510.755 338.687 510.755 337.158V336.861C510.755 333.151 509.707 330.276 507.611 328.237C505.543 326.198 502.456 325.178 498.35 325.178C494.073 325.178 490.703 326.127 488.239 328.024C485.803 329.894 484.118 331.975 483.184 334.269L471.246 331.55C472.662 327.585 474.73 324.385 477.448 321.949C480.196 319.485 483.353 317.701 486.922 316.596C490.491 315.464 494.243 314.897 498.18 314.897C500.785 314.897 503.547 315.209 506.464 315.832C509.409 316.427 512.157 317.531 514.706 319.145C517.283 320.76 519.393 323.068 521.035 326.07C522.678 329.044 523.499 332.91 523.499 337.668V381H511.095V372.079H510.585C509.763 373.721 508.531 375.336 506.889 376.922C505.246 378.508 503.136 379.825 500.559 380.873C497.982 381.92 494.895 382.444 491.298 382.444ZM494.059 372.249C497.571 372.249 500.573 371.555 503.065 370.167C505.586 368.779 507.498 366.967 508.8 364.729C510.132 362.463 510.797 360.042 510.797 357.465V349.053C510.344 349.506 509.466 349.931 508.163 350.328C506.889 350.696 505.43 351.022 503.788 351.305C502.145 351.56 500.545 351.8 498.987 352.027C497.429 352.225 496.127 352.395 495.079 352.537C492.615 352.848 490.363 353.372 488.324 354.109C486.313 354.845 484.699 355.907 483.481 357.295C482.291 358.654 481.697 360.467 481.697 362.733C481.697 365.876 482.858 368.255 485.18 369.87C487.503 371.456 490.462 372.249 494.059 372.249ZM541.438 381V293.996H554.565V331.805H597.939V293.996H611.109V381H597.939V343.063H554.565V381H541.438ZM670.542 353.939V315.747H683.287V381H670.797V369.7H670.117C668.616 373.183 666.209 376.086 662.895 378.409C659.61 380.703 655.517 381.85 650.618 381.85C646.426 381.85 642.716 380.929 639.487 379.088C636.287 377.219 633.766 374.458 631.925 370.804C630.113 367.151 629.207 362.633 629.207 357.252V315.747H641.909V355.723C641.909 360.169 643.141 363.71 645.605 366.344C648.069 368.977 651.269 370.294 655.206 370.294C657.585 370.294 659.95 369.7 662.3 368.51C664.679 367.321 666.648 365.522 668.206 363.115C669.792 360.708 670.57 357.649 670.542 353.939ZM701.374 381V293.996H714.076V326.325H714.841C715.577 324.966 716.639 323.394 718.027 321.609C719.415 319.825 721.341 318.267 723.805 316.936C726.269 315.577 729.526 314.897 733.576 314.897C738.843 314.897 743.545 316.228 747.68 318.891C751.815 321.553 755.058 325.39 757.408 330.403C759.787 335.416 760.977 341.449 760.977 348.501C760.977 355.553 759.801 361.6 757.451 366.641C755.1 371.654 751.871 375.52 747.765 378.239C743.658 380.929 738.971 382.274 733.703 382.274C729.738 382.274 726.495 381.609 723.974 380.278C721.482 378.947 719.528 377.389 718.112 375.605C716.696 373.82 715.605 372.234 714.841 370.847H713.779V381H701.374ZM713.821 348.373C713.821 352.962 714.487 356.983 715.818 360.438C717.149 363.894 719.075 366.598 721.595 368.553C724.116 370.478 727.203 371.441 730.857 371.441C734.652 371.441 737.824 370.436 740.373 368.425C742.922 366.386 744.848 363.625 746.15 360.141C747.481 356.658 748.147 352.735 748.147 348.373C748.147 344.069 747.496 340.203 746.193 336.776C744.918 333.349 742.992 330.644 740.415 328.662C737.866 326.679 734.68 325.688 730.857 325.688C727.175 325.688 724.059 326.637 721.51 328.534C718.99 330.432 717.078 333.08 715.775 336.478C714.473 339.877 713.821 343.842 713.821 348.373Z" fill="black"/>
<path d="M803.489 338.193C803.489 310.19 826.19 287.489 854.193 287.489H999.671C1027.67 287.489 1050.38 310.19 1050.38 338.193C1050.38 366.196 1027.67 388.898 999.671 388.898H854.193C826.19 388.898 803.489 366.196 803.489 338.193Z" stroke="url(#paint1_linear_5140_844)" stroke-width="8.97726" stroke-linecap="round" stroke-linejoin="round"/>
<path d="M853.629 336.827H869.464L856.696 352.149L857.694 344.164C857.84 342.998 857.478 341.825 856.7 340.944C855.923 340.063 854.804 339.559 853.629 339.559H837.793L850.561 324.237L849.563 332.222C849.417 333.388 849.779 334.561 850.557 335.442C851.335 336.323 852.454 336.827 853.629 336.827Z" stroke="url(#paint2_linear_5140_844)" stroke-width="8.19442" stroke-linecap="round" stroke-linejoin="round"/>
<mask id="path-4-inside-1_5140_844" fill="white">
<path d="M902.458 360.193V316.49H918.035C921.436 316.49 924.252 317.108 926.486 318.346C928.72 319.584 930.391 321.277 931.501 323.425C932.61 325.559 933.165 327.963 933.165 330.638C933.165 333.327 932.603 335.745 931.479 337.893C930.37 340.027 928.691 341.72 926.443 342.972C924.21 344.21 921.4 344.829 918.014 344.829H907.302V339.238H917.417C919.565 339.238 921.308 338.868 922.645 338.128C923.982 337.374 924.964 336.35 925.59 335.055C926.216 333.76 926.529 332.288 926.529 330.638C926.529 328.987 926.216 327.522 925.59 326.242C924.964 324.961 923.975 323.958 922.623 323.233C921.286 322.507 919.522 322.145 917.331 322.145H909.051V360.193H902.458ZM940.896 360.193V316.49H956.473C959.859 316.49 962.669 317.073 964.903 318.239C967.15 319.406 968.829 321.021 969.939 323.083C971.048 325.132 971.603 327.501 971.603 330.19C971.603 332.864 971.041 335.219 969.917 337.253C968.808 339.273 967.129 340.845 964.881 341.969C962.648 343.093 959.838 343.655 956.452 343.655H944.651V337.979H955.855C957.989 337.979 959.724 337.673 961.062 337.061C962.413 336.449 963.402 335.56 964.028 334.393C964.654 333.227 964.967 331.826 964.967 330.19C964.967 328.539 964.647 327.11 964.006 325.9C963.38 324.691 962.392 323.766 961.04 323.126C959.703 322.472 957.946 322.145 955.769 322.145H947.49V360.193H940.896ZM962.47 340.475L973.268 360.193H965.756L955.172 340.475H962.47ZM1017.59 338.341C1017.59 343.008 1016.74 347.019 1015.03 350.377C1013.32 353.72 1010.98 356.295 1008.01 358.102C1005.05 359.894 1001.69 360.791 997.915 360.791C994.131 360.791 990.752 359.894 987.779 358.102C984.82 356.295 982.487 353.713 980.779 350.356C979.072 346.998 978.219 342.993 978.219 338.341C978.219 333.675 979.072 329.67 980.779 326.327C982.487 322.97 984.82 320.395 987.779 318.602C990.752 316.795 994.131 315.892 997.915 315.892C1001.69 315.892 1005.05 316.795 1008.01 318.602C1010.98 320.395 1013.32 322.97 1015.03 326.327C1016.74 329.67 1017.59 333.675 1017.59 338.341ZM1011.06 338.341C1011.06 334.785 1010.48 331.79 1009.33 329.357C1008.19 326.91 1006.63 325.061 1004.64 323.809C1002.66 322.543 1000.42 321.91 997.915 321.91C995.397 321.91 993.149 322.543 991.172 323.809C989.194 325.061 987.629 326.91 986.477 329.357C985.339 331.79 984.77 334.785 984.77 338.341C984.77 341.898 985.339 344.9 986.477 347.347C987.629 349.779 989.194 351.629 991.172 352.895C993.149 354.147 995.397 354.773 997.915 354.773C1000.42 354.773 1002.66 354.147 1004.64 352.895C1006.63 351.629 1008.19 349.779 1009.33 347.347C1010.48 344.9 1011.06 341.898 1011.06 338.341Z"/>
</mask>
<path d="M902.458 360.193V316.49H918.035C921.436 316.49 924.252 317.108 926.486 318.346C928.72 319.584 930.391 321.277 931.501 323.425C932.61 325.559 933.165 327.963 933.165 330.638C933.165 333.327 932.603 335.745 931.479 337.893C930.37 340.027 928.691 341.72 926.443 342.972C924.21 344.21 921.4 344.829 918.014 344.829H907.302V339.238H917.417C919.565 339.238 921.308 338.868 922.645 338.128C923.982 337.374 924.964 336.35 925.59 335.055C926.216 333.76 926.529 332.288 926.529 330.638C926.529 328.987 926.216 327.522 925.59 326.242C924.964 324.961 923.975 323.958 922.623 323.233C921.286 322.507 919.522 322.145 917.331 322.145H909.051V360.193H902.458ZM940.896 360.193V316.49H956.473C959.859 316.49 962.669 317.073 964.903 318.239C967.15 319.406 968.829 321.021 969.939 323.083C971.048 325.132 971.603 327.501 971.603 330.19C971.603 332.864 971.041 335.219 969.917 337.253C968.808 339.273 967.129 340.845 964.881 341.969C962.648 343.093 959.838 343.655 956.452 343.655H944.651V337.979H955.855C957.989 337.979 959.724 337.673 961.062 337.061C962.413 336.449 963.402 335.56 964.028 334.393C964.654 333.227 964.967 331.826 964.967 330.19C964.967 328.539 964.647 327.11 964.006 325.9C963.38 324.691 962.392 323.766 961.04 323.126C959.703 322.472 957.946 322.145 955.769 322.145H947.49V360.193H940.896ZM962.47 340.475L973.268 360.193H965.756L955.172 340.475H962.47ZM1017.59 338.341C1017.59 343.008 1016.74 347.019 1015.03 350.377C1013.32 353.72 1010.98 356.295 1008.01 358.102C1005.05 359.894 1001.69 360.791 997.915 360.791C994.131 360.791 990.752 359.894 987.779 358.102C984.82 356.295 982.487 353.713 980.779 350.356C979.072 346.998 978.219 342.993 978.219 338.341C978.219 333.675 979.072 329.67 980.779 326.327C982.487 322.97 984.82 320.395 987.779 318.602C990.752 316.795 994.131 315.892 997.915 315.892C1001.69 315.892 1005.05 316.795 1008.01 318.602C1010.98 320.395 1013.32 322.97 1015.03 326.327C1016.74 329.67 1017.59 333.675 1017.59 338.341ZM1011.06 338.341C1011.06 334.785 1010.48 331.79 1009.33 329.357C1008.19 326.91 1006.63 325.061 1004.64 323.809C1002.66 322.543 1000.42 321.91 997.915 321.91C995.397 321.91 993.149 322.543 991.172 323.809C989.194 325.061 987.629 326.91 986.477 329.357C985.339 331.79 984.77 334.785 984.77 338.341C984.77 341.898 985.339 344.9 986.477 347.347C987.629 349.779 989.194 351.629 991.172 352.895C993.149 354.147 995.397 354.773 997.915 354.773C1000.42 354.773 1002.66 354.147 1004.64 352.895C1006.63 351.629 1008.19 349.779 1009.33 347.347C1010.48 344.9 1011.06 341.898 1011.06 338.341Z" fill="white"/>
<path d="M902.458 360.193H896.458V366.193H902.458V360.193ZM902.458 316.49V310.49H896.458V316.49H902.458ZM931.501 323.425L926.17 326.179L926.174 326.186L926.177 326.193L931.501 323.425ZM931.479 337.893L926.163 335.112L926.16 335.118L926.156 335.125L931.479 337.893ZM926.443 342.972L929.351 348.22L929.363 348.214L926.443 342.972ZM907.302 344.829H901.302V350.829H907.302V344.829ZM907.302 339.238V333.238H901.302V339.238H907.302ZM922.645 338.128L925.549 343.378L925.57 343.366L925.592 343.354L922.645 338.128ZM922.623 323.233L919.762 328.507L919.774 328.513L919.786 328.519L922.623 323.233ZM909.051 322.145V316.145H903.051V322.145H909.051ZM909.051 360.193V366.193H915.051V360.193H909.051ZM908.458 360.193V316.49H896.458V360.193H908.458ZM902.458 322.49H918.035V310.49H902.458V322.49ZM918.035 322.49C920.743 322.49 922.481 322.986 923.578 323.594L929.394 313.098C926.024 311.23 922.128 310.49 918.035 310.49V322.49ZM923.578 323.594C924.837 324.292 925.635 325.143 926.17 326.179L936.832 320.671C935.147 317.41 932.603 314.876 929.394 313.098L923.578 323.594ZM926.177 326.193C926.795 327.38 927.165 328.817 927.165 330.638H939.165C939.165 327.109 938.426 323.738 936.824 320.657L926.177 326.193ZM927.165 330.638C927.165 332.465 926.791 333.912 926.163 335.112L936.796 340.675C938.416 337.578 939.165 334.188 939.165 330.638H927.165ZM926.156 335.125C925.627 336.143 924.82 337.008 923.524 337.73L929.363 348.214C932.562 346.432 935.113 343.911 936.803 340.661L926.156 335.125ZM923.535 337.724C922.435 338.334 920.703 338.829 918.014 338.829V350.829C922.097 350.829 925.985 350.086 929.351 348.22L923.535 337.724ZM918.014 338.829H907.302V350.829H918.014V338.829ZM913.302 344.829V339.238H901.302V344.829H913.302ZM907.302 345.238H917.417V333.238H907.302V345.238ZM917.417 345.238C920.191 345.238 923.035 344.769 925.549 343.378L919.74 332.878C919.58 332.966 918.938 333.238 917.417 333.238V345.238ZM925.592 343.354C927.919 342.042 929.796 340.139 930.991 337.667L920.188 332.443C920.131 332.56 920.046 332.705 919.698 332.901L925.592 343.354ZM930.991 337.667C932.065 335.446 932.529 333.059 932.529 330.638H920.529C920.529 331.517 920.366 332.075 920.188 332.443L930.991 337.667ZM932.529 330.638C932.529 328.218 932.066 325.828 930.98 323.606L920.199 328.877C920.365 329.217 920.529 329.757 920.529 330.638H932.529ZM930.98 323.606C929.759 321.109 927.831 319.219 925.461 317.946L919.786 328.519C920.119 328.698 920.168 328.814 920.199 328.877L930.98 323.606ZM925.485 317.959C922.967 316.593 920.11 316.145 917.331 316.145V328.145C918.934 328.145 919.605 328.421 919.762 328.507L925.485 317.959ZM917.331 316.145H909.051V328.145H917.331V316.145ZM903.051 322.145V360.193H915.051V322.145H903.051ZM909.051 354.193H902.458V366.193H909.051V354.193ZM940.896 360.193H934.896V366.193H940.896V360.193ZM940.896 316.49V310.49H934.896V316.49H940.896ZM964.903 318.239L962.125 323.558L962.132 323.561L962.139 323.565L964.903 318.239ZM969.939 323.083L964.655 325.926L964.659 325.934L964.663 325.941L969.939 323.083ZM969.917 337.253L964.666 334.352L964.662 334.358L964.659 334.364L969.917 337.253ZM964.881 341.969L962.198 336.602L962.191 336.606L962.184 336.609L964.881 341.969ZM944.651 343.655H938.651V349.655H944.651V343.655ZM944.651 337.979V331.979H938.651V337.979H944.651ZM961.062 337.061L958.587 331.595L958.576 331.6L958.566 331.605L961.062 337.061ZM964.006 325.9L958.678 328.659L958.691 328.683L958.704 328.708L964.006 325.9ZM961.04 323.126L958.403 328.515L958.437 328.532L958.472 328.549L961.04 323.126ZM947.49 322.145V316.145H941.49V322.145H947.49ZM947.49 360.193V366.193H953.49V360.193H947.49ZM962.47 340.475L967.733 337.593L966.025 334.475H962.47V340.475ZM973.268 360.193V366.193H983.394L978.53 357.311L973.268 360.193ZM965.756 360.193L960.47 363.031L962.167 366.193H965.756V360.193ZM955.172 340.475V334.475H945.141L949.885 343.313L955.172 340.475ZM946.896 360.193V316.49H934.896V360.193H946.896ZM940.896 322.49H956.473V310.49H940.896V322.49ZM956.473 322.49C959.21 322.49 960.992 322.966 962.125 323.558L967.68 312.921C964.346 311.18 960.509 310.49 956.473 310.49V322.49ZM962.139 323.565C963.407 324.223 964.163 325.012 964.655 325.926L975.223 320.241C973.495 317.029 970.894 314.589 967.667 312.914L962.139 323.565ZM964.663 325.941C965.229 326.985 965.603 328.344 965.603 330.19H977.603C977.603 326.658 976.868 323.279 975.215 320.226L964.663 325.941ZM965.603 330.19C965.603 332.004 965.229 333.332 964.666 334.352L975.169 340.154C976.854 337.106 977.603 333.724 977.603 330.19H965.603ZM964.659 334.364C964.189 335.219 963.459 335.972 962.198 336.602L967.565 347.336C970.799 345.718 973.427 343.327 975.176 340.142L964.659 334.364ZM962.184 336.609C961.03 337.19 959.217 337.655 956.452 337.655V349.655C960.459 349.655 964.266 348.996 967.578 347.329L962.184 336.609ZM956.452 337.655H944.651V349.655H956.452V337.655ZM950.651 343.655V337.979H938.651V343.655H950.651ZM944.651 343.979H955.855V331.979H944.651V343.979ZM955.855 343.979C958.492 343.979 961.166 343.611 963.557 342.517L958.566 331.605C958.282 331.734 957.485 331.979 955.855 331.979V343.979ZM963.536 342.527C965.936 341.441 967.991 339.698 969.315 337.23L958.741 331.557C958.746 331.547 958.757 331.53 958.772 331.51C958.787 331.491 958.8 331.479 958.805 331.474C958.818 331.462 958.766 331.514 958.587 331.595L963.536 342.527ZM969.315 337.23C970.507 335.009 970.967 332.586 970.967 330.19H958.967C958.967 331.066 958.801 331.445 958.741 331.557L969.315 337.23ZM970.967 330.19C970.967 327.761 970.492 325.328 969.309 323.093L958.704 328.708C958.801 328.891 958.967 329.318 958.967 330.19H970.967ZM969.335 323.142C968.045 320.651 966.024 318.848 963.609 317.704L958.472 328.549C958.56 328.59 958.617 328.625 958.651 328.647C958.683 328.669 958.697 328.682 958.697 328.682C958.697 328.682 958.691 328.677 958.684 328.667C958.677 328.658 958.675 328.653 958.678 328.659L969.335 323.142ZM963.677 317.737C961.229 316.539 958.47 316.145 955.769 316.145V328.145C957.422 328.145 958.177 328.405 958.403 328.515L963.677 317.737ZM955.769 316.145H947.49V328.145H955.769V316.145ZM941.49 322.145V360.193H953.49V322.145H941.49ZM947.49 354.193H940.896V366.193H947.49V354.193ZM957.207 343.357L968.005 363.075L978.53 357.311L967.733 337.593L957.207 343.357ZM973.268 354.193H965.756V366.193H973.268V354.193ZM971.043 357.355L960.458 337.638L949.885 343.313L960.47 363.031L971.043 357.355ZM955.172 346.475H962.47V334.475H955.172V346.475ZM1015.03 350.377L1020.37 353.106L1020.38 353.096L1015.03 350.377ZM1008.01 358.102L1011.12 363.234L1011.12 363.229L1008.01 358.102ZM987.779 358.102L984.652 363.223L984.666 363.232L984.681 363.24L987.779 358.102ZM980.779 350.356L986.128 347.636L980.779 350.356ZM980.779 326.327L986.123 329.056L986.128 329.047L980.779 326.327ZM987.779 318.602L990.887 323.734L990.895 323.73L987.779 318.602ZM1008.01 318.602L1004.88 323.723L1004.9 323.732L1004.91 323.741L1008.01 318.602ZM1015.03 326.327L1009.68 329.047L1009.69 329.056L1015.03 326.327ZM1009.33 329.357L1003.89 331.888L1003.9 331.907L1003.91 331.926L1009.33 329.357ZM1004.64 323.809L1001.4 328.862L1001.42 328.876L1001.44 328.889L1004.64 323.809ZM991.172 323.809L994.381 328.878L994.394 328.87L994.407 328.862L991.172 323.809ZM986.477 329.357L981.049 326.801L981.046 326.808L981.042 326.815L986.477 329.357ZM986.477 347.347L981.037 349.877L981.046 349.896L981.055 349.915L986.477 347.347ZM991.172 352.895L987.936 357.948L987.949 357.956L987.962 357.964L991.172 352.895ZM1004.64 352.895L1007.85 357.964L1007.86 357.958L1004.64 352.895ZM1009.33 347.347L1003.9 344.79L1003.9 344.797L1003.9 344.804L1009.33 347.347ZM1011.59 338.341C1011.59 342.284 1010.87 345.32 1009.68 347.657L1020.38 353.096C1022.6 348.719 1023.59 343.731 1023.59 338.341H1011.59ZM1009.69 347.648C1008.44 350.082 1006.84 351.791 1004.89 352.974L1011.12 363.229C1015.12 360.799 1018.2 357.358 1020.37 353.106L1009.69 347.648ZM1004.9 352.97C1002.96 354.144 1000.69 354.791 997.915 354.791V366.791C1002.68 366.791 1007.14 365.645 1011.12 363.234L1004.9 352.97ZM997.915 354.791C995.121 354.791 992.832 354.142 990.877 352.963L984.681 363.24C988.673 365.647 993.141 366.791 997.915 366.791V354.791ZM990.905 352.981C988.977 351.803 987.376 350.091 986.128 347.636L975.431 353.075C977.597 357.335 980.663 360.787 984.652 363.223L990.905 352.981ZM986.128 347.636C984.938 345.296 984.219 342.266 984.219 338.341H972.219C972.219 343.72 973.206 348.7 975.431 353.075L986.128 347.636ZM984.219 338.341C984.219 334.398 984.939 331.374 986.123 329.056L975.436 323.598C973.205 327.967 972.219 332.952 972.219 338.341H984.219ZM986.128 329.047C987.374 326.595 988.97 324.896 990.887 323.734L984.67 313.47C980.67 315.894 977.599 319.345 975.431 323.608L986.128 329.047ZM990.895 323.73C992.847 322.543 995.13 321.892 997.915 321.892V309.892C993.132 309.892 988.657 311.048 984.663 313.475L990.895 323.73ZM997.915 321.892C1000.68 321.892 1002.95 322.541 1004.88 323.723L1011.14 313.481C1007.15 311.05 1002.69 309.892 997.915 309.892V321.892ZM1004.91 323.741C1006.84 324.904 1008.44 326.602 1009.68 329.047L1020.38 323.608C1018.21 319.337 1015.12 315.885 1011.11 313.464L1004.91 323.741ZM1009.69 329.056C1010.87 331.374 1011.59 334.398 1011.59 338.341H1023.59C1023.59 332.952 1022.6 327.967 1020.37 323.598L1009.69 329.056ZM1017.06 338.341C1017.06 334.169 1016.39 330.239 1014.75 326.789L1003.91 331.926C1004.58 333.341 1005.06 335.4 1005.06 338.341H1017.06ZM1014.77 326.827C1013.22 323.49 1010.94 320.683 1007.83 318.729L1001.44 328.889C1002.32 329.439 1003.17 330.331 1003.89 331.888L1014.77 326.827ZM1007.87 318.756C1004.86 316.83 1001.49 315.91 997.915 315.91V327.91C999.352 327.91 1000.45 328.256 1001.4 328.862L1007.87 318.756ZM997.915 315.91C994.337 315.91 990.95 316.826 987.936 318.756L994.407 328.862C995.348 328.259 996.457 327.91 997.915 327.91V315.91ZM987.962 318.74C984.879 320.692 982.61 323.487 981.049 326.801L991.905 331.914C992.649 330.334 993.51 329.43 994.381 328.878L987.962 318.74ZM981.042 326.815C979.432 330.258 978.77 334.178 978.77 338.341H990.77C990.77 335.392 991.246 333.323 991.912 331.9L981.042 326.815ZM978.77 338.341C978.77 342.507 979.432 346.428 981.037 349.877L991.917 344.816C991.245 343.372 990.77 341.289 990.77 338.341H978.77ZM981.055 349.915C982.617 353.213 984.879 355.99 987.936 357.948L994.407 347.842C993.51 347.267 992.642 346.346 991.899 344.778L981.055 349.915ZM987.962 357.964C990.973 359.871 994.351 360.773 997.915 360.773V348.773C996.443 348.773 995.325 348.423 994.381 347.825L987.962 357.964ZM997.915 360.773C1001.47 360.773 1004.84 359.867 1007.85 357.964L1001.43 347.825C1000.48 348.427 999.365 348.773 997.915 348.773V360.773ZM1007.86 357.958C1010.94 355.999 1013.21 353.209 1014.77 349.889L1003.9 344.804C1003.17 346.349 1002.32 347.259 1001.42 347.832L1007.86 357.958ZM1014.76 349.903C1016.39 346.446 1017.06 342.515 1017.06 338.341H1005.06C1005.06 341.28 1004.58 343.353 1003.9 344.79L1014.76 349.903Z" fill="url(#paint3_linear_5140_844)" mask="url(#path-4-inside-1_5140_844)"/>
<g opacity="0.2">
<mask id="mask0_5140_844" style="mask-type:alpha" maskUnits="userSpaceOnUse" x="213" y="-50" width="775" height="775">
<rect width="775" height="775" transform="translate(213 -50)" fill="url(#paint4_radial_5140_844)"/>
</mask>
<g mask="url(#mask0_5140_844)">
<circle cx="600.499" cy="337.5" r="109.561" stroke="black" stroke-width="2.30655"/>
<circle cx="600.499" cy="337.5" r="109.561" stroke="black" stroke-width="2.30655"/>
<circle cx="600.499" cy="337.5" r="164.918" stroke="black" stroke-width="2.30655"/>
<circle cx="600.501" cy="337.5" r="220.275" stroke="black" stroke-width="2.30655"/>
<circle cx="600.501" cy="337.5" r="275.632" stroke="black" stroke-width="2.30655"/>
<circle cx="600.5" cy="337.5" r="330.99" stroke="black" stroke-width="2.30655"/>
<circle cx="600.5" cy="337.5" r="386.347" stroke="black" stroke-width="2.30655"/>
</g>
</g>
</g>
<defs>
<radialGradient id="paint0_radial_5140_844" cx="0" cy="0" r="1" gradientUnits="userSpaceOnUse" gradientTransform="translate(600) rotate(90) scale(779 1554.15)">
<stop stop-color="#FF51C7"/>
<stop offset="0.6" stop-color="#7201FF"/>
<stop offset="0.9" stop-color="white"/>
</radialGradient>
<linearGradient id="paint1_linear_5140_844" x1="833.038" y1="235.386" x2="926.932" y2="393.386" gradientUnits="userSpaceOnUse">
<stop stop-color="#FF50C8"/>
<stop offset="1" stop-color="#7100FF"/>
</linearGradient>
<linearGradient id="paint2_linear_5140_844" x1="853.629" y1="310.878" x2="853.629" y2="365.508" gradientUnits="userSpaceOnUse">
<stop stop-color="#FF50C8"/>
<stop offset="1" stop-color="#7100FF"/>
</linearGradient>
<linearGradient id="paint3_linear_5140_844" x1="913.829" y1="256.235" x2="999.027" y2="343.391" gradientUnits="userSpaceOnUse">
<stop stop-color="#FF50C8"/>
<stop offset="1" stop-color="#7100FF"/>
</linearGradient>
<radialGradient id="paint4_radial_5140_844" cx="0" cy="0" r="1" gradientUnits="userSpaceOnUse" gradientTransform="translate(387.5 -9.23872e-05) rotate(90) scale(775 404.5)">
<stop/>
<stop offset="0.953125" stop-opacity="0"/>
</radialGradient>
<clipPath id="clip0_5140_844">
<rect width="1200" height="675" fill="white"/>
</clipPath>
</defs>
</svg>
