<svg width="96" height="30" viewBox="0 0 96 30" fill="none" xmlns="http://www.w3.org/2000/svg">
<g filter="url(#filter0_ddi_169_509)">
<path d="M11.4589 21.1809C13.0821 21.1809 14.3507 20.0629 14.3507 18.5901V17.6979L11.5664 17.8699C10.1796 17.9666 9.39483 18.5794 9.39483 19.5469C9.39483 20.5359 10.2118 21.1809 11.4589 21.1809ZM10.8139 23.0192C8.59932 23.0192 7.0513 21.6432 7.0513 19.6114C7.0513 17.6334 8.56707 16.4186 11.2546 16.2681L14.3507 16.0853V15.2146C14.3507 13.9568 13.5014 13.2043 12.0824 13.2043C10.7386 13.2043 9.90009 13.8493 9.69584 14.8598H7.50281C7.63181 12.8173 9.37333 11.3123 12.1684 11.3123C14.9097 11.3123 16.6619 12.7635 16.6619 15.0318V22.8257H14.4367V20.9659H14.3829C13.7271 22.2237 12.2974 23.0192 10.8139 23.0192ZM18.9195 22.8257V11.5165H21.134V13.4193H21.1878C21.693 12.1615 22.8755 11.323 24.4021 11.323C25.9716 11.323 27.1111 12.1293 27.5626 13.5375H27.6164C28.1969 12.1615 29.5299 11.323 31.1424 11.323C33.3784 11.323 34.8405 12.8065 34.8405 15.0533V22.8257H32.5077V15.6123C32.5077 14.1503 31.7229 13.3118 30.3469 13.3118C28.9709 13.3118 28.0141 14.3331 28.0141 15.7628V22.8257H25.7351V15.4403C25.7351 14.1396 24.9073 13.3118 23.5958 13.3118C22.2198 13.3118 21.2415 14.3868 21.2415 15.8381V22.8257H18.9195ZM37.1625 22.8257V11.5165H39.4845V22.8257H37.1625ZM38.3235 9.86099C37.5817 9.86099 36.9797 9.26973 36.9797 8.53872C36.9797 7.79696 37.5817 7.2057 38.3235 7.2057C39.076 7.2057 39.678 7.79696 39.678 8.53872C39.678 9.26973 39.076 9.86099 38.3235 9.86099ZM41.8603 22.8257V11.5165H44.0748V13.4408H44.1286C44.5049 12.1185 45.5154 11.3338 46.8484 11.3338C47.1816 11.3338 47.4719 11.3875 47.6439 11.4198V13.5805C47.4611 13.5053 47.0526 13.4515 46.6011 13.4515C45.1069 13.4515 44.1823 14.4513 44.1823 16.0531V22.8257H41.8603ZM49.7079 22.9439C48.9232 22.9439 48.2997 22.3204 48.2997 21.5357C48.2997 20.7509 48.9232 20.1274 49.7079 20.1274C50.4927 20.1274 51.1162 20.7509 51.1162 21.5357C51.1162 22.3204 50.4927 22.9439 49.7079 22.9439ZM53.836 22.8257V7.31321H56.1365V13.4085H56.1903C56.8138 12.0863 58.05 11.323 59.7701 11.323C62.2534 11.323 63.7369 12.9785 63.7369 15.5371V22.8257H61.4041V15.9886C61.4041 14.3223 60.5656 13.3225 58.9316 13.3225C57.2115 13.3225 56.158 14.5051 56.158 16.2896V22.8257H53.836ZM75.6803 11.5165V22.8257H73.455V20.9122H73.4013C72.7778 22.2667 71.6275 23.0299 69.8967 23.0299C67.4349 23.0299 65.9299 21.4282 65.9299 18.8374V11.5165H68.2519V18.3859C68.2519 20.1059 69.069 21.0304 70.6707 21.0304C72.3478 21.0304 73.3583 19.8694 73.3583 18.1064V11.5165H75.6803ZM84.0009 23.0192C82.3454 23.0192 81.0661 22.2129 80.3674 20.9014H80.3244V22.8257H78.0668V7.31321H80.3889V13.4408H80.4426C81.1199 12.1293 82.4099 11.3338 84.0117 11.3338C86.8605 11.3338 88.7202 13.5913 88.7202 17.1711C88.7202 20.7617 86.8712 23.0192 84.0009 23.0192ZM83.3774 13.2903C81.6144 13.2903 80.3781 14.8383 80.3781 17.1711C80.3781 19.5254 81.6144 21.0519 83.3774 21.0519C85.2049 21.0519 86.3337 19.5684 86.3337 17.1711C86.3337 14.7953 85.2049 13.2903 83.3774 13.2903Z" fill="white"/>
<path d="M11.4589 21.1809C13.0821 21.1809 14.3507 20.0629 14.3507 18.5901V17.6979L11.5664 17.8699C10.1796 17.9666 9.39483 18.5794 9.39483 19.5469C9.39483 20.5359 10.2118 21.1809 11.4589 21.1809ZM10.8139 23.0192C8.59932 23.0192 7.0513 21.6432 7.0513 19.6114C7.0513 17.6334 8.56707 16.4186 11.2546 16.2681L14.3507 16.0853V15.2146C14.3507 13.9568 13.5014 13.2043 12.0824 13.2043C10.7386 13.2043 9.90009 13.8493 9.69584 14.8598H7.50281C7.63181 12.8173 9.37333 11.3123 12.1684 11.3123C14.9097 11.3123 16.6619 12.7635 16.6619 15.0318V22.8257H14.4367V20.9659H14.3829C13.7271 22.2237 12.2974 23.0192 10.8139 23.0192ZM18.9195 22.8257V11.5165H21.134V13.4193H21.1878C21.693 12.1615 22.8755 11.323 24.4021 11.323C25.9716 11.323 27.1111 12.1293 27.5626 13.5375H27.6164C28.1969 12.1615 29.5299 11.323 31.1424 11.323C33.3784 11.323 34.8405 12.8065 34.8405 15.0533V22.8257H32.5077V15.6123C32.5077 14.1503 31.7229 13.3118 30.3469 13.3118C28.9709 13.3118 28.0141 14.3331 28.0141 15.7628V22.8257H25.7351V15.4403C25.7351 14.1396 24.9073 13.3118 23.5958 13.3118C22.2198 13.3118 21.2415 14.3868 21.2415 15.8381V22.8257H18.9195ZM37.1625 22.8257V11.5165H39.4845V22.8257H37.1625ZM38.3235 9.86099C37.5817 9.86099 36.9797 9.26973 36.9797 8.53872C36.9797 7.79696 37.5817 7.2057 38.3235 7.2057C39.076 7.2057 39.678 7.79696 39.678 8.53872C39.678 9.26973 39.076 9.86099 38.3235 9.86099ZM41.8603 22.8257V11.5165H44.0748V13.4408H44.1286C44.5049 12.1185 45.5154 11.3338 46.8484 11.3338C47.1816 11.3338 47.4719 11.3875 47.6439 11.4198V13.5805C47.4611 13.5053 47.0526 13.4515 46.6011 13.4515C45.1069 13.4515 44.1823 14.4513 44.1823 16.0531V22.8257H41.8603ZM49.7079 22.9439C48.9232 22.9439 48.2997 22.3204 48.2997 21.5357C48.2997 20.7509 48.9232 20.1274 49.7079 20.1274C50.4927 20.1274 51.1162 20.7509 51.1162 21.5357C51.1162 22.3204 50.4927 22.9439 49.7079 22.9439ZM53.836 22.8257V7.31321H56.1365V13.4085H56.1903C56.8138 12.0863 58.05 11.323 59.7701 11.323C62.2534 11.323 63.7369 12.9785 63.7369 15.5371V22.8257H61.4041V15.9886C61.4041 14.3223 60.5656 13.3225 58.9316 13.3225C57.2115 13.3225 56.158 14.5051 56.158 16.2896V22.8257H53.836ZM75.6803 11.5165V22.8257H73.455V20.9122H73.4013C72.7778 22.2667 71.6275 23.0299 69.8967 23.0299C67.4349 23.0299 65.9299 21.4282 65.9299 18.8374V11.5165H68.2519V18.3859C68.2519 20.1059 69.069 21.0304 70.6707 21.0304C72.3478 21.0304 73.3583 19.8694 73.3583 18.1064V11.5165H75.6803ZM84.0009 23.0192C82.3454 23.0192 81.0661 22.2129 80.3674 20.9014H80.3244V22.8257H78.0668V7.31321H80.3889V13.4408H80.4426C81.1199 12.1293 82.4099 11.3338 84.0117 11.3338C86.8605 11.3338 88.7202 13.5913 88.7202 17.1711C88.7202 20.7617 86.8712 23.0192 84.0009 23.0192ZM83.3774 13.2903C81.6144 13.2903 80.3781 14.8383 80.3781 17.1711C80.3781 19.5254 81.6144 21.0519 83.3774 21.0519C85.2049 21.0519 86.3337 19.5684 86.3337 17.1711C86.3337 14.7953 85.2049 13.2903 83.3774 13.2903Z" fill="url(#paint0_linear_169_509)" fill-opacity="0.62"/>
</g>
<defs>
<filter id="filter0_ddi_169_509" x="0.717348" y="0.871767" width="94.3368" height="28.4921" filterUnits="userSpaceOnUse" color-interpolation-filters="sRGB">
<feFlood flood-opacity="0" result="BackgroundImageFix"/>
<feColorMatrix in="SourceAlpha" type="matrix" values="0 0 0 0 0 0 0 0 0 0 0 0 0 0 0 0 0 0 127 0" result="hardAlpha"/>
<feOffset/>
<feGaussianBlur stdDeviation="3.16696"/>
<feComposite in2="hardAlpha" operator="out"/>
<feColorMatrix type="matrix" values="0 0 0 0 0.711538 0 0 0 0 0.0821006 0 0 0 0 0.51101 0 0 0 0.35 0"/>
<feBlend mode="plus-lighter" in2="BackgroundImageFix" result="effect1_dropShadow_169_509"/>
<feColorMatrix in="SourceAlpha" type="matrix" values="0 0 0 0 0 0 0 0 0 0 0 0 0 0 0 0 0 0 127 0" result="hardAlpha"/>
<feOffset/>
<feGaussianBlur stdDeviation="1.20038"/>
<feComposite in2="hardAlpha" operator="out"/>
<feColorMatrix type="matrix" values="0 0 0 0 0.903846 0 0 0 0 0.234652 0 0 0 0 0.690652 0 0 0 0.27 0"/>
<feBlend mode="plus-lighter" in2="effect1_dropShadow_169_509" result="effect2_dropShadow_169_509"/>
<feBlend mode="normal" in="SourceGraphic" in2="effect2_dropShadow_169_509" result="shape"/>
<feColorMatrix in="SourceAlpha" type="matrix" values="0 0 0 0 0 0 0 0 0 0 0 0 0 0 0 0 0 0 127 0" result="hardAlpha"/>
<feOffset dy="0.5108"/>
<feGaussianBlur stdDeviation="0.5108"/>
<feComposite in2="hardAlpha" operator="arithmetic" k2="-1" k3="1"/>
<feColorMatrix type="matrix" values="0 0 0 0 1 0 0 0 0 1 0 0 0 0 1 0 0 0 0.4 0"/>
<feBlend mode="normal" in2="shape" result="effect3_innerShadow_169_509"/>
</filter>
<linearGradient id="paint0_linear_169_509" x1="36.5631" y1="1.91822" x2="63.1532" y2="24.1394" gradientUnits="userSpaceOnUse">
<stop stop-color="#B84794" stop-opacity="0"/>
<stop offset="1" stop-color="#B84794"/>
</linearGradient>
</defs>
</svg>
