<svg width="151" height="46" viewBox="0 0 151 46" fill="none" xmlns="http://www.w3.org/2000/svg">
<g filter="url(#filter0_ddi_135_526)">
<path d="M17.1177 32.3853C19.6982 32.3853 21.7148 30.6079 21.7148 28.2666V26.8481L17.2886 27.1216C15.084 27.2754 13.8364 28.2495 13.8364 29.7876C13.8364 31.3599 15.1353 32.3853 17.1177 32.3853ZM16.0923 35.3076C12.5718 35.3076 10.1108 33.1201 10.1108 29.8901C10.1108 26.7456 12.5205 24.8145 16.793 24.5752L21.7148 24.2847V22.9004C21.7148 20.9009 20.3647 19.7046 18.1089 19.7046C15.9727 19.7046 14.6396 20.73 14.3149 22.3364H10.8286C11.0337 19.0894 13.8022 16.6968 18.2456 16.6968C22.6035 16.6968 25.3892 19.0039 25.3892 22.6099V35H21.8516V32.0435H21.7661C20.7236 34.043 18.4507 35.3076 16.0923 35.3076ZM28.978 35V17.0215H32.4985V20.0464H32.584C33.3872 18.0469 35.2671 16.7139 37.6938 16.7139C40.189 16.7139 42.0005 17.9956 42.7183 20.2344H42.8037C43.7266 18.0469 45.8457 16.7139 48.4092 16.7139C51.9639 16.7139 54.2881 19.0723 54.2881 22.644V35H50.5796V23.5327C50.5796 21.2085 49.332 19.8755 47.1445 19.8755C44.957 19.8755 43.436 21.499 43.436 23.772V35H39.813V23.2593C39.813 21.1914 38.4971 19.8755 36.4121 19.8755C34.2246 19.8755 32.6694 21.5845 32.6694 23.8916V35H28.978ZM57.9795 35V17.0215H61.6709V35H57.9795ZM59.8252 14.3896C58.646 14.3896 57.689 13.4497 57.689 12.2876C57.689 11.1084 58.646 10.1685 59.8252 10.1685C61.0215 10.1685 61.9785 11.1084 61.9785 12.2876C61.9785 13.4497 61.0215 14.3896 59.8252 14.3896ZM65.4478 35V17.0215H68.9683V20.0806H69.0537C69.6519 17.9785 71.2583 16.731 73.3774 16.731C73.9072 16.731 74.3687 16.8164 74.6421 16.8677V20.3027C74.3516 20.1831 73.7021 20.0977 72.9844 20.0977C70.6089 20.0977 69.1392 21.687 69.1392 24.2334V35H65.4478ZM77.9233 35.188C76.6758 35.188 75.6846 34.1968 75.6846 32.9492C75.6846 31.7017 76.6758 30.7104 77.9233 30.7104C79.1709 30.7104 80.1621 31.7017 80.1621 32.9492C80.1621 34.1968 79.1709 35.188 77.9233 35.188ZM84.4858 35V10.3394H88.1431V20.0293H88.2285C89.2197 17.9272 91.1851 16.7139 93.9194 16.7139C97.8672 16.7139 100.226 19.3457 100.226 23.4131V35H96.5171V24.1309C96.5171 21.4819 95.1841 19.8926 92.5864 19.8926C89.8521 19.8926 88.1772 21.7725 88.1772 24.6094V35H84.4858ZM119.212 17.0215V35H115.675V31.958H115.589C114.598 34.1113 112.77 35.3247 110.018 35.3247C106.104 35.3247 103.712 32.7783 103.712 28.6597V17.0215H107.403V27.9419C107.403 30.6763 108.702 32.146 111.249 32.146C113.915 32.146 115.521 30.3003 115.521 27.4976V17.0215H119.212ZM132.44 35.3076C129.808 35.3076 127.774 34.0259 126.664 31.9409H126.595V35H123.006V10.3394H126.698V20.0806H126.783C127.86 17.9956 129.911 16.731 132.457 16.731C136.986 16.731 139.942 20.3198 139.942 26.0107C139.942 31.7188 137.003 35.3076 132.44 35.3076ZM131.449 19.8413C128.646 19.8413 126.681 22.3022 126.681 26.0107C126.681 29.7534 128.646 32.1802 131.449 32.1802C134.354 32.1802 136.148 29.8218 136.148 26.0107C136.148 22.2339 134.354 19.8413 131.449 19.8413Z" fill="white"/>
<path d="M17.1177 32.3853C19.6982 32.3853 21.7148 30.6079 21.7148 28.2666V26.8481L17.2886 27.1216C15.084 27.2754 13.8364 28.2495 13.8364 29.7876C13.8364 31.3599 15.1353 32.3853 17.1177 32.3853ZM16.0923 35.3076C12.5718 35.3076 10.1108 33.1201 10.1108 29.8901C10.1108 26.7456 12.5205 24.8145 16.793 24.5752L21.7148 24.2847V22.9004C21.7148 20.9009 20.3647 19.7046 18.1089 19.7046C15.9727 19.7046 14.6396 20.73 14.3149 22.3364H10.8286C11.0337 19.0894 13.8022 16.6968 18.2456 16.6968C22.6035 16.6968 25.3892 19.0039 25.3892 22.6099V35H21.8516V32.0435H21.7661C20.7236 34.043 18.4507 35.3076 16.0923 35.3076ZM28.978 35V17.0215H32.4985V20.0464H32.584C33.3872 18.0469 35.2671 16.7139 37.6938 16.7139C40.189 16.7139 42.0005 17.9956 42.7183 20.2344H42.8037C43.7266 18.0469 45.8457 16.7139 48.4092 16.7139C51.9639 16.7139 54.2881 19.0723 54.2881 22.644V35H50.5796V23.5327C50.5796 21.2085 49.332 19.8755 47.1445 19.8755C44.957 19.8755 43.436 21.499 43.436 23.772V35H39.813V23.2593C39.813 21.1914 38.4971 19.8755 36.4121 19.8755C34.2246 19.8755 32.6694 21.5845 32.6694 23.8916V35H28.978ZM57.9795 35V17.0215H61.6709V35H57.9795ZM59.8252 14.3896C58.646 14.3896 57.689 13.4497 57.689 12.2876C57.689 11.1084 58.646 10.1685 59.8252 10.1685C61.0215 10.1685 61.9785 11.1084 61.9785 12.2876C61.9785 13.4497 61.0215 14.3896 59.8252 14.3896ZM65.4478 35V17.0215H68.9683V20.0806H69.0537C69.6519 17.9785 71.2583 16.731 73.3774 16.731C73.9072 16.731 74.3687 16.8164 74.6421 16.8677V20.3027C74.3516 20.1831 73.7021 20.0977 72.9844 20.0977C70.6089 20.0977 69.1392 21.687 69.1392 24.2334V35H65.4478ZM77.9233 35.188C76.6758 35.188 75.6846 34.1968 75.6846 32.9492C75.6846 31.7017 76.6758 30.7104 77.9233 30.7104C79.1709 30.7104 80.1621 31.7017 80.1621 32.9492C80.1621 34.1968 79.1709 35.188 77.9233 35.188ZM84.4858 35V10.3394H88.1431V20.0293H88.2285C89.2197 17.9272 91.1851 16.7139 93.9194 16.7139C97.8672 16.7139 100.226 19.3457 100.226 23.4131V35H96.5171V24.1309C96.5171 21.4819 95.1841 19.8926 92.5864 19.8926C89.8521 19.8926 88.1772 21.7725 88.1772 24.6094V35H84.4858ZM119.212 17.0215V35H115.675V31.958H115.589C114.598 34.1113 112.77 35.3247 110.018 35.3247C106.104 35.3247 103.712 32.7783 103.712 28.6597V17.0215H107.403V27.9419C107.403 30.6763 108.702 32.146 111.249 32.146C113.915 32.146 115.521 30.3003 115.521 27.4976V17.0215H119.212ZM132.44 35.3076C129.808 35.3076 127.774 34.0259 126.664 31.9409H126.595V35H123.006V10.3394H126.698V20.0806H126.783C127.86 17.9956 129.911 16.731 132.457 16.731C136.986 16.731 139.942 20.3198 139.942 26.0107C139.942 31.7188 137.003 35.3076 132.44 35.3076ZM131.449 19.8413C128.646 19.8413 126.681 22.3022 126.681 26.0107C126.681 29.7534 128.646 32.1802 131.449 32.1802C134.354 32.1802 136.148 29.8218 136.148 26.0107C136.148 22.2339 134.354 19.8413 131.449 19.8413Z" fill="url(#paint0_linear_135_526)" fill-opacity="0.62"/>
</g>
<defs>
<filter id="filter0_ddi_135_526" x="0.0416174" y="0.0992346" width="149.97" height="45.2947" filterUnits="userSpaceOnUse" color-interpolation-filters="sRGB">
<feFlood flood-opacity="0" result="BackgroundImageFix"/>
<feColorMatrix in="SourceAlpha" type="matrix" values="0 0 0 0 0 0 0 0 0 0 0 0 0 0 0 0 0 0 127 0" result="hardAlpha"/>
<feOffset/>
<feGaussianBlur stdDeviation="5.03461"/>
<feComposite in2="hardAlpha" operator="out"/>
<feColorMatrix type="matrix" values="0 0 0 0 0.711538 0 0 0 0 0.0821006 0 0 0 0 0.51101 0 0 0 0.35 0"/>
<feBlend mode="plus-lighter" in2="BackgroundImageFix" result="effect1_dropShadow_135_526"/>
<feColorMatrix in="SourceAlpha" type="matrix" values="0 0 0 0 0 0 0 0 0 0 0 0 0 0 0 0 0 0 127 0" result="hardAlpha"/>
<feOffset/>
<feGaussianBlur stdDeviation="1.90828"/>
<feComposite in2="hardAlpha" operator="out"/>
<feColorMatrix type="matrix" values="0 0 0 0 0.903846 0 0 0 0 0.234652 0 0 0 0 0.690652 0 0 0 0.27 0"/>
<feBlend mode="plus-lighter" in2="effect1_dropShadow_135_526" result="effect2_dropShadow_135_526"/>
<feBlend mode="normal" in="SourceGraphic" in2="effect2_dropShadow_135_526" result="shape"/>
<feColorMatrix in="SourceAlpha" type="matrix" values="0 0 0 0 0 0 0 0 0 0 0 0 0 0 0 0 0 0 127 0" result="hardAlpha"/>
<feOffset dy="0.812034"/>
<feGaussianBlur stdDeviation="0.812034"/>
<feComposite in2="hardAlpha" operator="arithmetic" k2="-1" k3="1"/>
<feColorMatrix type="matrix" values="0 0 0 0 1 0 0 0 0 1 0 0 0 0 1 0 0 0 0.4 0"/>
<feBlend mode="normal" in2="shape" result="effect3_innerShadow_135_526"/>
</filter>
<linearGradient id="paint0_linear_135_526" x1="56.8333" y1="2.14394" x2="98.3196" y2="37.4329" gradientUnits="userSpaceOnUse">
<stop stop-color="#B84794" stop-opacity="0"/>
<stop offset="1" stop-color="#B84794"/>
</linearGradient>
</defs>
</svg>
