<svg width="144" height="57" viewBox="0 0 144 57" fill="none" xmlns="http://www.w3.org/2000/svg">
<mask id="path-1-inside-1_337_458" fill="white">
<path d="M0.000354767 28.4385C0.000354767 12.7324 12.7327 0 28.4389 0H114.611C130.317 0 143.05 12.7324 143.05 28.4385C143.05 44.1446 130.317 56.877 114.611 56.877H28.4388C12.7327 56.877 0.000354767 44.1446 0.000354767 28.4385Z"/>
</mask>
<path d="M0.000354767 28.4385C0.000354767 12.7324 12.7327 0 28.4389 0H114.611C130.317 0 143.05 12.7324 143.05 28.4385C143.05 44.1446 130.317 56.877 114.611 56.877H28.4388C12.7327 56.877 0.000354767 44.1446 0.000354767 28.4385Z" fill="#0F0E20" fill-opacity="0.6"/>
<path d="M28.4389 0V1H114.611V0V-1H28.4389V0ZM114.611 56.877V55.877H28.4388V56.877V57.877H114.611V56.877ZM28.4388 56.877V55.877C13.285 55.877 1.00035 43.5924 1.00035 28.4385H0.000354767H-0.999645C-0.999645 44.6969 12.1804 57.877 28.4388 57.877V56.877ZM143.05 28.4385H142.05C142.05 43.5924 129.765 55.877 114.611 55.877V56.877V57.877C130.87 57.877 144.05 44.6969 144.05 28.4385H143.05ZM114.611 0V1C129.765 1 142.05 13.2846 142.05 28.4385H143.05H144.05C144.05 12.1801 130.87 -1 114.611 -1V0ZM28.4389 0V-1C12.1804 -1 -0.999645 12.1801 -0.999645 28.4385H0.000354767H1.00035C1.00035 13.2846 13.285 1 28.4389 1V0Z" fill="white" fill-opacity="0.08" mask="url(#path-1-inside-1_337_458)"/>
<rect x="8.00035" y="8" width="127.049" height="40.877" rx="20.4385" fill="#FE6633" fill-opacity="0.09"/>
<rect x="8.00035" y="8" width="127.049" height="40.877" rx="20.4385" fill="url(#paint0_linear_337_458)" fill-opacity="0.14"/>
<rect x="8.00035" y="8" width="127.049" height="40.877" rx="20.4385" fill="url(#paint1_linear_337_458)" fill-opacity="0.46" style="mix-blend-mode:overlay"/>
<rect x="8.24102" y="8.24066" width="126.568" height="40.3957" rx="20.1978" stroke="url(#paint2_linear_337_458)" stroke-opacity="0.02" stroke-width="0.481325"/>
<rect x="8.24102" y="8.24066" width="126.568" height="40.3957" rx="20.1978" stroke="url(#paint3_linear_337_458)" stroke-opacity="0.29" stroke-width="0.481325" style="mix-blend-mode:overlay"/>
<path d="M34.5012 20.4385V36.4385M34.5012 36.4385L40.5012 30.4385M34.5012 36.4385L28.5012 30.4385" stroke="white" stroke-width="2" stroke-linecap="round" stroke-linejoin="round"/>
<path d="M34.5012 20.4385V36.4385M34.5012 36.4385L40.5012 30.4385M34.5012 36.4385L28.5012 30.4385" stroke="url(#paint4_linear_337_458)" stroke-opacity="0.62" stroke-width="2" stroke-linecap="round" stroke-linejoin="round"/>
<g filter="url(#filter1_di_337_458)">
<path d="M61.0102 36.4385H54.9427V21.3169H60.9787C63.6614 21.3169 65.4219 22.8049 65.4219 25.0894C65.4219 26.6927 64.2378 28.1284 62.7288 28.3799V28.4637C64.7827 28.6943 66.166 30.1509 66.166 32.1629C66.166 34.8247 64.2273 36.4385 61.0102 36.4385ZM57.29 23.2346V27.7512H59.9203C61.9533 27.7512 63.0746 26.9128 63.0746 25.4143C63.0746 24.0101 62.1105 23.2346 60.4128 23.2346H57.29ZM57.29 34.5208H60.5281C62.6449 34.5208 63.7662 33.651 63.7662 32.0162C63.7662 30.3815 62.6135 29.5431 60.3919 29.5431H57.29V34.5208ZM72.6526 36.6481C69.4984 36.6481 67.4235 34.4789 67.4235 30.9264C67.4235 27.3844 69.5089 25.2152 72.6526 25.2152C75.7964 25.2152 77.8818 27.3844 77.8818 30.9264C77.8818 34.4789 75.8069 36.6481 72.6526 36.6481ZM72.6526 34.7828C74.4341 34.7828 75.5764 33.3785 75.5764 30.9264C75.5764 28.4847 74.4236 27.0805 72.6526 27.0805C70.8816 27.0805 69.7289 28.4847 69.7289 30.9264C69.7289 33.3785 70.8816 34.7828 72.6526 34.7828ZM79.6318 36.4385V25.4143H81.7906V27.2901H81.843C82.2097 26.0011 83.1948 25.2361 84.4942 25.2361C84.8191 25.2361 85.102 25.2885 85.2697 25.32V27.4263C85.0915 27.3529 84.6933 27.3005 84.2532 27.3005C82.7966 27.3005 81.8954 28.2751 81.8954 29.8365V36.4385H79.6318ZM86.6739 36.4385V25.4143H88.8326V27.2901H88.885C89.2518 26.0011 90.2369 25.2361 91.5363 25.2361C91.8611 25.2361 92.1441 25.2885 92.3118 25.32V27.4263C92.1336 27.3529 91.7354 27.3005 91.2953 27.3005C89.8386 27.3005 88.9374 28.2751 88.9374 29.8365V36.4385H86.6739ZM97.9706 36.6481C94.8163 36.6481 92.7414 34.4789 92.7414 30.9264C92.7414 27.3844 94.8268 25.2152 97.9706 25.2152C101.114 25.2152 103.2 27.3844 103.2 30.9264C103.2 34.4789 101.125 36.6481 97.9706 36.6481ZM97.9706 34.7828C99.752 34.7828 100.894 33.3785 100.894 30.9264C100.894 28.4847 99.7416 27.0805 97.9706 27.0805C96.1996 27.0805 95.0468 28.4847 95.0468 30.9264C95.0468 33.3785 96.1996 34.7828 97.9706 34.7828ZM119.453 25.4143L116.435 36.4385H114.077L111.761 28.1808H111.709L109.414 36.4385H107.077L104.049 25.4143H106.312L108.324 34.0911H108.366L110.661 25.4143H112.841L115.146 34.0911H115.199L117.211 25.4143H119.453Z" fill="white"/>
<path d="M61.0102 36.4385H54.9427V21.3169H60.9787C63.6614 21.3169 65.4219 22.8049 65.4219 25.0894C65.4219 26.6927 64.2378 28.1284 62.7288 28.3799V28.4637C64.7827 28.6943 66.166 30.1509 66.166 32.1629C66.166 34.8247 64.2273 36.4385 61.0102 36.4385ZM57.29 23.2346V27.7512H59.9203C61.9533 27.7512 63.0746 26.9128 63.0746 25.4143C63.0746 24.0101 62.1105 23.2346 60.4128 23.2346H57.29ZM57.29 34.5208H60.5281C62.6449 34.5208 63.7662 33.651 63.7662 32.0162C63.7662 30.3815 62.6135 29.5431 60.3919 29.5431H57.29V34.5208ZM72.6526 36.6481C69.4984 36.6481 67.4235 34.4789 67.4235 30.9264C67.4235 27.3844 69.5089 25.2152 72.6526 25.2152C75.7964 25.2152 77.8818 27.3844 77.8818 30.9264C77.8818 34.4789 75.8069 36.6481 72.6526 36.6481ZM72.6526 34.7828C74.4341 34.7828 75.5764 33.3785 75.5764 30.9264C75.5764 28.4847 74.4236 27.0805 72.6526 27.0805C70.8816 27.0805 69.7289 28.4847 69.7289 30.9264C69.7289 33.3785 70.8816 34.7828 72.6526 34.7828ZM79.6318 36.4385V25.4143H81.7906V27.2901H81.843C82.2097 26.0011 83.1948 25.2361 84.4942 25.2361C84.8191 25.2361 85.102 25.2885 85.2697 25.32V27.4263C85.0915 27.3529 84.6933 27.3005 84.2532 27.3005C82.7966 27.3005 81.8954 28.2751 81.8954 29.8365V36.4385H79.6318ZM86.6739 36.4385V25.4143H88.8326V27.2901H88.885C89.2518 26.0011 90.2369 25.2361 91.5363 25.2361C91.8611 25.2361 92.1441 25.2885 92.3118 25.32V27.4263C92.1336 27.3529 91.7354 27.3005 91.2953 27.3005C89.8386 27.3005 88.9374 28.2751 88.9374 29.8365V36.4385H86.6739ZM97.9706 36.6481C94.8163 36.6481 92.7414 34.4789 92.7414 30.9264C92.7414 27.3844 94.8268 25.2152 97.9706 25.2152C101.114 25.2152 103.2 27.3844 103.2 30.9264C103.2 34.4789 101.125 36.6481 97.9706 36.6481ZM97.9706 34.7828C99.752 34.7828 100.894 33.3785 100.894 30.9264C100.894 28.4847 99.7416 27.0805 97.9706 27.0805C96.1996 27.0805 95.0468 28.4847 95.0468 30.9264C95.0468 33.3785 96.1996 34.7828 97.9706 34.7828ZM119.453 25.4143L116.435 36.4385H114.077L111.761 28.1808H111.709L109.414 36.4385H107.077L104.049 25.4143H106.312L108.324 34.0911H108.366L110.661 25.4143H112.841L115.146 34.0911H115.199L117.211 25.4143H119.453Z" fill="url(#paint5_linear_337_458)" fill-opacity="0.62"/>
</g>
<defs>
<filter id="filter1_di_337_458" x="52.6311" y="19.0053" width="69.1336" height="19.9544" filterUnits="userSpaceOnUse" color-interpolation-filters="sRGB">
<feFlood flood-opacity="0" result="BackgroundImageFix"/>
<feColorMatrix in="SourceAlpha" type="matrix" values="0 0 0 0 0 0 0 0 0 0 0 0 0 0 0 0 0 0 127 0" result="hardAlpha"/>
<feOffset/>
<feGaussianBlur stdDeviation="1.15579"/>
<feComposite in2="hardAlpha" operator="out"/>
<feColorMatrix type="matrix" values="0 0 0 0 0.996078 0 0 0 0 0.4 0 0 0 0 0.2 0 0 0 0.27 0"/>
<feBlend mode="plus-lighter" in2="BackgroundImageFix" result="effect1_dropShadow_337_458"/>
<feBlend mode="normal" in="SourceGraphic" in2="effect1_dropShadow_337_458" result="shape"/>
<feColorMatrix in="SourceAlpha" type="matrix" values="0 0 0 0 0 0 0 0 0 0 0 0 0 0 0 0 0 0 127 0" result="hardAlpha"/>
<feOffset dy="0.491827"/>
<feGaussianBlur stdDeviation="0.491827"/>
<feComposite in2="hardAlpha" operator="arithmetic" k2="-1" k3="1"/>
<feColorMatrix type="matrix" values="0 0 0 0 1 0 0 0 0 1 0 0 0 0 1 0 0 0 0.4 0"/>
<feBlend mode="normal" in2="shape" result="effect2_innerShadow_337_458"/>
</filter>
<linearGradient id="paint0_linear_337_458" x1="71.525" y1="33.9622" x2="71.525" y2="48.877" gradientUnits="userSpaceOnUse">
<stop stop-color="#FE6633" stop-opacity="0"/>
<stop offset="1" stop-color="#FE6633"/>
</linearGradient>
<linearGradient id="paint1_linear_337_458" x1="71.525" y1="28.4387" x2="71.525" y2="48.877" gradientUnits="userSpaceOnUse">
<stop stop-color="white" stop-opacity="0"/>
<stop offset="1" stop-color="white"/>
</linearGradient>
<linearGradient id="paint2_linear_337_458" x1="71.525" y1="48.877" x2="71.525" y2="8" gradientUnits="userSpaceOnUse">
<stop stop-color="white" stop-opacity="0"/>
<stop offset="1" stop-color="white"/>
</linearGradient>
<linearGradient id="paint3_linear_337_458" x1="71.525" y1="48.877" x2="71.525" y2="8" gradientUnits="userSpaceOnUse">
<stop stop-color="white" stop-opacity="0"/>
<stop offset="1" stop-color="white"/>
</linearGradient>
<linearGradient id="paint4_linear_337_458" x1="32.8169" y1="20.4933" x2="39.0168" y2="21.7423" gradientUnits="userSpaceOnUse">
<stop stop-color="#FE6633" stop-opacity="0"/>
<stop offset="1" stop-color="#FE6633"/>
</linearGradient>
<linearGradient id="paint5_linear_337_458" x1="77.6454" y1="15.5276" x2="101.998" y2="32.3844" gradientUnits="userSpaceOnUse">
<stop stop-color="#FE6633" stop-opacity="0"/>
<stop offset="1" stop-color="#FE6633"/>
</linearGradient>
</defs>
</svg>
