<svg width="147" height="57" viewBox="0 0 147 57" fill="none" xmlns="http://www.w3.org/2000/svg">
<mask id="path-1-inside-1_337_412" fill="white">
<path d="M0.000366211 28.4685C0.000366211 12.7624 12.7327 0.0300293 28.4389 0.0300293H118.55C134.256 0.0300293 146.988 12.7624 146.988 28.4685C146.988 44.1747 134.256 56.907 118.55 56.907H28.4389C12.7327 56.907 0.000366211 44.1747 0.000366211 28.4685Z"/>
</mask>
<path d="M0.000366211 28.4685C0.000366211 12.7624 12.7327 0.0300293 28.4389 0.0300293H118.55C134.256 0.0300293 146.988 12.7624 146.988 28.4685C146.988 44.1747 134.256 56.907 118.55 56.907H28.4389C12.7327 56.907 0.000366211 44.1747 0.000366211 28.4685Z" fill="#0F0E20" fill-opacity="0.6"/>
<path d="M28.4389 0.0300293V1.03003H118.55V0.0300293V-0.969971H28.4389V0.0300293ZM118.55 56.907V55.907H28.4389V56.907V57.907H118.55V56.907ZM28.4389 56.907V55.907C13.285 55.907 1.00037 43.6224 1.00037 28.4685H0.000366211H-0.999634C-0.999634 44.727 12.1804 57.907 28.4389 57.907V56.907ZM146.988 28.4685H145.988C145.988 43.6224 133.704 55.907 118.55 55.907V56.907V57.907C134.808 57.907 147.988 44.727 147.988 28.4685H146.988ZM118.55 0.0300293V1.03003C133.704 1.03003 145.988 13.3147 145.988 28.4685H146.988H147.988C147.988 12.2101 134.808 -0.969971 118.55 -0.969971V0.0300293ZM28.4389 0.0300293V-0.969971C12.1804 -0.969971 -0.999634 12.2101 -0.999634 28.4685H0.000366211H1.00037C1.00037 13.3147 13.285 1.03003 28.4389 1.03003V0.0300293Z" fill="white" fill-opacity="0.08" mask="url(#path-1-inside-1_337_412)"/>
<rect x="8.00037" y="8.03003" width="130.988" height="40.877" rx="20.4385" fill="#31E585" fill-opacity="0.09"/>
<rect x="8.00037" y="8.03003" width="130.988" height="40.877" rx="20.4385" fill="url(#paint0_linear_337_412)" fill-opacity="0.14"/>
<rect x="8.00037" y="8.03003" width="130.988" height="40.877" rx="20.4385" fill="url(#paint1_linear_337_412)" fill-opacity="0.46" style="mix-blend-mode:overlay"/>
<rect x="8.24103" y="8.27069" width="130.507" height="40.3957" rx="20.1978" stroke="url(#paint2_linear_337_412)" stroke-opacity="0.02" stroke-width="0.481325"/>
<rect x="8.24103" y="8.27069" width="130.507" height="40.3957" rx="20.1978" stroke="url(#paint3_linear_337_412)" stroke-opacity="0.29" stroke-width="0.481325" style="mix-blend-mode:overlay"/>
<path d="M39.1167 32.6223H25.8243M25.8243 32.6223L29.1474 29.2992M25.8243 32.6223L29.1474 35.9454M25.8243 24.3146H39.1167M39.1167 24.3146L35.7936 20.9915M39.1167 24.3146L35.7936 27.6377" stroke="white" stroke-width="1.35945" stroke-linecap="round" stroke-linejoin="round"/>
<path d="M39.1167 32.6223H25.8243M25.8243 32.6223L29.1474 29.2992M25.8243 32.6223L29.1474 35.9454M25.8243 24.3146H39.1167M39.1167 24.3146L35.7936 20.9915M39.1167 24.3146L35.7936 27.6377" stroke="url(#paint4_linear_337_412)" stroke-opacity="0.62" stroke-width="1.35945" stroke-linecap="round" stroke-linejoin="round"/>
<g filter="url(#filter1_di_337_412)">
<path d="M57.2632 36.72C53.0191 36.72 50.3364 33.7229 50.3364 28.9025C50.3364 24.1134 53.04 21.0954 57.2632 21.0954C60.6899 21.0954 63.2783 23.2017 63.6765 26.356H61.3501C60.9309 24.4173 59.3171 23.1493 57.2632 23.1493C54.5176 23.1493 52.7361 25.4024 52.7361 28.9025C52.7361 32.434 54.4966 34.6661 57.2737 34.6661C59.38 34.6661 60.8785 33.5867 61.3501 31.7633H63.687C63.1106 34.8861 60.7423 36.72 57.2632 36.72ZM70.268 36.6781C67.1137 36.6781 65.0388 34.5089 65.0388 30.9564C65.0388 27.4144 67.1242 25.2452 70.268 25.2452C73.4117 25.2452 75.4971 27.4144 75.4971 30.9564C75.4971 34.5089 73.4222 36.6781 70.268 36.6781ZM70.268 34.8128C72.0494 34.8128 73.1917 33.4086 73.1917 30.9564C73.1917 28.5147 72.039 27.1105 70.268 27.1105C68.497 27.1105 67.3442 28.5147 67.3442 30.9564C67.3442 33.4086 68.497 34.8128 70.268 34.8128ZM77.2472 36.4685V25.4443H79.4059V27.2887H79.4583C80.0556 26.0311 81.2293 25.2557 82.9269 25.2557C85.3581 25.2557 86.7519 26.8066 86.7519 29.3321V36.4685H84.4779V29.7722C84.4779 28.1165 83.7024 27.2048 82.1305 27.2048C80.5376 27.2048 79.5107 28.3366 79.5107 30.0447V36.4685H77.2472ZM98.3524 25.4443L94.4017 36.4685H91.9705L87.9989 25.4443H90.4091L93.1757 34.2574H93.2176L95.9841 25.4443H98.3524ZM103.948 27.0686C102.366 27.0686 101.255 28.2737 101.14 29.9399H106.652C106.6 28.2528 105.531 27.0686 103.948 27.0686ZM106.642 33.2304H108.79C108.475 35.2424 106.568 36.6781 104.043 36.6781C100.805 36.6781 98.8449 34.4879 98.8449 31.0088C98.8449 27.5506 100.836 25.2452 103.948 25.2452C107.008 25.2452 108.916 27.4039 108.916 30.7468V31.5223H101.129V31.6585C101.129 33.5762 102.282 34.8442 104.095 34.8442C105.384 34.8442 106.338 34.1945 106.642 33.2304ZM110.676 36.4685V25.4443H112.835V27.3201H112.887C113.254 26.0311 114.239 25.2662 115.538 25.2662C115.863 25.2662 116.146 25.3186 116.314 25.35V27.4563C116.136 27.383 115.738 27.3306 115.297 27.3306C113.841 27.3306 112.94 28.3051 112.94 29.8666V36.4685H110.676ZM118.378 22.835H120.652V25.4443H122.748V27.2363H120.652V33.3142C120.652 34.2679 121.071 34.6975 121.994 34.6975C122.224 34.6975 122.591 34.6765 122.738 34.6451V36.4371C122.486 36.4999 121.983 36.5419 121.48 36.5419C119.248 36.5419 118.378 35.693 118.378 33.5657V27.2363H116.775V25.4443H118.378V22.835Z" fill="white"/>
<path d="M57.2632 36.72C53.0191 36.72 50.3364 33.7229 50.3364 28.9025C50.3364 24.1134 53.04 21.0954 57.2632 21.0954C60.6899 21.0954 63.2783 23.2017 63.6765 26.356H61.3501C60.9309 24.4173 59.3171 23.1493 57.2632 23.1493C54.5176 23.1493 52.7361 25.4024 52.7361 28.9025C52.7361 32.434 54.4966 34.6661 57.2737 34.6661C59.38 34.6661 60.8785 33.5867 61.3501 31.7633H63.687C63.1106 34.8861 60.7423 36.72 57.2632 36.72ZM70.268 36.6781C67.1137 36.6781 65.0388 34.5089 65.0388 30.9564C65.0388 27.4144 67.1242 25.2452 70.268 25.2452C73.4117 25.2452 75.4971 27.4144 75.4971 30.9564C75.4971 34.5089 73.4222 36.6781 70.268 36.6781ZM70.268 34.8128C72.0494 34.8128 73.1917 33.4086 73.1917 30.9564C73.1917 28.5147 72.039 27.1105 70.268 27.1105C68.497 27.1105 67.3442 28.5147 67.3442 30.9564C67.3442 33.4086 68.497 34.8128 70.268 34.8128ZM77.2472 36.4685V25.4443H79.4059V27.2887H79.4583C80.0556 26.0311 81.2293 25.2557 82.9269 25.2557C85.3581 25.2557 86.7519 26.8066 86.7519 29.3321V36.4685H84.4779V29.7722C84.4779 28.1165 83.7024 27.2048 82.1305 27.2048C80.5376 27.2048 79.5107 28.3366 79.5107 30.0447V36.4685H77.2472ZM98.3524 25.4443L94.4017 36.4685H91.9705L87.9989 25.4443H90.4091L93.1757 34.2574H93.2176L95.9841 25.4443H98.3524ZM103.948 27.0686C102.366 27.0686 101.255 28.2737 101.14 29.9399H106.652C106.6 28.2528 105.531 27.0686 103.948 27.0686ZM106.642 33.2304H108.79C108.475 35.2424 106.568 36.6781 104.043 36.6781C100.805 36.6781 98.8449 34.4879 98.8449 31.0088C98.8449 27.5506 100.836 25.2452 103.948 25.2452C107.008 25.2452 108.916 27.4039 108.916 30.7468V31.5223H101.129V31.6585C101.129 33.5762 102.282 34.8442 104.095 34.8442C105.384 34.8442 106.338 34.1945 106.642 33.2304ZM110.676 36.4685V25.4443H112.835V27.3201H112.887C113.254 26.0311 114.239 25.2662 115.538 25.2662C115.863 25.2662 116.146 25.3186 116.314 25.35V27.4563C116.136 27.383 115.738 27.3306 115.297 27.3306C113.841 27.3306 112.94 28.3051 112.94 29.8666V36.4685H110.676ZM118.378 22.835H120.652V25.4443H122.748V27.2363H120.652V33.3142C120.652 34.2679 121.071 34.6975 121.994 34.6975C122.224 34.6975 122.591 34.6765 122.738 34.6451V36.4371C122.486 36.4999 121.983 36.5419 121.48 36.5419C119.248 36.5419 118.378 35.693 118.378 33.5657V27.2363H116.775V25.4443H118.378V22.835Z" fill="url(#paint5_linear_337_412)" fill-opacity="0.62"/>
</g>
<defs>
<filter id="filter1_di_337_412" x="48.0248" y="18.7839" width="77.035" height="20.2477" filterUnits="userSpaceOnUse" color-interpolation-filters="sRGB">
<feFlood flood-opacity="0" result="BackgroundImageFix"/>
<feColorMatrix in="SourceAlpha" type="matrix" values="0 0 0 0 0 0 0 0 0 0 0 0 0 0 0 0 0 0 127 0" result="hardAlpha"/>
<feOffset/>
<feGaussianBlur stdDeviation="1.15579"/>
<feComposite in2="hardAlpha" operator="out"/>
<feColorMatrix type="matrix" values="0 0 0 0 0.192157 0 0 0 0 0.898039 0 0 0 0 0.521569 0 0 0 0.27 0"/>
<feBlend mode="plus-lighter" in2="BackgroundImageFix" result="effect1_dropShadow_337_412"/>
<feBlend mode="normal" in="SourceGraphic" in2="effect1_dropShadow_337_412" result="shape"/>
<feColorMatrix in="SourceAlpha" type="matrix" values="0 0 0 0 0 0 0 0 0 0 0 0 0 0 0 0 0 0 127 0" result="hardAlpha"/>
<feOffset dy="0.491827"/>
<feGaussianBlur stdDeviation="0.491827"/>
<feComposite in2="hardAlpha" operator="arithmetic" k2="-1" k3="1"/>
<feColorMatrix type="matrix" values="0 0 0 0 1 0 0 0 0 1 0 0 0 0 1 0 0 0 0.4 0"/>
<feBlend mode="normal" in2="shape" result="effect2_innerShadow_337_412"/>
</filter>
<linearGradient id="paint0_linear_337_412" x1="73.4943" y1="33.9922" x2="73.4943" y2="48.907" gradientUnits="userSpaceOnUse">
<stop stop-color="#5CF3A3" stop-opacity="0"/>
<stop offset="1" stop-color="#5CF3A3"/>
</linearGradient>
<linearGradient id="paint1_linear_337_412" x1="73.4943" y1="28.4688" x2="73.4943" y2="48.907" gradientUnits="userSpaceOnUse">
<stop stop-color="white" stop-opacity="0"/>
<stop offset="1" stop-color="white"/>
</linearGradient>
<linearGradient id="paint2_linear_337_412" x1="73.4943" y1="48.907" x2="73.4943" y2="8.03003" gradientUnits="userSpaceOnUse">
<stop stop-color="white" stop-opacity="0"/>
<stop offset="1" stop-color="white"/>
</linearGradient>
<linearGradient id="paint3_linear_337_412" x1="73.4943" y1="48.907" x2="73.4943" y2="8.03003" gradientUnits="userSpaceOnUse">
<stop stop-color="white" stop-opacity="0"/>
<stop offset="1" stop-color="white"/>
</linearGradient>
<linearGradient id="paint4_linear_337_412" x1="30.6049" y1="21.0427" x2="37.3657" y2="22.657" gradientUnits="userSpaceOnUse">
<stop stop-color="#31E585" stop-opacity="0"/>
<stop offset="1" stop-color="#31E585"/>
</linearGradient>
<linearGradient id="paint5_linear_337_412" x1="76.4612" y1="15.5576" x2="101.656" y2="35.0799" gradientUnits="userSpaceOnUse">
<stop stop-color="#31E585" stop-opacity="0"/>
<stop offset="1" stop-color="#31E585"/>
</linearGradient>
</defs>
</svg>
