<svg width="500" height="311" viewBox="0 0 500 311" fill="none" xmlns="http://www.w3.org/2000/svg">
<g clip-path="url(#clip0_4005_1636)">
<rect y="0.228516" width="500" height="310" rx="16" fill="#121323"/>
<path d="M501.5 45.6016C382.5 145.102 85.0002 157.676 -4.9998 150.102L-33.8867 241H491.613L501.5 45.6016Z" fill="url(#paint0_linear_4005_1636)" fill-opacity="0.1"/>
<mask id="mask0_4005_1636" style="mask-type:alpha" maskUnits="userSpaceOnUse" x="-24" y="45" width="526" height="160">
<path d="M501.5 45.6016C382.5 145.102 85 157.676 -5 150.102L-24 204.102H501.5V45.6016Z" fill="url(#paint1_linear_4005_1636)"/>
</mask>
<g mask="url(#mask0_4005_1636)">
<g opacity="0.12">
<rect x="507.81" y="291.08" width="27.5" height="248.159" transform="rotate(-180 507.81 291.08)" fill="url(#paint2_radial_4005_1636)"/>
<rect x="507.663" y="290.933" width="27.2061" height="247.865" transform="rotate(-180 507.663 290.933)" stroke="white" stroke-opacity="0.04" stroke-width="0.293891"/>
<rect x="507.663" y="290.933" width="27.2061" height="247.865" transform="rotate(-180 507.663 290.933)" stroke="white" stroke-opacity="0.1" stroke-width="0.293891" style="mix-blend-mode:overlay"/>
<rect x="474.31" y="291.08" width="27.5" height="248.159" transform="rotate(-180 474.31 291.08)" fill="url(#paint3_radial_4005_1636)"/>
<rect x="474.163" y="290.933" width="27.2061" height="247.865" transform="rotate(-180 474.163 290.933)" stroke="white" stroke-opacity="0.04" stroke-width="0.293891"/>
<rect x="474.163" y="290.933" width="27.2061" height="247.865" transform="rotate(-180 474.163 290.933)" stroke="white" stroke-opacity="0.1" stroke-width="0.293891" style="mix-blend-mode:overlay"/>
<rect x="440.81" y="291.08" width="27.5" height="248.159" transform="rotate(-180 440.81 291.08)" fill="url(#paint4_radial_4005_1636)"/>
<rect x="440.663" y="290.933" width="27.2061" height="247.865" transform="rotate(-180 440.663 290.933)" stroke="white" stroke-opacity="0.04" stroke-width="0.293891"/>
<rect x="440.663" y="290.933" width="27.2061" height="247.865" transform="rotate(-180 440.663 290.933)" stroke="white" stroke-opacity="0.1" stroke-width="0.293891" style="mix-blend-mode:overlay"/>
<rect x="407.31" y="291.08" width="27.5" height="248.159" transform="rotate(-180 407.31 291.08)" fill="url(#paint5_radial_4005_1636)"/>
<rect x="407.163" y="290.933" width="27.2061" height="247.865" transform="rotate(-180 407.163 290.933)" stroke="white" stroke-opacity="0.04" stroke-width="0.293891"/>
<rect x="407.163" y="290.933" width="27.2061" height="247.865" transform="rotate(-180 407.163 290.933)" stroke="white" stroke-opacity="0.1" stroke-width="0.293891" style="mix-blend-mode:overlay"/>
<rect x="373.81" y="291.08" width="27.5" height="248.159" transform="rotate(-180 373.81 291.08)" fill="url(#paint6_radial_4005_1636)"/>
<rect x="373.663" y="290.933" width="27.2061" height="247.865" transform="rotate(-180 373.663 290.933)" stroke="white" stroke-opacity="0.04" stroke-width="0.293891"/>
<rect x="373.663" y="290.933" width="27.2061" height="247.865" transform="rotate(-180 373.663 290.933)" stroke="white" stroke-opacity="0.1" stroke-width="0.293891" style="mix-blend-mode:overlay"/>
<rect x="340.31" y="291.08" width="27.5" height="248.159" transform="rotate(-180 340.31 291.08)" fill="url(#paint7_radial_4005_1636)"/>
<rect x="340.163" y="290.933" width="27.2061" height="247.865" transform="rotate(-180 340.163 290.933)" stroke="white" stroke-opacity="0.04" stroke-width="0.293891"/>
<rect x="340.163" y="290.933" width="27.2061" height="247.865" transform="rotate(-180 340.163 290.933)" stroke="white" stroke-opacity="0.1" stroke-width="0.293891" style="mix-blend-mode:overlay"/>
<rect x="306.81" y="291.08" width="27.5" height="248.159" transform="rotate(-180 306.81 291.08)" fill="url(#paint8_radial_4005_1636)"/>
<rect x="306.663" y="290.933" width="27.2061" height="247.865" transform="rotate(-180 306.663 290.933)" stroke="white" stroke-opacity="0.04" stroke-width="0.293891"/>
<rect x="306.663" y="290.933" width="27.2061" height="247.865" transform="rotate(-180 306.663 290.933)" stroke="white" stroke-opacity="0.1" stroke-width="0.293891" style="mix-blend-mode:overlay"/>
<rect x="273.31" y="291.08" width="27.5" height="248.159" transform="rotate(-180 273.31 291.08)" fill="url(#paint9_radial_4005_1636)"/>
<rect x="273.163" y="290.933" width="27.2061" height="247.865" transform="rotate(-180 273.163 290.933)" stroke="white" stroke-opacity="0.04" stroke-width="0.293891"/>
<rect x="273.163" y="290.933" width="27.2061" height="247.865" transform="rotate(-180 273.163 290.933)" stroke="white" stroke-opacity="0.1" stroke-width="0.293891" style="mix-blend-mode:overlay"/>
<rect x="239.81" y="291.08" width="27.5" height="248.159" transform="rotate(-180 239.81 291.08)" fill="url(#paint10_radial_4005_1636)"/>
<rect x="239.663" y="290.933" width="27.2061" height="247.865" transform="rotate(-180 239.663 290.933)" stroke="white" stroke-opacity="0.04" stroke-width="0.293891"/>
<rect x="239.663" y="290.933" width="27.2061" height="247.865" transform="rotate(-180 239.663 290.933)" stroke="white" stroke-opacity="0.1" stroke-width="0.293891" style="mix-blend-mode:overlay"/>
<rect x="206.31" y="291.08" width="27.5" height="248.159" transform="rotate(-180 206.31 291.08)" fill="url(#paint11_radial_4005_1636)"/>
<rect x="206.163" y="290.933" width="27.2061" height="247.865" transform="rotate(-180 206.163 290.933)" stroke="white" stroke-opacity="0.04" stroke-width="0.293891"/>
<rect x="206.163" y="290.933" width="27.2061" height="247.865" transform="rotate(-180 206.163 290.933)" stroke="white" stroke-opacity="0.1" stroke-width="0.293891" style="mix-blend-mode:overlay"/>
<rect x="172.81" y="291.08" width="27.5" height="248.159" transform="rotate(-180 172.81 291.08)" fill="url(#paint12_radial_4005_1636)"/>
<rect x="172.663" y="290.933" width="27.2061" height="247.865" transform="rotate(-180 172.663 290.933)" stroke="white" stroke-opacity="0.04" stroke-width="0.293891"/>
<rect x="172.663" y="290.933" width="27.2061" height="247.865" transform="rotate(-180 172.663 290.933)" stroke="white" stroke-opacity="0.1" stroke-width="0.293891" style="mix-blend-mode:overlay"/>
<rect x="139.31" y="291.08" width="27.5" height="248.159" transform="rotate(-180 139.31 291.08)" fill="url(#paint13_radial_4005_1636)"/>
<rect x="139.163" y="290.933" width="27.2061" height="247.865" transform="rotate(-180 139.163 290.933)" stroke="white" stroke-opacity="0.04" stroke-width="0.293891"/>
<rect x="139.163" y="290.933" width="27.2061" height="247.865" transform="rotate(-180 139.163 290.933)" stroke="white" stroke-opacity="0.1" stroke-width="0.293891" style="mix-blend-mode:overlay"/>
<rect x="105.81" y="291.08" width="27.5" height="248.159" transform="rotate(-180 105.81 291.08)" fill="url(#paint14_radial_4005_1636)"/>
<rect x="105.663" y="290.933" width="27.2061" height="247.865" transform="rotate(-180 105.663 290.933)" stroke="white" stroke-opacity="0.04" stroke-width="0.293891"/>
<rect x="105.663" y="290.933" width="27.2061" height="247.865" transform="rotate(-180 105.663 290.933)" stroke="white" stroke-opacity="0.1" stroke-width="0.293891" style="mix-blend-mode:overlay"/>
<rect x="72.3096" y="291.08" width="27.5" height="248.159" transform="rotate(-180 72.3096 291.08)" fill="url(#paint15_radial_4005_1636)"/>
<rect x="72.1626" y="290.933" width="27.2061" height="247.865" transform="rotate(-180 72.1626 290.933)" stroke="white" stroke-opacity="0.04" stroke-width="0.293891"/>
<rect x="72.1626" y="290.933" width="27.2061" height="247.865" transform="rotate(-180 72.1626 290.933)" stroke="white" stroke-opacity="0.1" stroke-width="0.293891" style="mix-blend-mode:overlay"/>
<rect x="38.8096" y="291.08" width="27.5" height="248.159" transform="rotate(-180 38.8096 291.08)" fill="url(#paint16_radial_4005_1636)"/>
<rect x="38.6626" y="290.933" width="27.2061" height="247.865" transform="rotate(-180 38.6626 290.933)" stroke="white" stroke-opacity="0.04" stroke-width="0.293891"/>
<rect x="38.6626" y="290.933" width="27.2061" height="247.865" transform="rotate(-180 38.6626 290.933)" stroke="white" stroke-opacity="0.1" stroke-width="0.293891" style="mix-blend-mode:overlay"/>
<rect x="5.30957" y="291.08" width="27.5" height="248.159" transform="rotate(-180 5.30957 291.08)" fill="url(#paint17_radial_4005_1636)"/>
<rect x="5.16262" y="290.933" width="27.2061" height="247.865" transform="rotate(-180 5.16262 290.933)" stroke="white" stroke-opacity="0.04" stroke-width="0.293891"/>
<rect x="5.16262" y="290.933" width="27.2061" height="247.865" transform="rotate(-180 5.16262 290.933)" stroke="white" stroke-opacity="0.1" stroke-width="0.293891" style="mix-blend-mode:overlay"/>
</g>
</g>
<path d="M-5 150.102C85 157.676 382.5 145.102 501.5 45.6016" stroke="#FEAA01" stroke-width="2"/>
<mask id="mask1_4005_1636" style="mask-type:alpha" maskUnits="userSpaceOnUse" x="-6" y="44" width="509" height="109">
<path d="M-5 150.102C85 157.676 382.5 145.102 501.5 45.6016" stroke="#B84794" stroke-width="2"/>
</mask>
<g mask="url(#mask1_4005_1636)">
<g opacity="0.58">
<g style="mix-blend-mode:soft-light" opacity="0.68" filter="url(#filter0_f_4005_1636)">
<ellipse cx="216.111" cy="139.415" rx="81.3892" ry="81.3755" fill="white"/>
<path d="M216.111 58.0867C261.035 58.0869 297.453 94.4991 297.453 139.416C297.453 184.332 261.035 220.744 216.111 220.744C171.187 220.744 134.769 184.332 134.769 139.416C134.769 94.499 171.187 58.0867 216.111 58.0867Z" stroke="#FEAA01" stroke-width="0.0928642"/>
</g>
<g style="mix-blend-mode:soft-light" opacity="0.68" filter="url(#filter1_f_4005_1636)">
<ellipse cx="216.111" cy="139.415" rx="81.3892" ry="81.3755" fill="white"/>
<path d="M216.111 58.0867C261.035 58.0869 297.453 94.4991 297.453 139.416C297.453 184.332 261.035 220.744 216.111 220.744C171.187 220.744 134.769 184.332 134.769 139.416C134.769 94.499 171.187 58.0867 216.111 58.0867Z" stroke="#FEAA01" stroke-width="0.0928642"/>
</g>
</g>
</g>
<path d="M25.5782 260.077H26.3558V264.667C26.3558 265.077 26.2806 265.425 26.13 265.711C25.9795 265.997 25.7674 266.215 25.4935 266.363C25.2197 266.512 24.8967 266.586 24.5247 266.586C24.1735 266.586 23.861 266.522 23.5871 266.395C23.3133 266.265 23.098 266.081 22.9412 265.843C22.7845 265.604 22.7061 265.321 22.7061 264.993H23.4711C23.4711 265.175 23.5161 265.334 23.606 265.47C23.6979 265.603 23.8234 265.708 23.9822 265.783C24.1411 265.858 24.3219 265.896 24.5247 265.896C24.7483 265.896 24.9386 265.849 25.0953 265.755C25.2521 265.661 25.3713 265.523 25.4528 265.341C25.5364 265.157 25.5782 264.932 25.5782 264.667V260.077ZM29.2311 266.611C28.9259 266.611 28.6489 266.553 28.4002 266.438C28.1514 266.321 27.9539 266.153 27.8075 265.934C27.6612 265.712 27.5881 265.445 27.5881 265.131C27.5881 264.855 27.6424 264.631 27.7511 264.46C27.8598 264.286 28.0051 264.151 28.1869 264.052C28.3688 263.954 28.5695 263.881 28.789 263.833C29.0105 263.783 29.2332 263.743 29.4568 263.714C29.7495 263.676 29.9867 263.648 30.1686 263.629C30.3525 263.608 30.4863 263.574 30.5699 263.526C30.6556 263.478 30.6985 263.394 30.6985 263.275V263.25C30.6985 262.94 30.6138 262.7 30.4445 262.528C30.2773 262.357 30.0233 262.271 29.6826 262.271C29.3293 262.271 29.0523 262.349 28.8517 262.503C28.651 262.658 28.5099 262.823 28.4284 262.999L27.726 262.748C27.8514 262.455 28.0187 262.227 28.2277 262.064C28.4388 261.899 28.6688 261.784 28.9175 261.72C29.1684 261.653 29.415 261.619 29.6575 261.619C29.8122 261.619 29.9899 261.638 30.1905 261.676C30.3933 261.711 30.5887 261.785 30.7769 261.898C30.9671 262.011 31.1249 262.181 31.2503 262.409C31.3758 262.637 31.4385 262.942 31.4385 263.325V266.498H30.6985V265.846H30.6609C30.6107 265.95 30.5271 266.062 30.41 266.181C30.293 266.301 30.1372 266.402 29.9428 266.486C29.7484 266.569 29.5112 266.611 29.2311 266.611ZM29.3439 265.946C29.6366 265.946 29.8833 265.889 30.0839 265.774C30.2867 265.659 30.4393 265.51 30.5417 265.329C30.6462 265.147 30.6985 264.955 30.6985 264.755V264.077C30.6671 264.115 30.5982 264.15 30.4915 264.181C30.387 264.21 30.2658 264.236 30.1278 264.259C29.992 264.28 29.8592 264.299 29.7296 264.316C29.6021 264.33 29.4986 264.343 29.4192 264.353C29.2269 264.378 29.0471 264.419 28.8799 264.476C28.7148 264.53 28.581 264.613 28.4785 264.723C28.3782 264.832 28.328 264.98 28.328 265.169C28.328 265.426 28.4232 265.62 28.6134 265.752C28.8057 265.881 29.0492 265.946 29.3439 265.946ZM33.5291 263.601V266.498H32.7891V261.682H33.504V262.434H33.5667C33.6796 262.19 33.851 261.993 34.0809 261.845C34.3109 261.694 34.6077 261.619 34.9714 261.619C35.2975 261.619 35.5828 261.686 35.8274 261.82C36.072 261.952 36.2622 262.152 36.3981 262.422C36.5339 262.689 36.6019 263.028 36.6019 263.438V266.498H35.8619V263.488C35.8619 263.11 35.7636 262.815 35.5672 262.604C35.3707 262.391 35.101 262.284 34.7582 262.284C34.522 262.284 34.3109 262.335 34.1248 262.438C33.9409 262.54 33.7956 262.689 33.689 262.886C33.5824 263.082 33.5291 263.321 33.5291 263.601Z" fill="#565764"/>
<path d="M94.3955 266.498V260.077H98.2459V260.766H95.1731V262.936H97.9574V263.626H95.1731V266.498H94.3955ZM101.143 266.598C100.679 266.598 100.279 266.496 99.9422 266.291C99.6077 266.084 99.3496 265.796 99.1677 265.426C98.9879 265.054 98.8981 264.621 98.8981 264.128C98.8981 263.634 98.9879 263.199 99.1677 262.823C99.3496 262.445 99.6025 262.15 99.9265 261.939C100.253 261.726 100.633 261.619 101.068 261.619C101.319 261.619 101.566 261.661 101.811 261.745C102.056 261.828 102.278 261.964 102.479 262.152C102.679 262.338 102.839 262.585 102.959 262.892C103.078 263.199 103.137 263.578 103.137 264.027V264.341H99.4248V263.701H102.385C102.385 263.429 102.33 263.187 102.222 262.974C102.115 262.761 101.962 262.592 101.764 262.469C101.567 262.346 101.335 262.284 101.068 262.284C100.773 262.284 100.518 262.357 100.303 262.503C100.09 262.648 99.9255 262.836 99.8105 263.068C99.6955 263.3 99.638 263.549 99.638 263.814V264.24C99.638 264.604 99.7007 264.913 99.8262 265.165C99.9537 265.416 100.13 265.608 100.356 265.739C100.582 265.869 100.844 265.934 101.143 265.934C101.337 265.934 101.513 265.906 101.67 265.852C101.829 265.796 101.966 265.712 102.081 265.601C102.196 265.488 102.284 265.348 102.347 265.181L103.062 265.382C102.987 265.624 102.86 265.837 102.683 266.021C102.505 266.203 102.285 266.345 102.024 266.448C101.763 266.548 101.469 266.598 101.143 266.598ZM104.363 266.498V260.077H105.103V262.447H105.166C105.22 262.363 105.296 262.257 105.392 262.127C105.49 261.995 105.63 261.878 105.812 261.776C105.996 261.671 106.245 261.619 106.558 261.619C106.964 261.619 107.321 261.721 107.63 261.923C107.94 262.126 108.181 262.414 108.355 262.786C108.528 263.158 108.615 263.597 108.615 264.103C108.615 264.613 108.528 265.055 108.355 265.429C108.181 265.801 107.941 266.089 107.634 266.294C107.326 266.497 106.972 266.598 106.571 266.598C106.261 266.598 106.014 266.547 105.828 266.445C105.641 266.34 105.498 266.222 105.398 266.09C105.298 265.957 105.22 265.846 105.166 265.758H105.078V266.498H104.363ZM105.091 264.09C105.091 264.454 105.144 264.775 105.251 265.053C105.357 265.329 105.513 265.545 105.718 265.702C105.923 265.856 106.173 265.934 106.47 265.934C106.78 265.934 107.038 265.852 107.245 265.689C107.454 265.524 107.611 265.302 107.715 265.024C107.822 264.744 107.875 264.433 107.875 264.09C107.875 263.751 107.823 263.446 107.718 263.174C107.616 262.901 107.46 262.684 107.251 262.525C107.044 262.364 106.784 262.284 106.47 262.284C106.169 262.284 105.916 262.36 105.712 262.513C105.507 262.663 105.352 262.874 105.247 263.146C105.143 263.416 105.091 263.73 105.091 264.09Z" fill="#565764"/>
<path d="M166.599 260.077H167.527L169.709 265.407H169.784L171.967 260.077H172.895V266.498H172.167V261.619H172.105L170.098 266.498H169.396L167.389 261.619H167.326V266.498H166.599V260.077ZM175.771 266.611C175.466 266.611 175.189 266.553 174.94 266.438C174.691 266.321 174.494 266.153 174.347 265.934C174.201 265.712 174.128 265.445 174.128 265.131C174.128 264.855 174.182 264.631 174.291 264.46C174.4 264.286 174.545 264.151 174.727 264.052C174.909 263.954 175.109 263.881 175.329 263.833C175.55 263.783 175.773 263.743 175.997 263.714C176.289 263.676 176.526 263.648 176.708 263.629C176.892 263.608 177.026 263.574 177.11 263.526C177.195 263.478 177.238 263.394 177.238 263.275V263.25C177.238 262.94 177.154 262.7 176.984 262.528C176.817 262.357 176.563 262.271 176.222 262.271C175.869 262.271 175.592 262.349 175.391 262.503C175.191 262.658 175.05 262.823 174.968 262.999L174.266 262.748C174.391 262.455 174.558 262.227 174.767 262.064C174.979 261.899 175.208 261.784 175.457 261.72C175.708 261.653 175.955 261.619 176.197 261.619C176.352 261.619 176.53 261.638 176.73 261.676C176.933 261.711 177.128 261.785 177.317 261.898C177.507 262.011 177.665 262.181 177.79 262.409C177.915 262.637 177.978 262.942 177.978 263.325V266.498H177.238V265.846H177.201C177.15 265.95 177.067 266.062 176.95 266.181C176.833 266.301 176.677 266.402 176.483 266.486C176.288 266.569 176.051 266.611 175.771 266.611ZM175.884 265.946C176.176 265.946 176.423 265.889 176.624 265.774C176.826 265.659 176.979 265.51 177.081 265.329C177.186 265.147 177.238 264.955 177.238 264.755V264.077C177.207 264.115 177.138 264.15 177.031 264.181C176.927 264.21 176.806 264.236 176.668 264.259C176.532 264.28 176.399 264.299 176.269 264.316C176.142 264.33 176.038 264.343 175.959 264.353C175.767 264.378 175.587 264.419 175.42 264.476C175.254 264.53 175.121 264.613 175.018 264.723C174.918 264.832 174.868 264.98 174.868 265.169C174.868 265.426 174.963 265.62 175.153 265.752C175.345 265.881 175.589 265.946 175.884 265.946ZM179.329 266.498V261.682H180.044V262.409H180.094C180.182 262.171 180.341 261.978 180.57 261.829C180.8 261.681 181.06 261.607 181.348 261.607C181.402 261.607 181.47 261.608 181.552 261.61C181.633 261.612 181.695 261.615 181.737 261.619V262.372C181.712 262.365 181.654 262.356 181.564 262.343C181.477 262.329 181.384 262.322 181.285 262.322C181.051 262.322 180.842 262.371 180.658 262.469C180.476 262.565 180.332 262.699 180.226 262.87C180.121 263.04 180.069 263.233 180.069 263.45V266.498H179.329Z" fill="#565764"/>
<path d="M239.638 266.498H238.823L241.18 260.077H241.983L244.341 266.498H243.526L241.607 261.092H241.557L239.638 266.498ZM239.939 263.99H243.225V264.679H239.939V263.99ZM245.241 268.304V261.682H245.956V262.447H246.044C246.098 262.363 246.173 262.257 246.269 262.127C246.368 261.995 246.508 261.878 246.69 261.776C246.873 261.671 247.122 261.619 247.436 261.619C247.841 261.619 248.199 261.721 248.508 261.923C248.817 262.126 249.059 262.414 249.232 262.786C249.406 263.158 249.493 263.597 249.493 264.103C249.493 264.613 249.406 265.055 249.232 265.429C249.059 265.801 248.819 266.089 248.511 266.294C248.204 266.497 247.85 266.598 247.448 266.598C247.139 266.598 246.891 266.547 246.705 266.445C246.519 266.34 246.376 266.222 246.276 266.09C246.175 265.957 246.098 265.846 246.044 265.758H245.981V268.304H245.241ZM245.968 264.09C245.968 264.454 246.022 264.775 246.128 265.053C246.235 265.329 246.391 265.545 246.595 265.702C246.8 265.856 247.051 265.934 247.348 265.934C247.657 265.934 247.916 265.852 248.122 265.689C248.331 265.524 248.488 265.302 248.593 265.024C248.699 264.744 248.753 264.433 248.753 264.09C248.753 263.751 248.7 263.446 248.596 263.174C248.493 262.901 248.338 262.684 248.129 262.525C247.922 262.364 247.662 262.284 247.348 262.284C247.047 262.284 246.794 262.36 246.589 262.513C246.384 262.663 246.23 262.874 246.125 263.146C246.021 263.416 245.968 263.73 245.968 264.09ZM250.621 266.498V261.682H251.336V262.409H251.387C251.474 262.171 251.633 261.978 251.863 261.829C252.093 261.681 252.352 261.607 252.641 261.607C252.695 261.607 252.763 261.608 252.845 261.61C252.926 261.612 252.988 261.615 253.03 261.619V262.372C253.004 262.365 252.947 262.356 252.857 262.343C252.769 262.329 252.676 262.322 252.578 262.322C252.344 262.322 252.135 262.371 251.951 262.469C251.769 262.565 251.625 262.699 251.518 262.87C251.414 263.04 251.361 263.233 251.361 263.45V266.498H250.621Z" fill="#565764"/>
<path d="M310.438 260.077H311.366L313.549 265.407H313.624L315.806 260.077H316.734V266.498H316.007V261.619H315.944L313.938 266.498H313.235L311.229 261.619H311.166V266.498H310.438V260.077ZM319.611 266.611C319.305 266.611 319.028 266.553 318.78 266.438C318.531 266.321 318.333 266.153 318.187 265.934C318.041 265.712 317.968 265.445 317.968 265.131C317.968 264.855 318.022 264.631 318.131 264.46C318.239 264.286 318.385 264.151 318.566 264.052C318.748 263.954 318.949 263.881 319.168 263.833C319.39 263.783 319.613 263.743 319.836 263.714C320.129 263.676 320.366 263.648 320.548 263.629C320.732 263.608 320.866 263.574 320.949 263.526C321.035 263.478 321.078 263.394 321.078 263.275V263.25C321.078 262.94 320.993 262.7 320.824 262.528C320.657 262.357 320.403 262.271 320.062 262.271C319.709 262.271 319.432 262.349 319.231 262.503C319.03 262.658 318.889 262.823 318.808 262.999L318.105 262.748C318.231 262.455 318.398 262.227 318.607 262.064C318.818 261.899 319.048 261.784 319.297 261.72C319.548 261.653 319.794 261.619 320.037 261.619C320.192 261.619 320.369 261.638 320.57 261.676C320.773 261.711 320.968 261.785 321.156 261.898C321.347 262.011 321.504 262.181 321.63 262.409C321.755 262.637 321.818 262.942 321.818 263.325V266.498H321.078V265.846H321.04C320.99 265.95 320.907 266.062 320.789 266.181C320.672 266.301 320.517 266.402 320.322 266.486C320.128 266.569 319.891 266.611 319.611 266.611ZM319.723 265.946C320.016 265.946 320.263 265.889 320.463 265.774C320.666 265.659 320.819 265.51 320.921 265.329C321.026 265.147 321.078 264.955 321.078 264.755V264.077C321.047 264.115 320.978 264.15 320.871 264.181C320.766 264.21 320.645 264.236 320.507 264.259C320.371 264.28 320.239 264.299 320.109 264.316C319.982 264.33 319.878 264.343 319.799 264.353C319.606 264.378 319.427 264.419 319.259 264.476C319.094 264.53 318.96 264.613 318.858 264.723C318.758 264.832 318.708 264.98 318.708 265.169C318.708 265.426 318.803 265.62 318.993 265.752C319.185 265.881 319.429 265.946 319.723 265.946ZM323.473 268.304C323.347 268.304 323.235 268.294 323.137 268.273C323.039 268.254 322.971 268.235 322.933 268.216L323.122 267.564C323.301 267.61 323.46 267.627 323.598 267.614C323.736 267.602 323.858 267.54 323.965 267.429C324.074 267.321 324.173 267.144 324.263 266.899L324.401 266.523L322.62 261.682H323.423L324.752 265.52H324.802L326.132 261.682H326.934L324.89 267.2C324.798 267.449 324.684 267.655 324.548 267.818C324.412 267.983 324.254 268.106 324.075 268.185C323.897 268.264 323.696 268.304 323.473 268.304Z" fill="#565764"/>
<path d="M387.173 260.077H387.951V264.667C387.951 265.077 387.876 265.425 387.725 265.711C387.575 265.997 387.363 266.215 387.089 266.363C386.815 266.512 386.492 266.586 386.12 266.586C385.769 266.586 385.456 266.522 385.182 266.395C384.909 266.265 384.693 266.081 384.536 265.843C384.38 265.604 384.301 265.321 384.301 264.993H385.066C385.066 265.175 385.111 265.334 385.201 265.47C385.293 265.603 385.419 265.708 385.577 265.783C385.736 265.858 385.917 265.896 386.12 265.896C386.344 265.896 386.534 265.849 386.691 265.755C386.847 265.661 386.967 265.523 387.048 265.341C387.132 265.157 387.173 264.932 387.173 264.667V260.077ZM392.444 264.529V261.682H393.184V266.498H392.444V265.683H392.394C392.281 265.927 392.106 266.135 391.867 266.307C391.629 266.476 391.328 266.561 390.964 266.561C390.663 266.561 390.396 266.495 390.162 266.363C389.927 266.229 389.744 266.029 389.61 265.761C389.476 265.492 389.409 265.152 389.409 264.742V261.682H390.149V264.692C390.149 265.043 390.247 265.323 390.444 265.532C390.642 265.741 390.895 265.846 391.203 265.846C391.387 265.846 391.574 265.799 391.764 265.705C391.956 265.611 392.117 265.466 392.247 265.272C392.378 265.078 392.444 264.83 392.444 264.529ZM395.28 263.601V266.498H394.54V261.682H395.254V262.434H395.317C395.43 262.19 395.601 261.993 395.831 261.845C396.061 261.694 396.358 261.619 396.722 261.619C397.048 261.619 397.333 261.686 397.578 261.82C397.822 261.952 398.013 262.152 398.149 262.422C398.284 262.689 398.352 263.028 398.352 263.438V266.498H397.612V263.488C397.612 263.11 397.514 262.815 397.318 262.604C397.121 262.391 396.851 262.284 396.509 262.284C396.272 262.284 396.061 262.335 395.875 262.438C395.691 262.54 395.546 262.689 395.439 262.886C395.333 263.082 395.28 263.321 395.28 263.601Z" fill="#565764"/>
<path d="M459.242 260.077H460.02V264.667C460.02 265.077 459.945 265.425 459.794 265.711C459.644 265.997 459.432 266.215 459.158 266.363C458.884 266.512 458.561 266.586 458.189 266.586C457.838 266.586 457.525 266.522 457.251 266.395C456.978 266.265 456.762 266.081 456.605 265.843C456.449 265.604 456.37 265.321 456.37 264.993H457.135C457.135 265.175 457.18 265.334 457.27 265.47C457.362 265.603 457.488 265.708 457.646 265.783C457.805 265.858 457.986 265.896 458.189 265.896C458.413 265.896 458.603 265.849 458.76 265.755C458.916 265.661 459.036 265.523 459.117 265.341C459.201 265.157 459.242 264.932 459.242 264.667V260.077ZM464.513 264.529V261.682H465.253V266.498H464.513V265.683H464.463C464.35 265.927 464.175 266.135 463.936 266.307C463.698 266.476 463.397 266.561 463.033 266.561C462.732 266.561 462.465 266.495 462.231 266.363C461.996 266.229 461.813 266.029 461.679 265.761C461.545 265.492 461.478 265.152 461.478 264.742V261.682H462.218V264.692C462.218 265.043 462.316 265.323 462.513 265.532C462.711 265.741 462.964 265.846 463.272 265.846C463.456 265.846 463.643 265.799 463.833 265.705C464.025 265.611 464.186 265.466 464.316 265.272C464.447 265.078 464.513 264.83 464.513 264.529ZM467.349 260.077V266.498H466.609V260.077H467.349Z" fill="#565764"/>
<path d="M292 6L292 316" stroke="white" stroke-opacity="0.1" stroke-dasharray="7 7"/>
<rect y="232" width="500" height="78" fill="url(#paint18_linear_4005_1636)"/>
<rect x="87" width="283" height="87" transform="rotate(90 87 0)" fill="url(#paint19_linear_4005_1636)"/>
<rect x="403" y="283" width="283" height="97" transform="rotate(-90 403 283)" fill="url(#paint20_linear_4005_1636)"/>
<circle cx="292.301" cy="127.642" r="25.6993" fill="#FEAA01" fill-opacity="0.12"/>
<circle cx="292.302" cy="127.642" r="9.15046" fill="#FEAA01"/>
<g filter="url(#filter2_di_4005_1636)">
<circle cx="292.303" cy="127.641" r="5.13318" fill="url(#paint21_radial_4005_1636)" shape-rendering="crispEdges"/>
<circle cx="292.303" cy="127.641" r="4.9161" stroke="url(#paint22_linear_4005_1636)" stroke-width="0.434167" shape-rendering="crispEdges"/>
</g>
<path fill-rule="evenodd" clip-rule="evenodd" d="M295.432 185.011L292 161.829L311.286 176.159L301.083 177.671L300.891 177.882L295.432 185.011Z" fill="white"/>
<path fill-rule="evenodd" clip-rule="evenodd" d="M293.94 164.946L296.343 181.173L300.026 176.379L300.228 176.143L307.522 175.074L293.94 164.946Z" fill="#202125"/>
<path d="M33.5416 52.7246V26.6214H35.2138V52.7246H33.5416ZM38.7724 34.7175C38.6636 33.7522 38.215 33.0045 37.4264 32.4743C36.6379 31.9372 35.6454 31.6687 34.4491 31.6687C33.5925 31.6687 32.8516 31.8047 32.2262 32.0766C31.6008 32.3417 31.1148 32.7088 30.7681 33.1778C30.4282 33.6401 30.2583 34.1669 30.2583 34.7583C30.2583 35.2545 30.3738 35.6828 30.605 36.043C30.8429 36.4033 31.1522 36.7058 31.5328 36.9505C31.9203 37.1885 32.335 37.389 32.7768 37.5521C33.2187 37.7085 33.6435 37.8376 34.0514 37.9396L36.0907 38.4698C36.7569 38.633 37.44 38.8539 38.1402 39.1326C38.8404 39.4113 39.4895 39.7784 40.0877 40.2338C40.6859 40.6893 41.1686 41.2535 41.5356 41.9264C41.9095 42.5994 42.0965 43.4049 42.0965 44.343C42.0965 45.5258 41.7906 46.5761 41.1788 47.4937C40.5738 48.4114 39.6935 49.1354 38.5379 49.6656C37.3891 50.1958 35.9989 50.4609 34.3675 50.4609C32.804 50.4609 31.4513 50.2128 30.3093 49.7166C29.1673 49.2204 28.2734 48.5168 27.6276 47.6059C26.9818 46.6882 26.6249 45.6006 26.5569 44.343H29.7179C29.779 45.0976 30.0238 45.7263 30.452 46.2294C30.8871 46.7256 31.4411 47.0961 32.114 47.3408C32.7938 47.5787 33.5382 47.6977 34.3471 47.6977C35.2376 47.6977 36.0295 47.5583 36.7229 47.2796C37.423 46.9941 37.9737 46.5999 38.3747 46.0968C38.7758 45.587 38.9763 44.9922 38.9763 44.3124C38.9763 43.6938 38.7996 43.1874 38.4461 42.7931C38.0994 42.3989 37.627 42.0726 37.0288 41.8143C36.4374 41.556 35.7678 41.3282 35.0201 41.1311L32.5525 40.4581C30.8803 40.0027 29.5547 39.3331 28.5759 38.4494C27.6038 37.5657 27.1177 36.3965 27.1177 34.9418C27.1177 33.7386 27.444 32.6884 28.0966 31.7911C28.7492 30.8938 29.6329 30.197 30.7477 29.7008C31.8625 29.1978 33.1201 28.9463 34.5204 28.9463C35.9344 28.9463 37.1817 29.1944 38.2626 29.6906C39.3502 30.1868 40.2067 30.87 40.8321 31.7401C41.4575 32.6034 41.7838 33.5959 41.811 34.7175H38.7724ZM52.9245 29.2318V50.1143H49.7635V32.3927H49.6412L44.6449 35.6556V32.6374L49.8553 29.2318H52.9245ZM60.8006 47.2592L60.6476 48.3707C60.5457 49.1864 60.3723 50.0361 60.1276 50.9198C59.8897 51.8103 59.6416 52.6362 59.3833 53.3975C59.1317 54.1589 58.9244 54.7639 58.7613 55.2125H56.5996C56.688 54.7911 56.8103 54.2201 56.9667 53.4995C57.123 52.7857 57.276 51.987 57.4255 51.1033C57.5751 50.2196 57.6872 49.3189 57.762 48.4012L57.864 47.2592H60.8006ZM70.846 50.3998C69.3845 50.3998 68.0929 50.1482 66.9713 49.6452C65.8565 49.1422 64.983 48.4488 64.3508 47.5651C63.7186 46.6814 63.4059 45.6754 63.4127 44.547C63.4059 43.6633 63.5861 42.8509 63.9531 42.11C64.327 41.3622 64.8334 40.7402 65.4724 40.244C66.1114 39.741 66.8252 39.4215 67.6137 39.2855V39.1632C66.5736 38.9117 65.7409 38.3543 65.1155 37.4909C64.4902 36.6276 64.1809 35.6352 64.1877 34.5136C64.1809 33.4463 64.463 32.4946 65.034 31.6585C65.6118 30.8156 66.4037 30.1528 67.4098 29.6702C68.4158 29.1876 69.5612 28.9463 70.846 28.9463C72.1172 28.9463 73.2524 29.191 74.2516 29.6804C75.2577 30.163 76.0496 30.8258 76.6274 31.6687C77.2052 32.5048 77.4975 33.4531 77.5043 34.5136C77.4975 35.6352 77.178 36.6276 76.5459 37.4909C75.9137 38.3543 75.0911 38.9117 74.0783 39.1632V39.2855C74.86 39.4215 75.5636 39.741 76.189 40.244C76.8212 40.7402 77.3242 41.3622 77.6981 42.11C78.0787 42.8509 78.2725 43.6633 78.2793 44.547C78.2725 45.6754 77.953 46.6814 77.3208 47.5651C76.6886 48.4488 75.8117 49.1422 74.6901 49.6452C73.5753 50.1482 72.2939 50.3998 70.846 50.3998ZM70.846 47.82C71.7093 47.82 72.457 47.6773 73.0892 47.3918C73.7214 47.0995 74.2108 46.695 74.5575 46.1784C74.9042 45.655 75.081 45.0432 75.0877 44.343C75.081 43.6157 74.8906 42.9733 74.5167 42.4159C74.1497 41.8585 73.65 41.42 73.0179 41.1005C72.3857 40.781 71.6617 40.6213 70.846 40.6213C70.0235 40.6213 69.2927 40.781 68.6537 41.1005C68.0148 41.42 67.5117 41.8585 67.1446 42.4159C66.7776 42.9733 66.5974 43.6157 66.6042 44.343C66.5974 45.0432 66.764 45.655 67.1039 46.1784C67.4505 46.695 67.9434 47.0995 68.5824 47.3918C69.2213 47.6773 69.9759 47.82 70.846 47.82ZM70.846 38.1027C71.5394 38.1027 72.1545 37.9634 72.6916 37.6847C73.2286 37.406 73.65 37.0185 73.9559 36.5223C74.2686 36.026 74.4284 35.4448 74.4352 34.7787C74.4284 34.1261 74.272 33.5551 73.9661 33.0657C73.667 32.5762 73.249 32.1989 72.712 31.9338C72.1749 31.6619 71.553 31.526 70.846 31.526C70.1254 31.526 69.4933 31.6619 68.9494 31.9338C68.4124 32.1989 67.9944 32.5762 67.6953 33.0657C67.3962 33.5551 67.25 34.1261 67.2568 34.7787C67.25 35.4448 67.3996 36.026 67.7055 36.5223C68.0114 37.0185 68.4328 37.406 68.9698 37.6847C69.5136 37.9634 70.139 38.1027 70.846 38.1027ZM80.9195 46.0356V43.4865L89.9434 29.2318H91.9521V32.9841H90.6775L84.2231 43.201V43.3642H96.5915V46.0356H80.9195ZM90.8203 50.1143V45.2607L90.8407 44.0983V29.2318H93.8283V50.1143H90.8203ZM106.841 50.3998C105.441 50.3998 104.19 50.1584 103.089 49.6758C101.994 49.1932 101.127 48.5236 100.488 47.6671C99.8562 46.8038 99.5164 45.8045 99.4688 44.6693H102.67C102.711 45.2879 102.919 45.8249 103.292 46.2804C103.673 46.729 104.169 47.0757 104.781 47.3204C105.393 47.5651 106.073 47.6875 106.82 47.6875C107.643 47.6875 108.37 47.5447 109.003 47.2592C109.642 46.9737 110.141 46.5761 110.501 46.0662C110.862 45.5496 111.042 44.9548 111.042 44.2818C111.042 43.5817 110.862 42.9665 110.501 42.4363C110.148 41.8993 109.628 41.4778 108.941 41.1719C108.262 40.866 107.439 40.7131 106.474 40.7131H104.71V38.1435H106.474C107.249 38.1435 107.929 38.0042 108.513 37.7255C109.105 37.4468 109.567 37.0593 109.9 36.5631C110.233 36.06 110.399 35.472 110.399 34.7991C110.399 34.1533 110.253 33.5925 109.961 33.1166C109.676 32.634 109.268 32.2567 108.737 31.9848C108.214 31.7129 107.595 31.577 106.882 31.577C106.202 31.577 105.566 31.7027 104.975 31.9542C104.39 32.1989 103.914 32.5524 103.547 33.0147C103.18 33.4701 102.983 34.0173 102.956 34.6563H99.9072C99.9412 33.5279 100.274 32.5354 100.906 31.6789C101.545 30.8224 102.388 30.1528 103.435 29.6702C104.482 29.1876 105.644 28.9463 106.922 28.9463C108.262 28.9463 109.417 29.208 110.389 29.7314C111.368 30.248 112.123 30.938 112.653 31.8013C113.19 32.6646 113.455 33.6095 113.448 34.6359C113.455 35.8051 113.129 36.7976 112.469 37.6133C111.817 38.429 110.947 38.9762 109.859 39.2549V39.4181C111.246 39.6288 112.32 40.1794 113.081 41.0699C113.849 41.9604 114.23 43.0651 114.223 44.3838C114.23 45.5326 113.91 46.5625 113.265 47.4734C112.626 48.3842 111.752 49.1014 110.644 49.6248C109.536 50.1414 108.268 50.3998 106.841 50.3998ZM118.936 50.308C118.378 50.308 117.899 50.1109 117.498 49.7166C117.097 49.3155 116.896 48.8329 116.896 48.2687C116.896 47.7113 117.097 47.2354 117.498 46.8412C117.899 46.4401 118.378 46.2396 118.936 46.2396C119.493 46.2396 119.972 46.4401 120.374 46.8412C120.775 47.2354 120.975 47.7113 120.975 48.2687C120.975 48.6426 120.88 48.9858 120.69 49.2985C120.506 49.6044 120.261 49.8491 119.955 50.0327C119.65 50.2162 119.31 50.308 118.936 50.308ZM130.799 50.3998C129.337 50.3998 128.046 50.1482 126.924 49.6452C125.809 49.1422 124.936 48.4488 124.304 47.5651C123.671 46.6814 123.359 45.6754 123.365 44.547C123.359 43.6633 123.539 42.8509 123.906 42.11C124.28 41.3622 124.786 40.7402 125.425 40.244C126.064 39.741 126.778 39.4215 127.566 39.2855V39.1632C126.526 38.9117 125.694 38.3543 125.068 37.4909C124.443 36.6276 124.134 35.6352 124.14 34.5136C124.134 33.4463 124.416 32.4946 124.987 31.6585C125.565 30.8156 126.356 30.1528 127.363 29.6702C128.369 29.1876 129.514 28.9463 130.799 28.9463C132.07 28.9463 133.205 29.191 134.204 29.6804C135.21 30.163 136.002 30.8258 136.58 31.6687C137.158 32.5048 137.45 33.4531 137.457 34.5136C137.45 35.6352 137.131 36.6276 136.499 37.4909C135.866 38.3543 135.044 38.9117 134.031 39.1632V39.2855C134.813 39.4215 135.516 39.741 136.142 40.244C136.774 40.7402 137.277 41.3622 137.651 42.11C138.031 42.8509 138.225 43.6633 138.232 44.547C138.225 45.6754 137.906 46.6814 137.274 47.5651C136.641 48.4488 135.764 49.1422 134.643 49.6452C133.528 50.1482 132.247 50.3998 130.799 50.3998ZM130.799 47.82C131.662 47.82 132.41 47.6773 133.042 47.3918C133.674 47.0995 134.164 46.695 134.51 46.1784C134.857 45.655 135.034 45.0432 135.041 44.343C135.034 43.6157 134.843 42.9733 134.47 42.4159C134.102 41.8585 133.603 41.42 132.971 41.1005C132.338 40.781 131.614 40.6213 130.799 40.6213C129.976 40.6213 129.245 40.781 128.606 41.1005C127.968 41.42 127.464 41.8585 127.097 42.4159C126.73 42.9733 126.55 43.6157 126.557 44.343C126.55 45.0432 126.717 45.655 127.057 46.1784C127.403 46.695 127.896 47.0995 128.535 47.3918C129.174 47.6773 129.929 47.82 130.799 47.82ZM130.799 38.1027C131.492 38.1027 132.107 37.9634 132.644 37.6847C133.181 37.406 133.603 37.0185 133.909 36.5223C134.221 36.026 134.381 35.4448 134.388 34.7787C134.381 34.1261 134.225 33.5551 133.919 33.0657C133.62 32.5762 133.202 32.1989 132.665 31.9338C132.128 31.6619 131.506 31.526 130.799 31.526C130.078 31.526 129.446 31.6619 128.902 31.9338C128.365 32.1989 127.947 32.5762 127.648 33.0657C127.349 33.5551 127.203 34.1261 127.21 34.7787C127.203 35.4448 127.352 36.026 127.658 36.5223C127.964 37.0185 128.386 37.406 128.923 37.6847C129.466 37.9634 130.092 38.1027 130.799 38.1027ZM141.311 50.1143V47.8302L148.377 40.5091C149.131 39.7138 149.753 39.017 150.243 38.4188C150.739 37.8138 151.11 37.2394 151.354 36.6956C151.599 36.1518 151.721 35.574 151.721 34.9622C151.721 34.2688 151.558 33.6706 151.232 33.1676C150.906 32.6578 150.46 32.2669 149.896 31.995C149.332 31.7163 148.696 31.577 147.989 31.577C147.242 31.577 146.589 31.7299 146.032 32.0358C145.474 32.3417 145.046 32.7734 144.747 33.3308C144.448 33.8882 144.298 34.5408 144.298 35.2885H141.29C141.29 34.0173 141.583 32.9059 142.167 31.9542C142.752 31.0026 143.554 30.265 144.574 29.7416C145.593 29.2114 146.752 28.9463 148.051 28.9463C149.363 28.9463 150.518 29.208 151.517 29.7314C152.523 30.248 153.309 30.955 153.873 31.8523C154.437 32.7428 154.719 33.7488 154.719 34.8704C154.719 35.6454 154.573 36.4033 154.281 37.1443C153.995 37.8852 153.496 38.7111 152.782 39.622C152.068 40.5261 151.076 41.6239 149.804 42.9155L145.654 47.2592V47.4122H155.056V50.1143H141.311Z" fill="white"/>
<path d="M169.762 40.1143C169.762 33.9473 174.761 28.948 180.928 28.948H209.714C215.881 28.948 220.88 33.9473 220.88 40.1143C220.88 46.2813 215.881 51.2807 209.714 51.2807H180.928C174.761 51.2807 169.762 46.2813 169.762 40.1143Z" fill="#2ED3B7" fill-opacity="0.12"/>
<path d="M181.726 43.3714V36.8577M181.726 36.8577L178.469 40.1145M181.726 36.8577L184.982 40.1145" stroke="#2ED3B7" stroke-width="1.39579" stroke-linecap="round" stroke-linejoin="round"/>
<path d="M191.629 44.1143V43.226L194.377 40.3789C194.67 40.0696 194.912 39.7987 195.102 39.566C195.295 39.3308 195.439 39.1074 195.534 38.8959C195.63 38.6844 195.677 38.4597 195.677 38.2218C195.677 37.9522 195.614 37.7195 195.487 37.5239C195.36 37.3256 195.187 37.1736 194.967 37.0679C194.748 36.9595 194.501 36.9053 194.226 36.9053C193.935 36.9053 193.681 36.9648 193.465 37.0837C193.248 37.2027 193.081 37.3706 192.965 37.5873C192.849 37.8041 192.79 38.0579 192.79 38.3487H191.621C191.621 37.8543 191.734 37.4221 191.962 37.052C192.189 36.6819 192.501 36.3951 192.898 36.1916C193.294 35.9854 193.745 35.8823 194.25 35.8823C194.76 35.8823 195.209 35.984 195.598 36.1876C195.989 36.3885 196.294 36.6634 196.514 37.0124C196.733 37.3587 196.843 37.7499 196.843 38.1861C196.843 38.4875 196.786 38.7822 196.672 39.0704C196.561 39.3585 196.367 39.6797 196.09 40.0339C195.812 40.3855 195.426 40.8125 194.932 41.3147L193.318 43.004V43.0634H196.974V44.1143H191.629ZM201.304 44.2491C200.677 44.2464 200.142 44.0812 199.698 43.7534C199.254 43.4256 198.914 42.9485 198.679 42.3219C198.444 41.6954 198.326 40.9407 198.326 40.0577C198.326 39.1774 198.444 38.4253 198.679 37.8015C198.917 37.1776 199.258 36.7018 199.702 36.374C200.149 36.0462 200.683 35.8823 201.304 35.8823C201.925 35.8823 202.458 36.0475 202.902 36.3779C203.346 36.7057 203.686 37.1816 203.921 37.8054C204.159 38.4267 204.278 39.1774 204.278 40.0577C204.278 40.9433 204.16 41.6994 203.925 42.3259C203.69 42.9498 203.35 43.4269 202.906 43.7574C202.462 44.0852 201.928 44.2491 201.304 44.2491ZM201.304 43.1903C201.854 43.1903 202.283 42.922 202.593 42.3854C202.905 41.8487 203.061 41.0729 203.061 40.0577C203.061 39.3836 202.989 38.8139 202.846 38.3487C202.706 37.8808 202.504 37.5265 202.24 37.286C201.978 37.0428 201.666 36.9212 201.304 36.9212C200.757 36.9212 200.327 37.1908 200.015 37.7301C199.703 38.2694 199.546 39.0453 199.543 40.0577C199.543 40.7345 199.613 41.3068 199.754 41.7747C199.896 42.24 200.099 42.5929 200.36 42.8335C200.622 43.0714 200.937 43.1903 201.304 43.1903ZM209.924 42.5916V42.1633C209.924 41.8567 209.987 41.5765 210.114 41.3227C210.243 41.0663 210.431 40.8614 210.677 40.708C210.925 40.5521 211.226 40.4741 211.577 40.4741C211.937 40.4741 212.238 40.5508 212.481 40.7041C212.724 40.8574 212.908 41.0623 213.032 41.3187C213.159 41.5751 213.223 41.8567 213.223 42.1633V42.5916C213.223 42.8982 213.159 43.1798 213.032 43.4362C212.906 43.69 212.719 43.8948 212.473 44.0508C212.23 44.2041 211.931 44.2808 211.577 44.2808C211.22 44.2808 210.919 44.2041 210.673 44.0508C210.427 43.8948 210.241 43.69 210.114 43.4362C209.987 43.1798 209.924 42.8982 209.924 42.5916ZM210.848 42.1633V42.5916C210.848 42.8189 210.902 43.0251 211.01 43.2102C211.118 43.3952 211.307 43.4877 211.577 43.4877C211.844 43.4877 212.03 43.3952 212.136 43.2102C212.242 43.0251 212.295 42.8189 212.295 42.5916V42.1633C212.295 41.936 212.243 41.7298 212.14 41.5447C212.04 41.3597 211.852 41.2672 211.577 41.2672C211.313 41.2672 211.125 41.3597 211.014 41.5447C210.903 41.7298 210.848 41.936 210.848 42.1633ZM205.839 37.9442V37.516C205.839 37.2093 205.903 36.9278 206.03 36.6714C206.159 36.4149 206.347 36.2101 206.593 36.0567C206.841 35.9034 207.141 35.8267 207.493 35.8267C207.852 35.8267 208.154 35.9034 208.397 36.0567C208.64 36.2101 208.824 36.4149 208.948 36.6714C209.072 36.9278 209.134 37.2093 209.134 37.516V37.9442C209.134 38.2509 209.071 38.5324 208.944 38.7888C208.82 39.0426 208.635 39.2475 208.389 39.4035C208.146 39.5568 207.847 39.6334 207.493 39.6334C207.133 39.6334 206.831 39.5568 206.585 39.4035C206.342 39.2475 206.157 39.0426 206.03 38.7888C205.903 38.5324 205.839 38.2509 205.839 37.9442ZM206.767 37.516V37.9442C206.767 38.1716 206.82 38.3778 206.926 38.5628C207.034 38.7479 207.223 38.8404 207.493 38.8404C207.757 38.8404 207.942 38.7479 208.048 38.5628C208.156 38.3778 208.211 38.1716 208.211 37.9442V37.516C208.211 37.2886 208.159 37.0824 208.056 36.8974C207.953 36.7123 207.765 36.6198 207.493 36.6198C207.228 36.6198 207.041 36.7123 206.93 36.8974C206.821 37.0824 206.767 37.2886 206.767 37.516ZM206.216 44.1143L211.799 35.9933H212.747L207.164 44.1143H206.216Z" fill="#2ED3B7"/>
<g style="mix-blend-mode:plus-lighter" opacity="0.31" filter="url(#filter3_f_4005_1636)">
<ellipse cx="287.5" cy="126.5" rx="33.5" ry="22.5" fill="#FEC84B"/>
</g>
<g style="mix-blend-mode:plus-lighter" opacity="0.07" filter="url(#filter4_f_4005_1636)">
<ellipse cx="195.5" cy="39.5" rx="30.5" ry="16.5" fill="#2ED3B7"/>
</g>
</g>
<defs>
<filter id="filter0_f_4005_1636" x="82.4085" y="5.72657" width="267.405" height="267.377" filterUnits="userSpaceOnUse" color-interpolation-filters="sRGB">
<feFlood flood-opacity="0" result="BackgroundImageFix"/>
<feBlend mode="normal" in="SourceGraphic" in2="BackgroundImageFix" result="shape"/>
<feGaussianBlur stdDeviation="26.1566" result="effect1_foregroundBlur_4005_1636"/>
</filter>
<filter id="filter1_f_4005_1636" x="82.4085" y="5.72657" width="267.405" height="267.377" filterUnits="userSpaceOnUse" color-interpolation-filters="sRGB">
<feFlood flood-opacity="0" result="BackgroundImageFix"/>
<feBlend mode="normal" in="SourceGraphic" in2="BackgroundImageFix" result="shape"/>
<feGaussianBlur stdDeviation="26.1566" result="effect1_foregroundBlur_4005_1636"/>
</filter>
<filter id="filter2_di_4005_1636" x="269.203" y="122.508" width="46.2005" height="46.2565" filterUnits="userSpaceOnUse" color-interpolation-filters="sRGB">
<feFlood flood-opacity="0" result="BackgroundImageFix"/>
<feColorMatrix in="SourceAlpha" type="matrix" values="0 0 0 0 0 0 0 0 0 0 0 0 0 0 0 0 0 0 127 0" result="hardAlpha"/>
<feOffset dy="18.0232"/>
<feGaussianBlur stdDeviation="8.98346"/>
<feComposite in2="hardAlpha" operator="out"/>
<feColorMatrix type="matrix" values="0 0 0 0 0 0 0 0 0 0 0 0 0 0 0 0 0 0 0.45 0"/>
<feBlend mode="soft-light" in2="BackgroundImageFix" result="effect1_dropShadow_4005_1636"/>
<feBlend mode="normal" in="SourceGraphic" in2="effect1_dropShadow_4005_1636" result="shape"/>
<feColorMatrix in="SourceAlpha" type="matrix" values="0 0 0 0 0 0 0 0 0 0 0 0 0 0 0 0 0 0 127 0" result="hardAlpha"/>
<feOffset dy="5.06904"/>
<feGaussianBlur stdDeviation="1.99945"/>
<feComposite in2="hardAlpha" operator="arithmetic" k2="-1" k3="1"/>
<feColorMatrix type="matrix" values="0 0 0 0 1 0 0 0 0 1 0 0 0 0 1 0 0 0 0.49 0"/>
<feBlend mode="normal" in2="shape" result="effect2_innerShadow_4005_1636"/>
</filter>
<filter id="filter3_f_4005_1636" x="198.7" y="48.7" width="177.6" height="155.6" filterUnits="userSpaceOnUse" color-interpolation-filters="sRGB">
<feFlood flood-opacity="0" result="BackgroundImageFix"/>
<feBlend mode="normal" in="SourceGraphic" in2="BackgroundImageFix" result="shape"/>
<feGaussianBlur stdDeviation="27.65" result="effect1_foregroundBlur_4005_1636"/>
</filter>
<filter id="filter4_f_4005_1636" x="132.7" y="-9.3" width="125.6" height="97.6" filterUnits="userSpaceOnUse" color-interpolation-filters="sRGB">
<feFlood flood-opacity="0" result="BackgroundImageFix"/>
<feBlend mode="normal" in="SourceGraphic" in2="BackgroundImageFix" result="shape"/>
<feGaussianBlur stdDeviation="16.15" result="effect1_foregroundBlur_4005_1636"/>
</filter>
<linearGradient id="paint0_linear_4005_1636" x1="285.69" y1="151.841" x2="285.69" y2="237" gradientUnits="userSpaceOnUse">
<stop stop-color="#FEAA01"/>
<stop offset="1" stop-color="#FEAA01" stop-opacity="0.12"/>
</linearGradient>
<linearGradient id="paint1_linear_4005_1636" x1="285.69" y1="125.241" x2="285.69" y2="217.102" gradientUnits="userSpaceOnUse">
<stop stop-color="#B84794"/>
<stop offset="1" stop-color="#B84794" stop-opacity="0"/>
</linearGradient>
<radialGradient id="paint2_radial_4005_1636" cx="0" cy="0" r="1" gradientUnits="userSpaceOnUse" gradientTransform="translate(521.56 472.32) rotate(-90) scale(128.5 78.9935)">
<stop stop-color="#FEAA01"/>
<stop offset="1" stop-color="#FEAA01" stop-opacity="0.12"/>
</radialGradient>
<radialGradient id="paint3_radial_4005_1636" cx="0" cy="0" r="1" gradientUnits="userSpaceOnUse" gradientTransform="translate(488.06 472.32) rotate(-90) scale(128.5 78.9935)">
<stop stop-color="#FEAA01"/>
<stop offset="1" stop-color="#FEAA01" stop-opacity="0.12"/>
</radialGradient>
<radialGradient id="paint4_radial_4005_1636" cx="0" cy="0" r="1" gradientUnits="userSpaceOnUse" gradientTransform="translate(454.56 472.32) rotate(-90) scale(128.5 78.9935)">
<stop stop-color="#FEAA01"/>
<stop offset="1" stop-color="#FEAA01" stop-opacity="0.12"/>
</radialGradient>
<radialGradient id="paint5_radial_4005_1636" cx="0" cy="0" r="1" gradientUnits="userSpaceOnUse" gradientTransform="translate(421.06 472.32) rotate(-90) scale(128.5 78.9935)">
<stop stop-color="#FEAA01"/>
<stop offset="1" stop-color="#FEAA01" stop-opacity="0.12"/>
</radialGradient>
<radialGradient id="paint6_radial_4005_1636" cx="0" cy="0" r="1" gradientUnits="userSpaceOnUse" gradientTransform="translate(387.56 472.32) rotate(-90) scale(128.5 78.9935)">
<stop stop-color="#FEAA01"/>
<stop offset="1" stop-color="#FEAA01" stop-opacity="0.12"/>
</radialGradient>
<radialGradient id="paint7_radial_4005_1636" cx="0" cy="0" r="1" gradientUnits="userSpaceOnUse" gradientTransform="translate(354.06 472.32) rotate(-90) scale(128.5 78.9935)">
<stop stop-color="#FEAA01"/>
<stop offset="1" stop-color="#FEAA01" stop-opacity="0.12"/>
</radialGradient>
<radialGradient id="paint8_radial_4005_1636" cx="0" cy="0" r="1" gradientUnits="userSpaceOnUse" gradientTransform="translate(320.56 472.32) rotate(-90) scale(128.5 78.9935)">
<stop stop-color="#FEAA01"/>
<stop offset="1" stop-color="#FEAA01" stop-opacity="0.12"/>
</radialGradient>
<radialGradient id="paint9_radial_4005_1636" cx="0" cy="0" r="1" gradientUnits="userSpaceOnUse" gradientTransform="translate(287.06 472.32) rotate(-90) scale(128.5 78.9935)">
<stop stop-color="#FEAA01"/>
<stop offset="1" stop-color="#FEAA01" stop-opacity="0.12"/>
</radialGradient>
<radialGradient id="paint10_radial_4005_1636" cx="0" cy="0" r="1" gradientUnits="userSpaceOnUse" gradientTransform="translate(253.56 472.32) rotate(-90) scale(128.5 78.9935)">
<stop stop-color="#FEAA01"/>
<stop offset="1" stop-color="#FEAA01" stop-opacity="0.12"/>
</radialGradient>
<radialGradient id="paint11_radial_4005_1636" cx="0" cy="0" r="1" gradientUnits="userSpaceOnUse" gradientTransform="translate(220.06 472.32) rotate(-90) scale(128.5 78.9935)">
<stop stop-color="#FEAA01"/>
<stop offset="1" stop-color="#FEAA01" stop-opacity="0.12"/>
</radialGradient>
<radialGradient id="paint12_radial_4005_1636" cx="0" cy="0" r="1" gradientUnits="userSpaceOnUse" gradientTransform="translate(186.56 472.32) rotate(-90) scale(128.5 78.9935)">
<stop stop-color="#FEAA01"/>
<stop offset="1" stop-color="#FEAA01" stop-opacity="0.12"/>
</radialGradient>
<radialGradient id="paint13_radial_4005_1636" cx="0" cy="0" r="1" gradientUnits="userSpaceOnUse" gradientTransform="translate(153.06 472.32) rotate(-90) scale(128.5 78.9935)">
<stop stop-color="#FEAA01"/>
<stop offset="1" stop-color="#FEAA01" stop-opacity="0.12"/>
</radialGradient>
<radialGradient id="paint14_radial_4005_1636" cx="0" cy="0" r="1" gradientUnits="userSpaceOnUse" gradientTransform="translate(119.56 472.32) rotate(-90) scale(128.5 78.9935)">
<stop stop-color="#FEAA01"/>
<stop offset="1" stop-color="#FEAA01" stop-opacity="0.12"/>
</radialGradient>
<radialGradient id="paint15_radial_4005_1636" cx="0" cy="0" r="1" gradientUnits="userSpaceOnUse" gradientTransform="translate(86.0596 472.32) rotate(-90) scale(128.5 78.9935)">
<stop stop-color="#FEAA01"/>
<stop offset="1" stop-color="#FEAA01" stop-opacity="0.12"/>
</radialGradient>
<radialGradient id="paint16_radial_4005_1636" cx="0" cy="0" r="1" gradientUnits="userSpaceOnUse" gradientTransform="translate(52.5596 472.32) rotate(-90) scale(128.5 78.9935)">
<stop stop-color="#FEAA01"/>
<stop offset="1" stop-color="#FEAA01" stop-opacity="0.12"/>
</radialGradient>
<radialGradient id="paint17_radial_4005_1636" cx="0" cy="0" r="1" gradientUnits="userSpaceOnUse" gradientTransform="translate(19.0596 472.32) rotate(-90) scale(128.5 78.9935)">
<stop stop-color="#FEAA01"/>
<stop offset="1" stop-color="#FEAA01" stop-opacity="0.12"/>
</radialGradient>
<linearGradient id="paint18_linear_4005_1636" x1="250" y1="232" x2="250" y2="310" gradientUnits="userSpaceOnUse">
<stop stop-color="#121323" stop-opacity="0"/>
<stop offset="1" stop-color="#121323"/>
</linearGradient>
<linearGradient id="paint19_linear_4005_1636" x1="228.5" y1="0" x2="228.5" y2="87" gradientUnits="userSpaceOnUse">
<stop stop-color="#121323" stop-opacity="0"/>
<stop offset="1" stop-color="#121323"/>
</linearGradient>
<linearGradient id="paint20_linear_4005_1636" x1="544.5" y1="283" x2="544.5" y2="380" gradientUnits="userSpaceOnUse">
<stop stop-color="#121323" stop-opacity="0"/>
<stop offset="1" stop-color="#121323"/>
</linearGradient>
<radialGradient id="paint21_radial_4005_1636" cx="0" cy="0" r="1" gradientUnits="userSpaceOnUse" gradientTransform="translate(292.303 122.019) rotate(90) scale(17.8439)">
<stop stop-color="white"/>
<stop offset="1" stop-color="white" stop-opacity="0"/>
</radialGradient>
<linearGradient id="paint22_linear_4005_1636" x1="292.303" y1="122.508" x2="292.303" y2="132.774" gradientUnits="userSpaceOnUse">
<stop offset="0.430056" stop-color="white" stop-opacity="0"/>
<stop offset="1" stop-color="white" stop-opacity="0.8"/>
</linearGradient>
<clipPath id="clip0_4005_1636">
<rect y="0.228516" width="500" height="310" rx="16" fill="white"/>
</clipPath>
</defs>
</svg>
