<svg width="179" height="49" viewBox="0 0 179 49" fill="none" xmlns="http://www.w3.org/2000/svg">
<g filter="url(#filter0_ddi_135_545)">
<path d="M15.0078 37V21.9438H12.5298V19.0557H15.0078V17.2954C15.0078 13.8091 16.6484 12.1685 20.3057 12.1685C21.0576 12.1685 21.895 12.2539 22.3735 12.3394V15.0737C22.0146 15.0054 21.519 14.9712 21.0234 14.9712C19.417 14.9712 18.665 15.7744 18.665 17.3638V19.0557H22.3052V21.9438H18.7163V37H15.0078ZM25.2104 37V19.0215H28.731V22.0806H28.8164C29.4146 19.9785 31.021 18.731 33.1401 18.731C33.6699 18.731 34.1313 18.8164 34.4048 18.8677V22.3027C34.1143 22.1831 33.4648 22.0977 32.7471 22.0977C30.3716 22.0977 28.9019 23.687 28.9019 26.2334V37H25.2104ZM36.8145 37V19.0215H40.5059V37H36.8145ZM38.6602 16.3896C37.481 16.3896 36.5239 15.4497 36.5239 14.2876C36.5239 13.1084 37.481 12.1685 38.6602 12.1685C39.8564 12.1685 40.8135 13.1084 40.8135 14.2876C40.8135 15.4497 39.8564 16.3896 38.6602 16.3896ZM51.8022 21.6704C49.2217 21.6704 47.4102 23.6357 47.2222 26.353H56.2114C56.126 23.6016 54.3828 21.6704 51.8022 21.6704ZM56.1943 31.7192H59.6978C59.1851 35.0005 56.0747 37.3418 51.9561 37.3418C46.6753 37.3418 43.4795 33.77 43.4795 28.0962C43.4795 22.4565 46.7266 18.6968 51.8022 18.6968C56.7925 18.6968 59.9028 22.2173 59.9028 27.6689V28.9336H47.2051V29.1558C47.2051 32.2832 49.085 34.3511 52.0415 34.3511C54.1436 34.3511 55.6987 33.2915 56.1943 31.7192ZM62.7739 37V19.0215H66.2944V22.0293H66.3799C67.354 19.9785 69.2681 18.7139 72.0366 18.7139C76.0015 18.7139 78.2744 21.2432 78.2744 25.3618V37H74.5659V26.0796C74.5659 23.3794 73.3013 21.8926 70.7378 21.8926C68.1401 21.8926 66.4653 23.7383 66.4653 26.5239V37H62.7739ZM88.5967 37.3076C84.0508 37.3076 81.043 33.6846 81.043 28.0107C81.043 22.3369 84.0508 18.731 88.5625 18.731C91.1431 18.731 93.1938 20.0298 94.2021 22.0122H94.2705V12.3394H97.979V37H94.3901V33.9409H94.3218C93.2622 35.9917 91.2114 37.3076 88.5967 37.3076ZM89.5708 21.8413C86.6484 21.8413 84.8198 24.2339 84.8198 28.0107C84.8198 31.8047 86.6484 34.1802 89.5708 34.1802C92.4077 34.1802 94.3047 31.7705 94.3047 28.0107C94.3047 24.2852 92.4077 21.8413 89.5708 21.8413ZM104.542 37.188C103.294 37.188 102.303 36.1968 102.303 34.9492C102.303 33.7017 103.294 32.7104 104.542 32.7104C105.789 32.7104 106.78 33.7017 106.78 34.9492C106.78 36.1968 105.789 37.188 104.542 37.188ZM111.104 37V12.3394H114.761V22.0293H114.847C115.838 19.9272 117.803 18.7139 120.538 18.7139C124.485 18.7139 126.844 21.3457 126.844 25.4131V37H123.135V26.1309C123.135 23.4819 121.802 21.8926 119.205 21.8926C116.47 21.8926 114.795 23.7725 114.795 26.6094V37H111.104ZM145.831 19.0215V37H142.293V33.958H142.208C141.216 36.1113 139.388 37.3247 136.636 37.3247C132.723 37.3247 130.33 34.7783 130.33 30.6597V19.0215H134.021V29.9419C134.021 32.6763 135.32 34.146 137.867 34.146C140.533 34.146 142.139 32.3003 142.139 29.4976V19.0215H145.831ZM159.058 37.3076C156.426 37.3076 154.393 36.0259 153.282 33.9409H153.213V37H149.625V12.3394H153.316V22.0806H153.401C154.478 19.9956 156.529 18.731 159.075 18.731C163.604 18.731 166.561 22.3198 166.561 28.0107C166.561 33.7188 163.621 37.3076 159.058 37.3076ZM158.067 21.8413C155.264 21.8413 153.299 24.3022 153.299 28.0107C153.299 31.7534 155.264 34.1802 158.067 34.1802C160.972 34.1802 162.767 31.8218 162.767 28.0107C162.767 24.2339 160.972 21.8413 158.067 21.8413Z" fill="white"/>
<path d="M15.0078 37V21.9438H12.5298V19.0557H15.0078V17.2954C15.0078 13.8091 16.6484 12.1685 20.3057 12.1685C21.0576 12.1685 21.895 12.2539 22.3735 12.3394V15.0737C22.0146 15.0054 21.519 14.9712 21.0234 14.9712C19.417 14.9712 18.665 15.7744 18.665 17.3638V19.0557H22.3052V21.9438H18.7163V37H15.0078ZM25.2104 37V19.0215H28.731V22.0806H28.8164C29.4146 19.9785 31.021 18.731 33.1401 18.731C33.6699 18.731 34.1313 18.8164 34.4048 18.8677V22.3027C34.1143 22.1831 33.4648 22.0977 32.7471 22.0977C30.3716 22.0977 28.9019 23.687 28.9019 26.2334V37H25.2104ZM36.8145 37V19.0215H40.5059V37H36.8145ZM38.6602 16.3896C37.481 16.3896 36.5239 15.4497 36.5239 14.2876C36.5239 13.1084 37.481 12.1685 38.6602 12.1685C39.8564 12.1685 40.8135 13.1084 40.8135 14.2876C40.8135 15.4497 39.8564 16.3896 38.6602 16.3896ZM51.8022 21.6704C49.2217 21.6704 47.4102 23.6357 47.2222 26.353H56.2114C56.126 23.6016 54.3828 21.6704 51.8022 21.6704ZM56.1943 31.7192H59.6978C59.1851 35.0005 56.0747 37.3418 51.9561 37.3418C46.6753 37.3418 43.4795 33.77 43.4795 28.0962C43.4795 22.4565 46.7266 18.6968 51.8022 18.6968C56.7925 18.6968 59.9028 22.2173 59.9028 27.6689V28.9336H47.2051V29.1558C47.2051 32.2832 49.085 34.3511 52.0415 34.3511C54.1436 34.3511 55.6987 33.2915 56.1943 31.7192ZM62.7739 37V19.0215H66.2944V22.0293H66.3799C67.354 19.9785 69.2681 18.7139 72.0366 18.7139C76.0015 18.7139 78.2744 21.2432 78.2744 25.3618V37H74.5659V26.0796C74.5659 23.3794 73.3013 21.8926 70.7378 21.8926C68.1401 21.8926 66.4653 23.7383 66.4653 26.5239V37H62.7739ZM88.5967 37.3076C84.0508 37.3076 81.043 33.6846 81.043 28.0107C81.043 22.3369 84.0508 18.731 88.5625 18.731C91.1431 18.731 93.1938 20.0298 94.2021 22.0122H94.2705V12.3394H97.979V37H94.3901V33.9409H94.3218C93.2622 35.9917 91.2114 37.3076 88.5967 37.3076ZM89.5708 21.8413C86.6484 21.8413 84.8198 24.2339 84.8198 28.0107C84.8198 31.8047 86.6484 34.1802 89.5708 34.1802C92.4077 34.1802 94.3047 31.7705 94.3047 28.0107C94.3047 24.2852 92.4077 21.8413 89.5708 21.8413ZM104.542 37.188C103.294 37.188 102.303 36.1968 102.303 34.9492C102.303 33.7017 103.294 32.7104 104.542 32.7104C105.789 32.7104 106.78 33.7017 106.78 34.9492C106.78 36.1968 105.789 37.188 104.542 37.188ZM111.104 37V12.3394H114.761V22.0293H114.847C115.838 19.9272 117.803 18.7139 120.538 18.7139C124.485 18.7139 126.844 21.3457 126.844 25.4131V37H123.135V26.1309C123.135 23.4819 121.802 21.8926 119.205 21.8926C116.47 21.8926 114.795 23.7725 114.795 26.6094V37H111.104ZM145.831 19.0215V37H142.293V33.958H142.208C141.216 36.1113 139.388 37.3247 136.636 37.3247C132.723 37.3247 130.33 34.7783 130.33 30.6597V19.0215H134.021V29.9419C134.021 32.6763 135.32 34.146 137.867 34.146C140.533 34.146 142.139 32.3003 142.139 29.4976V19.0215H145.831ZM159.058 37.3076C156.426 37.3076 154.393 36.0259 153.282 33.9409H153.213V37H149.625V12.3394H153.316V22.0806H153.401C154.478 19.9956 156.529 18.731 159.075 18.731C163.604 18.731 166.561 22.3198 166.561 28.0107C166.561 33.7188 163.621 37.3076 159.058 37.3076ZM158.067 21.8413C155.264 21.8413 153.299 24.3022 153.299 28.0107C153.299 31.7534 155.264 34.1802 158.067 34.1802C160.972 34.1802 162.767 31.8218 162.767 28.0107C162.767 24.2339 160.972 21.8413 158.067 21.8413Z" fill="url(#paint0_linear_135_545)" fill-opacity="0.62"/>
</g>
<defs>
<filter id="filter0_ddi_135_545" x="0.98529" y="0.623961" width="177.12" height="48.2623" filterUnits="userSpaceOnUse" color-interpolation-filters="sRGB">
<feFlood flood-opacity="0" result="BackgroundImageFix"/>
<feColorMatrix in="SourceAlpha" type="matrix" values="0 0 0 0 0 0 0 0 0 0 0 0 0 0 0 0 0 0 127 0" result="hardAlpha"/>
<feOffset/>
<feGaussianBlur stdDeviation="5.77225"/>
<feComposite in2="hardAlpha" operator="out"/>
<feColorMatrix type="matrix" values="0 0 0 0 0.711538 0 0 0 0 0.0821006 0 0 0 0 0.51101 0 0 0 0.35 0"/>
<feBlend mode="plus-lighter" in2="BackgroundImageFix" result="effect1_dropShadow_135_545"/>
<feColorMatrix in="SourceAlpha" type="matrix" values="0 0 0 0 0 0 0 0 0 0 0 0 0 0 0 0 0 0 127 0" result="hardAlpha"/>
<feOffset/>
<feGaussianBlur stdDeviation="2.18787"/>
<feComposite in2="hardAlpha" operator="out"/>
<feColorMatrix type="matrix" values="0 0 0 0 0.903846 0 0 0 0 0.234652 0 0 0 0 0.690652 0 0 0 0.27 0"/>
<feBlend mode="plus-lighter" in2="effect1_dropShadow_135_545" result="effect2_dropShadow_135_545"/>
<feBlend mode="normal" in="SourceGraphic" in2="effect2_dropShadow_135_545" result="shape"/>
<feColorMatrix in="SourceAlpha" type="matrix" values="0 0 0 0 0 0 0 0 0 0 0 0 0 0 0 0 0 0 127 0" result="hardAlpha"/>
<feOffset dy="0.931008"/>
<feGaussianBlur stdDeviation="0.931008"/>
<feComposite in2="hardAlpha" operator="arithmetic" k2="-1" k3="1"/>
<feColorMatrix type="matrix" values="0 0 0 0 1 0 0 0 0 1 0 0 0 0 1 0 0 0 0.4 0"/>
<feBlend mode="normal" in2="shape" result="effect3_innerShadow_135_545"/>
</filter>
<linearGradient id="paint0_linear_135_545" x1="68.2078" y1="4.14394" x2="110.238" y2="46.0783" gradientUnits="userSpaceOnUse">
<stop stop-color="#B84794" stop-opacity="0"/>
<stop offset="1" stop-color="#B84794"/>
</linearGradient>
</defs>
</svg>
