<svg width="113" height="31" viewBox="0 0 113 31" fill="none" xmlns="http://www.w3.org/2000/svg">
<g filter="url(#filter0_ddi_169_528)">
<path d="M9.53383 22.8878V13.4169H7.97505V11.6002H9.53383V10.4929C9.53383 8.29985 10.5658 7.26784 12.8664 7.26784C13.3394 7.26784 13.8661 7.32159 14.1671 7.37534V9.09536C13.9414 9.05236 13.6296 9.03086 13.3179 9.03086C12.3074 9.03086 11.8344 9.53612 11.8344 10.5359V11.6002H14.1241V13.4169H11.8666V22.8878H9.53383ZM15.9517 22.8878V11.5787H18.1662V13.5029H18.22C18.5962 12.1807 19.6067 11.3959 20.9397 11.3959C21.273 11.3959 21.5633 11.4496 21.7353 11.4819V13.6427C21.5525 13.5674 21.144 13.5137 20.6925 13.5137C19.1982 13.5137 18.2737 14.5134 18.2737 16.1152V22.8878H15.9517ZM23.251 22.8878V11.5787H25.5731V22.8878H23.251ZM24.412 9.92313C23.6703 9.92313 23.0683 9.33187 23.0683 8.60086C23.0683 7.8591 23.6703 7.26784 24.412 7.26784C25.1646 7.26784 25.7666 7.8591 25.7666 8.60086C25.7666 9.33187 25.1646 9.92313 24.412 9.92313ZM32.6789 13.2449C31.0556 13.2449 29.9161 14.4812 29.7979 16.1905H35.4525C35.3987 14.4597 34.3022 13.2449 32.6789 13.2449ZM35.4417 19.566H37.6455C37.323 21.63 35.3665 23.1028 32.7757 23.1028C29.4539 23.1028 27.4436 20.856 27.4436 17.287C27.4436 13.7394 29.4861 11.3744 32.6789 11.3744C35.818 11.3744 37.7745 13.5889 37.7745 17.0182V17.8137H29.7871V17.9535C29.7871 19.9208 30.9696 21.2215 32.8294 21.2215C34.1517 21.2215 35.13 20.555 35.4417 19.566ZM39.5805 22.8878V11.5787H41.795V13.4707H41.8488C42.4616 12.1807 43.6656 11.3851 45.4071 11.3851C47.9011 11.3851 49.3309 12.9762 49.3309 15.567V22.8878H46.9981V16.0185C46.9981 14.3199 46.2026 13.3847 44.5901 13.3847C42.9561 13.3847 41.9026 14.5457 41.9026 16.298V22.8878H39.5805ZM55.824 23.0813C52.9645 23.0813 51.0724 20.8023 51.0724 17.2332C51.0724 13.6642 52.9645 11.3959 55.8025 11.3959C57.4258 11.3959 58.7158 12.2129 59.3501 13.4599H59.3931V7.37534H61.7258V22.8878H59.4683V20.9635H59.4253C58.7588 22.2536 57.4688 23.0813 55.824 23.0813ZM56.4368 13.3524C54.5985 13.3524 53.4482 14.8574 53.4482 17.2332C53.4482 19.6198 54.5985 21.114 56.4368 21.114C58.2213 21.114 59.4146 19.5983 59.4146 17.2332C59.4146 14.8897 58.2213 13.3524 56.4368 13.3524ZM65.8539 23.0061C65.0691 23.0061 64.4456 22.3826 64.4456 21.5978C64.4456 20.813 65.0691 20.1895 65.8539 20.1895C66.6387 20.1895 67.2622 20.813 67.2622 21.5978C67.2622 22.3826 66.6387 23.0061 65.8539 23.0061ZM69.982 22.8878V7.37534H72.2825V13.4707H72.3362C72.9598 12.1484 74.196 11.3851 75.9161 11.3851C78.3993 11.3851 79.8829 13.0407 79.8829 15.5992V22.8878H77.5501V16.0507C77.5501 14.3844 76.7116 13.3847 75.0775 13.3847C73.3575 13.3847 72.304 14.5672 72.304 16.3517V22.8878H69.982ZM91.8263 11.5787V22.8878H89.601V20.9743H89.5473C88.9237 22.3288 87.7735 23.0921 86.0427 23.0921C83.5809 23.0921 82.0759 21.4903 82.0759 18.8995V11.5787H84.3979V18.448C84.3979 20.168 85.2149 21.0925 86.8167 21.0925C88.4937 21.0925 89.5043 19.9315 89.5043 18.1685V11.5787H91.8263ZM100.147 23.0813C98.4914 23.0813 97.2121 22.2751 96.5133 20.9635H96.4703V22.8878H94.2128V7.37534H96.5348V13.5029H96.5886C97.2659 12.1914 98.5559 11.3959 100.158 11.3959C103.006 11.3959 104.866 13.6534 104.866 17.2332C104.866 20.8238 103.017 23.0813 100.147 23.0813ZM99.5234 13.3524C97.7604 13.3524 96.5241 14.9005 96.5241 17.2332C96.5241 19.5875 97.7604 21.114 99.5234 21.114C101.351 21.114 102.48 19.6305 102.48 17.2332C102.48 14.8574 101.351 13.3524 99.5234 13.3524Z" fill="white"/>
<path d="M9.53383 22.8878V13.4169H7.97505V11.6002H9.53383V10.4929C9.53383 8.29985 10.5658 7.26784 12.8664 7.26784C13.3394 7.26784 13.8661 7.32159 14.1671 7.37534V9.09536C13.9414 9.05236 13.6296 9.03086 13.3179 9.03086C12.3074 9.03086 11.8344 9.53612 11.8344 10.5359V11.6002H14.1241V13.4169H11.8666V22.8878H9.53383ZM15.9517 22.8878V11.5787H18.1662V13.5029H18.22C18.5962 12.1807 19.6067 11.3959 20.9397 11.3959C21.273 11.3959 21.5633 11.4496 21.7353 11.4819V13.6427C21.5525 13.5674 21.144 13.5137 20.6925 13.5137C19.1982 13.5137 18.2737 14.5134 18.2737 16.1152V22.8878H15.9517ZM23.251 22.8878V11.5787H25.5731V22.8878H23.251ZM24.412 9.92313C23.6703 9.92313 23.0683 9.33187 23.0683 8.60086C23.0683 7.8591 23.6703 7.26784 24.412 7.26784C25.1646 7.26784 25.7666 7.8591 25.7666 8.60086C25.7666 9.33187 25.1646 9.92313 24.412 9.92313ZM32.6789 13.2449C31.0556 13.2449 29.9161 14.4812 29.7979 16.1905H35.4525C35.3987 14.4597 34.3022 13.2449 32.6789 13.2449ZM35.4417 19.566H37.6455C37.323 21.63 35.3665 23.1028 32.7757 23.1028C29.4539 23.1028 27.4436 20.856 27.4436 17.287C27.4436 13.7394 29.4861 11.3744 32.6789 11.3744C35.818 11.3744 37.7745 13.5889 37.7745 17.0182V17.8137H29.7871V17.9535C29.7871 19.9208 30.9696 21.2215 32.8294 21.2215C34.1517 21.2215 35.13 20.555 35.4417 19.566ZM39.5805 22.8878V11.5787H41.795V13.4707H41.8488C42.4616 12.1807 43.6656 11.3851 45.4071 11.3851C47.9011 11.3851 49.3309 12.9762 49.3309 15.567V22.8878H46.9981V16.0185C46.9981 14.3199 46.2026 13.3847 44.5901 13.3847C42.9561 13.3847 41.9026 14.5457 41.9026 16.298V22.8878H39.5805ZM55.824 23.0813C52.9645 23.0813 51.0724 20.8023 51.0724 17.2332C51.0724 13.6642 52.9645 11.3959 55.8025 11.3959C57.4258 11.3959 58.7158 12.2129 59.3501 13.4599H59.3931V7.37534H61.7258V22.8878H59.4683V20.9635H59.4253C58.7588 22.2536 57.4688 23.0813 55.824 23.0813ZM56.4368 13.3524C54.5985 13.3524 53.4482 14.8574 53.4482 17.2332C53.4482 19.6198 54.5985 21.114 56.4368 21.114C58.2213 21.114 59.4146 19.5983 59.4146 17.2332C59.4146 14.8897 58.2213 13.3524 56.4368 13.3524ZM65.8539 23.0061C65.0691 23.0061 64.4456 22.3826 64.4456 21.5978C64.4456 20.813 65.0691 20.1895 65.8539 20.1895C66.6387 20.1895 67.2622 20.813 67.2622 21.5978C67.2622 22.3826 66.6387 23.0061 65.8539 23.0061ZM69.982 22.8878V7.37534H72.2825V13.4707H72.3362C72.9598 12.1484 74.196 11.3851 75.9161 11.3851C78.3993 11.3851 79.8829 13.0407 79.8829 15.5992V22.8878H77.5501V16.0507C77.5501 14.3844 76.7116 13.3847 75.0775 13.3847C73.3575 13.3847 72.304 14.5672 72.304 16.3517V22.8878H69.982ZM91.8263 11.5787V22.8878H89.601V20.9743H89.5473C88.9237 22.3288 87.7735 23.0921 86.0427 23.0921C83.5809 23.0921 82.0759 21.4903 82.0759 18.8995V11.5787H84.3979V18.448C84.3979 20.168 85.2149 21.0925 86.8167 21.0925C88.4937 21.0925 89.5043 19.9315 89.5043 18.1685V11.5787H91.8263ZM100.147 23.0813C98.4914 23.0813 97.2121 22.2751 96.5133 20.9635H96.4703V22.8878H94.2128V7.37534H96.5348V13.5029H96.5886C97.2659 12.1914 98.5559 11.3959 100.158 11.3959C103.006 11.3959 104.866 13.6534 104.866 17.2332C104.866 20.8238 103.017 23.0813 100.147 23.0813ZM99.5234 13.3524C97.7604 13.3524 96.5241 14.9005 96.5241 17.2332C96.5241 19.5875 97.7604 21.114 99.5234 21.114C101.351 21.114 102.48 19.6305 102.48 17.2332C102.48 14.8574 101.351 13.3524 99.5234 13.3524Z" fill="url(#paint0_linear_169_528)" fill-opacity="0.62"/>
</g>
<defs>
<filter id="filter0_ddi_169_528" x="0.713173" y="0.005898" width="111.415" height="30.3588" filterUnits="userSpaceOnUse" color-interpolation-filters="sRGB">
<feFlood flood-opacity="0" result="BackgroundImageFix"/>
<feColorMatrix in="SourceAlpha" type="matrix" values="0 0 0 0 0 0 0 0 0 0 0 0 0 0 0 0 0 0 127 0" result="hardAlpha"/>
<feOffset/>
<feGaussianBlur stdDeviation="3.63096"/>
<feComposite in2="hardAlpha" operator="out"/>
<feColorMatrix type="matrix" values="0 0 0 0 0.711538 0 0 0 0 0.0821006 0 0 0 0 0.51101 0 0 0 0.35 0"/>
<feBlend mode="plus-lighter" in2="BackgroundImageFix" result="effect1_dropShadow_169_528"/>
<feColorMatrix in="SourceAlpha" type="matrix" values="0 0 0 0 0 0 0 0 0 0 0 0 0 0 0 0 0 0 127 0" result="hardAlpha"/>
<feOffset/>
<feGaussianBlur stdDeviation="1.37625"/>
<feComposite in2="hardAlpha" operator="out"/>
<feColorMatrix type="matrix" values="0 0 0 0 0.903846 0 0 0 0 0.234652 0 0 0 0 0.690652 0 0 0 0.27 0"/>
<feBlend mode="plus-lighter" in2="effect1_dropShadow_169_528" result="effect2_dropShadow_169_528"/>
<feBlend mode="normal" in="SourceGraphic" in2="effect2_dropShadow_169_528" result="shape"/>
<feColorMatrix in="SourceAlpha" type="matrix" values="0 0 0 0 0 0 0 0 0 0 0 0 0 0 0 0 0 0 127 0" result="hardAlpha"/>
<feOffset dy="0.585639"/>
<feGaussianBlur stdDeviation="0.585639"/>
<feComposite in2="hardAlpha" operator="arithmetic" k2="-1" k3="1"/>
<feColorMatrix type="matrix" values="0 0 0 0 1 0 0 0 0 1 0 0 0 0 1 0 0 0 0.4 0"/>
<feBlend mode="normal" in2="shape" result="effect3_innerShadow_169_528"/>
</filter>
<linearGradient id="paint0_linear_169_528" x1="42.9519" y1="1.98035" x2="69.9628" y2="28.3154" gradientUnits="userSpaceOnUse">
<stop stop-color="#B84794" stop-opacity="0"/>
<stop offset="1" stop-color="#B84794"/>
</linearGradient>
</defs>
</svg>
