<svg width="350" height="351" viewBox="0 0 350 351" fill="none" xmlns="http://www.w3.org/2000/svg">
<circle cx="175.293" cy="176.337" r="174.075" fill="url(#paint0_linear_4005_1028)" stroke="#2E2E2E" stroke-width="0.123765"/>
<mask id="mask0_4005_1028" style="mask-type:alpha" maskUnits="userSpaceOnUse" x="0" y="0" width="350" height="349">
<circle cx="175.121" cy="174.137" r="174.075" fill="#FEDF89" stroke="#FEFFC1" stroke-width="0.123765"/>
</mask>
<g mask="url(#mask0_4005_1028)">
<g style="mix-blend-mode:plus-lighter" opacity="0.45" filter="url(#filter0_f_4005_1028)">
<ellipse cx="243.983" cy="160" rx="113" ry="74" fill="#FEC84B"/>
</g>
<path d="M160.363 55.1211C195.477 44.2887 232.917 55.2597 256.997 82.7656C257.179 82.976 257.412 83.1388 257.674 83.2383C259.077 83.7845 260.667 83.7928 262.244 84.1006C282.245 88.0293 297.667 103.498 302.693 122.873C307.42 141.081 302.037 160.739 288.006 173.531C286.367 175.026 285.181 176.129 284.448 176.84C284.434 176.853 284.415 176.862 284.396 176.864C284.376 176.867 284.357 176.862 284.34 176.853C284.323 176.843 284.308 176.829 284.3 176.811C284.292 176.793 284.29 176.772 284.295 176.753C284.79 174.553 285.14 172.548 285.346 170.738C287.57 151.112 273.369 134.524 253.286 134.988C245.2 135.173 238.274 138.018 232.508 143.522C229.131 146.746 224.591 151.268 218.886 157.087C220.733 158.59 222.536 160.074 224.297 161.536C228.453 164.994 231.775 169.124 234.26 173.926C237.83 180.835 239.413 188.197 239.011 196.011C238.403 207.751 233.716 217.442 224.949 225.083L157.158 292.743C157.052 292.849 156.926 292.934 156.787 292.991C156.649 293.048 156.5 293.076 156.351 293.076L117.578 293.076C117.548 293.077 117.518 293.068 117.492 293.052C117.467 293.035 117.446 293.012 117.435 292.984C117.423 292.957 117.421 292.925 117.427 292.896C117.433 292.866 117.448 292.839 117.47 292.817L205.5 205.005C209.914 200.932 211.404 195.979 209.971 190.148C209.106 186.623 206.895 184.251 203.637 181.68C201.957 180.356 200.343 178.961 198.797 177.498C198.741 177.446 198.667 177.417 198.591 177.418C198.515 177.419 198.443 177.45 198.39 177.503L183.262 192.481L82.502 292.774C82.2963 292.979 82.0175 293.095 81.7285 293.095L69.4531 293.095C69.3502 293.095 69.25 293.054 69.1768 292.981C69.1041 292.909 69.0637 292.811 69.0625 292.709C69.0046 283.496 68.9936 274.72 69.0313 266.383C69.0356 265.281 69.175 264.808 70.0176 263.971C91.9644 242.15 122.998 211.22 163.118 171.181C164.007 170.296 164.902 169.417 165.803 168.544L173.583 160.902C173.619 160.867 173.649 160.825 173.667 160.778C173.685 160.731 173.692 160.68 173.689 160.63C173.687 160.579 173.675 160.53 173.652 160.484C173.629 160.439 173.596 160.399 173.557 160.366C171.841 158.953 169.721 157.221 167.605 156.432C161.903 154.313 156.406 154.908 151.115 158.215C150.223 158.77 148.969 159.871 147.356 161.519C143.412 165.54 139.447 169.525 135.459 173.474L69.2656 239.578C69.2466 239.596 69.223 239.609 69.1973 239.614C69.1716 239.619 69.145 239.616 69.1211 239.606C69.0975 239.597 69.0767 239.581 69.0625 239.561C69.0483 239.54 69.0409 239.514 69.041 239.488C69.0207 233.562 69.0098 221.349 69.0098 202.85C69.0098 202.035 69.0658 201.32 69.1787 200.707C69.2071 200.566 69.275 200.436 69.374 200.334L108.76 161.098C114.187 155.68 119.614 150.292 125.041 144.933C130.196 139.839 133.155 136.976 133.917 136.346C137.129 133.701 140.664 131.598 144.521 130.037C157.148 124.923 169.499 125.202 181.572 130.874C186.399 133.142 190.648 136.432 194.158 140.344C194.174 140.361 194.193 140.377 194.214 140.387C194.235 140.397 194.258 140.402 194.281 140.403C194.304 140.404 194.327 140.4 194.349 140.392C194.37 140.383 194.389 140.37 194.404 140.354L197.051 137.683L234.745 100.384C234.763 100.366 234.777 100.344 234.786 100.32C234.795 100.296 234.799 100.27 234.797 100.244C234.795 100.219 234.788 100.194 234.775 100.172C234.763 100.15 234.745 100.129 234.725 100.114C233.321 99.1039 231.744 97.2006 230.172 95.8867C216.753 84.6511 200.121 79.0372 182.549 80.3164C169.763 81.2446 158.015 85.7081 147.306 93.707C144.355 96.0284 140.896 99.1546 136.932 103.086C114.168 125.676 91.6051 148.085 69.2441 170.313C69.2287 170.328 69.2094 170.339 69.1885 170.343C69.1676 170.347 69.1454 170.345 69.126 170.337C69.1068 170.329 69.0904 170.316 69.0791 170.299C69.0677 170.282 69.0619 170.26 69.0625 170.239C69.0046 156.085 68.9866 143.43 69.0098 132.274C69.0127 131.679 69.2077 131.165 69.5928 130.731C70.4326 129.789 71.2395 128.93 72.0156 128.158C73.1704 127.011 89.5306 110.712 121.096 79.2617C122.949 77.4145 125.411 75.1674 128.478 72.5195C138.113 64.506 148.741 58.7059 160.363 55.1211Z" fill="white"/>
<path d="M160.363 55.1211C195.477 44.2887 232.917 55.2597 256.997 82.7656C257.179 82.976 257.412 83.1388 257.674 83.2383C259.077 83.7845 260.667 83.7928 262.244 84.1006C282.245 88.0293 297.667 103.498 302.693 122.873C307.42 141.081 302.037 160.739 288.006 173.531C286.367 175.026 285.181 176.129 284.448 176.84C284.434 176.853 284.415 176.862 284.396 176.864C284.376 176.867 284.357 176.862 284.34 176.853C284.323 176.843 284.308 176.829 284.3 176.811C284.292 176.793 284.29 176.772 284.295 176.753C284.79 174.553 285.14 172.548 285.346 170.738C287.57 151.112 273.369 134.524 253.286 134.988C245.2 135.173 238.274 138.018 232.508 143.522C229.131 146.746 224.591 151.268 218.886 157.087C220.733 158.59 222.536 160.074 224.297 161.536C228.453 164.994 231.775 169.124 234.26 173.926C237.83 180.835 239.413 188.197 239.011 196.011C238.403 207.751 233.716 217.442 224.949 225.083L157.158 292.743C157.052 292.849 156.926 292.934 156.787 292.991C156.649 293.048 156.5 293.076 156.351 293.076L117.578 293.076C117.548 293.077 117.518 293.068 117.492 293.052C117.467 293.035 117.446 293.012 117.435 292.984C117.423 292.957 117.421 292.925 117.427 292.896C117.433 292.866 117.448 292.839 117.47 292.817L205.5 205.005C209.914 200.932 211.404 195.979 209.971 190.148C209.106 186.623 206.895 184.251 203.637 181.68C201.957 180.356 200.343 178.961 198.797 177.498C198.741 177.446 198.667 177.417 198.591 177.418C198.515 177.419 198.443 177.45 198.39 177.503L183.262 192.481L82.502 292.774C82.2963 292.979 82.0175 293.095 81.7285 293.095L69.4531 293.095C69.3502 293.095 69.25 293.054 69.1768 292.981C69.1041 292.909 69.0637 292.811 69.0625 292.709C69.0046 283.496 68.9936 274.72 69.0313 266.383C69.0356 265.281 69.175 264.808 70.0176 263.971C91.9644 242.15 122.998 211.22 163.118 171.181C164.007 170.296 164.902 169.417 165.803 168.544L173.583 160.902C173.619 160.867 173.649 160.825 173.667 160.778C173.685 160.731 173.692 160.68 173.689 160.63C173.687 160.579 173.675 160.53 173.652 160.484C173.629 160.439 173.596 160.399 173.557 160.366C171.841 158.953 169.721 157.221 167.605 156.432C161.903 154.313 156.406 154.908 151.115 158.215C150.223 158.77 148.969 159.871 147.356 161.519C143.412 165.54 139.447 169.525 135.459 173.474L69.2656 239.578C69.2466 239.596 69.223 239.609 69.1973 239.614C69.1716 239.619 69.145 239.616 69.1211 239.606C69.0975 239.597 69.0767 239.581 69.0625 239.561C69.0483 239.54 69.0409 239.514 69.041 239.488C69.0207 233.562 69.0098 221.349 69.0098 202.85C69.0098 202.035 69.0658 201.32 69.1787 200.707C69.2071 200.566 69.275 200.436 69.374 200.334L108.76 161.098C114.187 155.68 119.614 150.292 125.041 144.933C130.196 139.839 133.155 136.976 133.917 136.346C137.129 133.701 140.664 131.598 144.521 130.037C157.148 124.923 169.499 125.202 181.572 130.874C186.399 133.142 190.648 136.432 194.158 140.344C194.174 140.361 194.193 140.377 194.214 140.387C194.235 140.397 194.258 140.402 194.281 140.403C194.304 140.404 194.327 140.4 194.349 140.392C194.37 140.383 194.389 140.37 194.404 140.354L197.051 137.683L234.745 100.384C234.763 100.366 234.777 100.344 234.786 100.32C234.795 100.296 234.799 100.27 234.797 100.244C234.795 100.219 234.788 100.194 234.775 100.172C234.763 100.15 234.745 100.129 234.725 100.114C233.321 99.1039 231.744 97.2006 230.172 95.8867C216.753 84.6511 200.121 79.0372 182.549 80.3164C169.763 81.2446 158.015 85.7081 147.306 93.707C144.355 96.0284 140.896 99.1546 136.932 103.086C114.168 125.676 91.6051 148.085 69.2441 170.313C69.2287 170.328 69.2094 170.339 69.1885 170.343C69.1676 170.347 69.1454 170.345 69.126 170.337C69.1068 170.329 69.0904 170.316 69.0791 170.299C69.0677 170.282 69.0619 170.26 69.0625 170.239C69.0046 156.085 68.9866 143.43 69.0098 132.274C69.0127 131.679 69.2077 131.165 69.5928 130.731C70.4326 129.789 71.2395 128.93 72.0156 128.158C73.1704 127.011 89.5306 110.712 121.096 79.2617C122.949 77.4145 125.411 75.1674 128.478 72.5195C138.113 64.506 148.741 58.7059 160.363 55.1211Z" stroke="white"/>
</g>
<defs>
<filter id="filter0_f_4005_1028" x="0.983398" y="-44" width="486" height="408" filterUnits="userSpaceOnUse" color-interpolation-filters="sRGB">
<feFlood flood-opacity="0" result="BackgroundImageFix"/>
<feBlend mode="normal" in="SourceGraphic" in2="BackgroundImageFix" result="shape"/>
<feGaussianBlur stdDeviation="65" result="effect1_foregroundBlur_4005_1028"/>
</filter>
<linearGradient id="paint0_linear_4005_1028" x1="175.293" y1="2.19922" x2="175.293" y2="350.474" gradientUnits="userSpaceOnUse">
<stop stop-color="#2E2E2E"/>
<stop offset="1"/>
</linearGradient>
</defs>
</svg>
