<svg width="356" height="349" viewBox="0 0 356 349" fill="none" xmlns="http://www.w3.org/2000/svg">
<circle cx="181.305" cy="174.337" r="174.075" fill="url(#paint0_linear_4189_621)" stroke="#2E2E2E" stroke-width="0.123765"/>
<mask id="mask0_4189_621" style="mask-type:alpha" maskUnits="userSpaceOnUse" x="7" y="0" width="349" height="349">
<circle cx="181.306" cy="174.337" r="174.075" fill="#FEDF89" stroke="#FEFFC1" stroke-width="0.123765"/>
</mask>
<g mask="url(#mask0_4189_621)">
<g style="mix-blend-mode:plus-lighter" opacity="0.45" filter="url(#filter0_f_4189_621)">
<ellipse cx="249.996" cy="158" rx="113" ry="74" fill="#FEC84B"/>
</g>
</g>
<mask id="mask1_4189_621" style="mask-type:alpha" maskUnits="userSpaceOnUse" x="0" y="34" width="307" height="315">
<path d="M118.877 39.3623C164.566 25.2678 213.28 39.5429 244.611 75.332C244.848 75.6056 245.15 75.8178 245.491 75.9473C247.317 76.6581 249.387 76.6678 251.438 77.0684C277.462 82.1803 297.529 102.308 304.069 127.518C310.219 151.209 303.215 176.786 284.958 193.431C282.826 195.375 281.283 196.81 280.329 197.735C280.311 197.753 280.286 197.764 280.261 197.768C280.235 197.771 280.21 197.765 280.188 197.753C280.165 197.74 280.147 197.721 280.137 197.697C280.127 197.674 280.124 197.647 280.13 197.622C280.774 194.76 281.23 192.152 281.497 189.798C284.391 164.261 265.914 142.678 239.783 143.281C229.262 143.522 220.25 147.223 212.747 154.385C208.353 158.579 202.446 164.463 195.022 172.034C197.426 173.99 199.773 175.921 202.063 177.824C207.471 182.323 211.793 187.696 215.026 193.943C219.673 202.933 221.733 212.513 221.209 222.681C220.418 237.956 214.319 250.565 202.912 260.507L114.707 348.543C114.569 348.681 114.405 348.791 114.225 348.865C114.045 348.94 113.851 348.976 113.656 348.977L63.207 348.977C63.1676 348.977 63.1287 348.966 63.0957 348.944C63.0629 348.923 63.0357 348.893 63.0205 348.856C63.0056 348.82 63.0022 348.779 63.0098 348.741C63.0177 348.703 63.0373 348.666 63.0654 348.639L177.606 234.383C183.349 229.083 185.288 222.639 183.423 215.052C182.298 210.465 179.421 207.379 175.182 204.033C172.996 202.31 170.896 200.495 168.884 198.592C168.811 198.525 168.716 198.486 168.617 198.487C168.518 198.488 168.424 198.529 168.354 198.599L148.671 218.088L17.5684 348.583C17.3008 348.85 16.9384 349 16.5625 349L0.589848 349C0.455901 349 0.325715 348.947 0.230473 348.853C0.135861 348.759 0.0826088 348.631 0.0810586 348.498C0.00569303 336.51 -0.00894431 325.091 0.0400426 314.243C0.0457242 312.81 0.22783 312.194 1.32422 311.105C29.8803 282.713 70.2601 242.469 122.462 190.372C123.619 189.221 124.782 188.077 125.954 186.941L136.078 176.999C136.125 176.953 136.163 176.898 136.187 176.837C136.21 176.776 136.22 176.71 136.217 176.645C136.214 176.579 136.198 176.513 136.168 176.454C136.138 176.395 136.095 176.343 136.044 176.301C133.811 174.461 131.052 172.209 128.3 171.183C120.88 168.426 113.728 169.199 106.844 173.502C105.683 174.224 104.053 175.657 101.954 177.801C96.8218 183.033 91.6614 188.218 86.4727 193.356L0.345706 279.367C0.320836 279.391 0.289512 279.408 0.255862 279.414C0.222633 279.42 0.189145 279.416 0.158206 279.403C0.12721 279.391 0.0996247 279.371 0.0810578 279.344C0.0625451 279.316 0.0534744 279.283 0.053714 279.25C0.027336 271.539 0.0126982 255.648 0.0126978 231.578C0.012709 230.518 0.0854811 229.587 0.232424 228.79C0.269429 228.606 0.358413 228.437 0.487307 228.305L51.7334 177.254C58.7949 170.205 65.8565 163.193 72.918 156.22C79.6254 149.592 83.4757 145.868 84.4668 145.048C88.6457 141.606 93.2455 138.869 98.2646 136.838C114.694 130.184 130.763 130.548 146.473 137.928C152.752 140.879 158.282 145.16 162.849 150.249C162.869 150.272 162.894 150.291 162.922 150.305C162.949 150.318 162.979 150.325 163.009 150.326C163.039 150.327 163.069 150.323 163.097 150.312C163.124 150.3 163.15 150.283 163.17 150.262L166.613 146.786L215.659 98.2559C215.683 98.2323 215.701 98.203 215.712 98.1719C215.723 98.1408 215.727 98.1071 215.725 98.0742C215.722 98.0415 215.713 98.0092 215.697 97.9805C215.681 97.9514 215.658 97.9249 215.631 97.9053C213.805 96.5906 211.753 94.1138 209.707 92.4043C192.247 77.7853 170.608 70.4802 147.744 72.1445C131.108 73.3521 115.822 79.1597 101.888 89.5674C98.0479 92.5878 93.5474 96.6559 88.3887 101.771C58.77 131.164 29.4132 160.322 0.318361 189.244C0.298295 189.263 0.272421 189.277 0.245119 189.282C0.21793 189.287 0.189288 189.285 0.164064 189.274C0.139001 189.264 0.117312 189.247 0.102541 189.225C0.0878734 189.202 0.0803306 189.175 0.0810566 189.148C0.00569132 170.732 -0.0174482 154.266 0.0126966 139.75C0.0164648 138.975 0.270348 138.306 0.771486 137.742C1.86418 136.516 2.91402 135.399 3.92383 134.395C5.4264 132.902 26.7136 111.695 67.7842 70.7734C70.1957 68.37 73.3984 65.4453 77.3887 62C89.9255 51.5732 103.755 44.0266 118.877 39.3623Z" fill="#0A0B1B"/>
<path d="M118.877 39.3623C164.566 25.2678 213.28 39.5429 244.611 75.332C244.848 75.6056 245.15 75.8178 245.491 75.9473C247.317 76.6581 249.387 76.6678 251.438 77.0684C277.462 82.1803 297.529 102.308 304.069 127.518C310.219 151.209 303.215 176.786 284.958 193.431C282.826 195.375 281.283 196.81 280.329 197.735C280.311 197.753 280.286 197.764 280.261 197.768C280.235 197.771 280.21 197.765 280.188 197.753C280.165 197.74 280.147 197.721 280.137 197.697C280.127 197.674 280.124 197.647 280.13 197.622C280.774 194.76 281.23 192.152 281.497 189.798C284.391 164.261 265.914 142.678 239.783 143.281C229.262 143.522 220.25 147.223 212.747 154.385C208.353 158.579 202.446 164.463 195.022 172.034C197.426 173.99 199.773 175.921 202.063 177.824C207.471 182.323 211.793 187.696 215.026 193.943C219.673 202.933 221.733 212.513 221.209 222.681C220.418 237.956 214.319 250.565 202.912 260.507L114.707 348.543C114.569 348.681 114.405 348.791 114.225 348.865C114.045 348.94 113.851 348.976 113.656 348.977L63.207 348.977C63.1676 348.977 63.1287 348.966 63.0957 348.944C63.0629 348.923 63.0357 348.893 63.0205 348.856C63.0056 348.82 63.0022 348.779 63.0098 348.741C63.0177 348.703 63.0373 348.666 63.0654 348.639L177.606 234.383C183.349 229.083 185.288 222.639 183.423 215.052C182.298 210.465 179.421 207.379 175.182 204.033C172.996 202.31 170.896 200.495 168.884 198.592C168.811 198.525 168.716 198.486 168.617 198.487C168.518 198.488 168.424 198.529 168.354 198.599L148.671 218.088L17.5684 348.583C17.3008 348.85 16.9384 349 16.5625 349L0.589848 349C0.455901 349 0.325715 348.947 0.230473 348.853C0.135861 348.759 0.0826088 348.631 0.0810586 348.498C0.00569303 336.51 -0.00894431 325.091 0.0400426 314.243C0.0457242 312.81 0.22783 312.194 1.32422 311.105C29.8803 282.713 70.2601 242.469 122.462 190.372C123.619 189.221 124.782 188.077 125.954 186.941L136.078 176.999C136.125 176.953 136.163 176.898 136.187 176.837C136.21 176.776 136.22 176.71 136.217 176.645C136.214 176.579 136.198 176.513 136.168 176.454C136.138 176.395 136.095 176.343 136.044 176.301C133.811 174.461 131.052 172.209 128.3 171.183C120.88 168.426 113.728 169.199 106.844 173.502C105.683 174.224 104.053 175.657 101.954 177.801C96.8218 183.033 91.6614 188.218 86.4727 193.356L0.345706 279.367C0.320836 279.391 0.289512 279.408 0.255862 279.414C0.222633 279.42 0.189145 279.416 0.158206 279.403C0.12721 279.391 0.0996247 279.371 0.0810578 279.344C0.0625451 279.316 0.0534744 279.283 0.053714 279.25C0.027336 271.539 0.0126982 255.648 0.0126978 231.578C0.012709 230.518 0.0854811 229.587 0.232424 228.79C0.269429 228.606 0.358413 228.437 0.487307 228.305L51.7334 177.254C58.7949 170.205 65.8565 163.193 72.918 156.22C79.6254 149.592 83.4757 145.868 84.4668 145.048C88.6457 141.606 93.2455 138.869 98.2646 136.838C114.694 130.184 130.763 130.548 146.473 137.928C152.752 140.879 158.282 145.16 162.849 150.249C162.869 150.272 162.894 150.291 162.922 150.305C162.949 150.318 162.979 150.325 163.009 150.326C163.039 150.327 163.069 150.323 163.097 150.312C163.124 150.3 163.15 150.283 163.17 150.262L166.613 146.786L215.659 98.2559C215.683 98.2323 215.701 98.203 215.712 98.1719C215.723 98.1408 215.727 98.1071 215.725 98.0742C215.722 98.0415 215.713 98.0092 215.697 97.9805C215.681 97.9514 215.658 97.9249 215.631 97.9053C213.805 96.5906 211.753 94.1138 209.707 92.4043C192.247 77.7853 170.608 70.4802 147.744 72.1445C131.108 73.3521 115.822 79.1597 101.888 89.5674C98.0479 92.5878 93.5474 96.6559 88.3887 101.771C58.77 131.164 29.4132 160.322 0.318361 189.244C0.298295 189.263 0.272421 189.277 0.245119 189.282C0.21793 189.287 0.189288 189.285 0.164064 189.274C0.139001 189.264 0.117312 189.247 0.102541 189.225C0.0878734 189.202 0.0803306 189.175 0.0810566 189.148C0.00569132 170.732 -0.0174482 154.266 0.0126966 139.75C0.0164648 138.975 0.270348 138.306 0.771486 137.742C1.86418 136.516 2.91402 135.399 3.92383 134.395C5.4264 132.902 26.7136 111.695 67.7842 70.7734C70.1957 68.37 73.3984 65.4453 77.3887 62C89.9255 51.5732 103.755 44.0266 118.877 39.3623Z" stroke="white"/>
</mask>
<g mask="url(#mask1_4189_621)">
<circle cx="182.135" cy="174.135" r="174.135" fill="white"/>
</g>
<defs>
<filter id="filter0_f_4189_621" x="6.99609" y="-46" width="486" height="408" filterUnits="userSpaceOnUse" color-interpolation-filters="sRGB">
<feFlood flood-opacity="0" result="BackgroundImageFix"/>
<feBlend mode="normal" in="SourceGraphic" in2="BackgroundImageFix" result="shape"/>
<feGaussianBlur stdDeviation="65" result="effect1_foregroundBlur_4189_621"/>
</filter>
<linearGradient id="paint0_linear_4189_621" x1="181.305" y1="0.199219" x2="181.305" y2="348.474" gradientUnits="userSpaceOnUse">
<stop stop-color="#2E2E2E"/>
<stop offset="1"/>
</linearGradient>
</defs>
</svg>
