<svg width="24" height="24" viewBox="0 0 24 24" fill="none" xmlns="http://www.w3.org/2000/svg">
<path d="M20.4286 3.95197C18.8581 2.38159 16.8624 1.30505 14.6876 0.85498C12.5127 0.404907 10.2537 0.601045 8.1889 1.41913C6.12413 2.23721 4.34382 3.64154 3.06739 5.45904C1.79097 7.27653 1.07423 9.42773 1.00546 11.6476C0.93669 13.8675 1.51892 16.059 2.6804 17.952C3.84187 19.845 5.53182 21.3569 7.542 22.3012C9.55218 23.2455 11.7947 23.581 13.9933 23.2664C16.1918 22.9518 18.2503 22.0009 19.915 20.5307C20.0916 20.3746 20.2642 20.2144 20.4286 20.05C20.5929 19.8857 20.7573 19.7131 20.9093 19.5364C22.824 17.3638 23.8399 14.5437 23.7506 11.6491C23.6614 8.75452 22.4736 6.00246 20.4286 3.95197ZM19.2288 4.81073C20.8312 6.41313 19.2987 10.7149 15.8104 14.4374L12.3755 10.9985C11.7307 10.3516 11.3686 9.47544 11.3686 8.56205C11.3686 7.64865 11.7307 6.77242 12.3755 6.1255C12.4748 6.02697 12.5805 5.93505 12.6918 5.85025C12.9548 5.6859 13.2424 5.52158 13.5136 5.36956L13.5423 5.34077C16.1185 4.00544 18.2304 3.8082 19.2329 4.81073H19.2288ZM16.402 2.87142C14.5473 3.23111 12.7924 3.98798 11.2579 5.09009C11.2579 5.09009 11.2332 5.09009 11.2291 5.09009L11.0606 5.20515L11.0196 5.23394C10.2684 5.70415 9.38049 5.90682 8.49972 5.80912C7.61895 5.71142 6.79703 5.31906 6.16719 4.69567L5.88778 4.41631C7.31844 3.19596 9.0642 2.40369 10.9247 2.13043C12.7852 1.85717 14.685 2.11399 16.4061 2.87142H16.402ZM3.25407 16.0193C2.49481 14.2885 2.24161 12.3779 2.52376 10.509C2.80591 8.64009 3.61186 6.8895 4.84826 5.45994L5.12768 5.73931C5.75495 6.36123 6.15168 7.17823 6.25251 8.05578C6.35333 8.93333 6.15222 9.81908 5.68234 10.5671L5.64127 10.6328C5.58964 10.6986 5.54165 10.7672 5.49747 10.8382C4.38178 12.3811 3.61744 14.1495 3.25819 16.0193H3.25407ZM5.18932 18.8461C4.17446 17.8312 4.41277 15.6002 5.80974 13.0323C5.92889 12.8227 6.03157 12.6215 6.13429 12.4612C6.24986 12.301 6.37763 12.1498 6.51643 12.0092C7.16405 11.3642 8.04086 11.002 8.95493 11.002C9.869 11.002 10.7459 11.3642 11.3935 12.0092L14.8201 15.4318C11.0976 18.9201 6.79583 20.4485 5.19343 18.8461H5.18932ZM7.74082 20.8265C10.1157 20.5553 13.0822 19.0105 15.8145 16.4261L18.9206 19.5323C17.4037 20.8462 15.526 21.6725 13.5325 21.9034C11.5389 22.1342 9.52203 21.759 7.74493 20.8265H7.74082ZM19.915 18.5379L16.8087 15.4318C19.389 12.6954 20.9175 9.73707 21.2092 7.35812C22.142 9.13559 22.5178 11.1528 22.2877 13.1469C22.0576 15.1411 21.2322 17.0196 19.9191 18.5379H19.915Z" fill="#B84794" stroke="#B84794" stroke-width="0.5"/>
</svg>
