<svg width="404" height="115" viewBox="0 0 404 115" fill="none" xmlns="http://www.w3.org/2000/svg">
<rect x="1.57092" y="1.10046" width="401.429" height="112.844" rx="56.4221" fill="#0F0E20" fill-opacity="0.39"/>
<rect x="1.10845" y="0.637988" width="402.354" height="113.769" rx="56.8846" stroke="url(#paint0_radial_337_509)" stroke-opacity="0.3" stroke-width="0.924953" style="mix-blend-mode:soft-light"/>
<rect x="12.1315" y="11.7413" width="380.306" height="91.9073" rx="45.9536" fill="#B84794" fill-opacity="0.09"/>
<rect x="12.1315" y="11.7413" width="380.306" height="91.9073" rx="45.9536" fill="url(#paint1_linear_337_509)" fill-opacity="0.14"/>
<rect x="12.1315" y="11.7413" width="380.306" height="91.9073" rx="45.9536" fill="url(#paint2_linear_337_509)" fill-opacity="0.46" style="mix-blend-mode:overlay"/>
<rect x="12.6726" y="12.2824" width="379.224" height="90.8251" rx="45.4125" stroke="url(#paint3_linear_337_509)" stroke-opacity="0.02" stroke-width="1.0822"/>
<rect x="12.6726" y="12.2824" width="379.224" height="90.8251" rx="45.4125" stroke="url(#paint4_linear_337_509)" stroke-opacity="0.29" stroke-width="1.0822" style="mix-blend-mode:overlay"/>
<g filter="url(#filter1_ddi_337_509)">
<path d="M84.0005 70.124V74.6949H62.4182V40.6958H84.0005V45.2431H67.696V55.1861H83.1287V59.5685H67.696V70.124H84.0005ZM88.8071 74.6949V49.9083H93.6607V54.0551H93.7785C95.1215 51.2277 97.7604 49.4842 101.577 49.4842C107.044 49.4842 110.177 52.9713 110.177 58.6496V74.6949H105.064V59.6392C105.064 55.9165 103.321 53.8666 99.7867 53.8666C96.2054 53.8666 93.8963 56.4112 93.8963 60.2518V74.6949H88.8071ZM116.586 44.0415H121.699V49.9083H126.411V53.9373H121.699V67.6029C121.699 69.747 122.641 70.7131 124.715 70.7131C125.233 70.7131 126.058 70.6659 126.388 70.5953V74.6243C125.822 74.7656 124.691 74.8599 123.56 74.8599C118.542 74.8599 116.586 72.9514 116.586 68.1684V53.9373H112.981V49.9083H116.586V44.0415ZM140.36 53.5603C136.802 53.5603 134.304 56.2699 134.045 60.0162H146.438C146.321 56.2228 143.917 53.5603 140.36 53.5603ZM146.415 67.4145H151.245C150.538 71.9383 146.25 75.1662 140.572 75.1662C133.291 75.1662 128.885 70.2418 128.885 62.4194C128.885 54.6441 133.362 49.4606 140.36 49.4606C147.239 49.4606 151.528 54.3143 151.528 61.8304V63.5739H134.022V63.8802C134.022 68.192 136.613 71.0429 140.689 71.0429C143.587 71.0429 145.732 69.5821 146.415 67.4145ZM155.486 74.6949V49.9083H160.34V54.1258H160.457C161.282 51.2277 163.497 49.5077 166.419 49.5077C167.149 49.5077 167.785 49.6255 168.162 49.6962V54.4321C167.762 54.2672 166.866 54.1493 165.877 54.1493C162.602 54.1493 160.575 56.3406 160.575 59.8512V74.6949H155.486ZM181.733 40.6958H194.48C201.077 40.6958 205.672 45.2431 205.672 51.8639C205.672 58.5082 200.983 63.0791 194.315 63.0791H187.011V74.6949H181.733V40.6958ZM187.011 45.1489V58.6496H193.067C197.661 58.6496 200.276 56.1756 200.276 51.8874C200.276 47.5993 197.661 45.1489 193.09 45.1489H187.011ZM219.243 75.1662C212.151 75.1662 207.486 70.289 207.486 62.3016C207.486 54.3378 212.175 49.4606 219.243 49.4606C226.312 49.4606 231.001 54.3378 231.001 62.3016C231.001 70.289 226.335 75.1662 219.243 75.1662ZM219.243 70.9722C223.249 70.9722 225.817 67.815 225.817 62.3016C225.817 56.8118 223.225 53.6546 219.243 53.6546C215.261 53.6546 212.67 56.8118 212.67 62.3016C212.67 67.815 215.261 70.9722 219.243 70.9722ZM234.488 56.9296C234.488 52.5 238.399 49.4606 244.195 49.4606C249.708 49.4606 253.572 52.5472 253.737 56.9532H248.954C248.719 54.7148 246.905 53.3247 244.054 53.3247C241.297 53.3247 239.459 54.6677 239.459 56.6233C239.459 58.1548 240.684 59.1915 243.252 59.8277L247.423 60.7937C252.418 61.9953 254.303 63.8802 254.303 67.5323C254.303 72.0561 250.085 75.1662 244.006 75.1662C238.14 75.1662 234.252 72.1267 233.851 67.5794H238.894C239.294 69.9591 241.132 71.2785 244.242 71.2785C247.305 71.2785 249.19 70.0062 249.19 68.0035C249.19 66.4249 248.248 65.5531 245.656 64.8934L241.226 63.8095C236.75 62.7257 234.488 60.3931 234.488 56.9296ZM258.426 74.6949V49.9083H263.515V74.6949H258.426ZM260.971 46.2798C259.345 46.2798 258.026 44.9839 258.026 43.3818C258.026 41.756 259.345 40.4601 260.971 40.4601C262.62 40.4601 263.939 41.756 263.939 43.3818C263.939 44.9839 262.62 46.2798 260.971 46.2798ZM270.207 44.0415H275.32V49.9083H280.032V53.9373H275.32V67.6029C275.32 69.747 276.262 70.7131 278.335 70.7131C278.854 70.7131 279.678 70.6659 280.008 70.5953V74.6243C279.443 74.7656 278.312 74.8599 277.181 74.8599C272.162 74.8599 270.207 72.9514 270.207 68.1684V53.9373H266.602V49.9083H270.207V44.0415ZM284.391 74.6949V49.9083H289.48V74.6949H284.391ZM286.935 46.2798C285.31 46.2798 283.99 44.9839 283.99 43.3818C283.99 41.756 285.31 40.4601 286.935 40.4601C288.585 40.4601 289.904 41.756 289.904 43.3818C289.904 44.9839 288.585 46.2798 286.935 46.2798ZM305.337 75.1662C298.245 75.1662 293.58 70.289 293.58 62.3016C293.58 54.3378 298.268 49.4606 305.337 49.4606C312.405 49.4606 317.094 54.3378 317.094 62.3016C317.094 70.289 312.429 75.1662 305.337 75.1662ZM305.337 70.9722C309.342 70.9722 311.911 67.815 311.911 62.3016C311.911 56.8118 309.319 53.6546 305.337 53.6546C301.355 53.6546 298.763 56.8118 298.763 62.3016C298.763 67.815 301.355 70.9722 305.337 70.9722ZM321.029 74.6949V49.9083H325.883V54.0551H326C327.343 51.2277 329.982 49.4842 333.799 49.4842C339.265 49.4842 342.399 52.9713 342.399 58.6496V74.6949H337.286V59.6392C337.286 55.9165 335.543 53.8666 332.009 53.8666C328.427 53.8666 326.118 56.4112 326.118 60.2518V74.6949H321.029Z" fill="white"/>
<path d="M84.0005 70.124V74.6949H62.4182V40.6958H84.0005V45.2431H67.696V55.1861H83.1287V59.5685H67.696V70.124H84.0005ZM88.8071 74.6949V49.9083H93.6607V54.0551H93.7785C95.1215 51.2277 97.7604 49.4842 101.577 49.4842C107.044 49.4842 110.177 52.9713 110.177 58.6496V74.6949H105.064V59.6392C105.064 55.9165 103.321 53.8666 99.7867 53.8666C96.2054 53.8666 93.8963 56.4112 93.8963 60.2518V74.6949H88.8071ZM116.586 44.0415H121.699V49.9083H126.411V53.9373H121.699V67.6029C121.699 69.747 122.641 70.7131 124.715 70.7131C125.233 70.7131 126.058 70.6659 126.388 70.5953V74.6243C125.822 74.7656 124.691 74.8599 123.56 74.8599C118.542 74.8599 116.586 72.9514 116.586 68.1684V53.9373H112.981V49.9083H116.586V44.0415ZM140.36 53.5603C136.802 53.5603 134.304 56.2699 134.045 60.0162H146.438C146.321 56.2228 143.917 53.5603 140.36 53.5603ZM146.415 67.4145H151.245C150.538 71.9383 146.25 75.1662 140.572 75.1662C133.291 75.1662 128.885 70.2418 128.885 62.4194C128.885 54.6441 133.362 49.4606 140.36 49.4606C147.239 49.4606 151.528 54.3143 151.528 61.8304V63.5739H134.022V63.8802C134.022 68.192 136.613 71.0429 140.689 71.0429C143.587 71.0429 145.732 69.5821 146.415 67.4145ZM155.486 74.6949V49.9083H160.34V54.1258H160.457C161.282 51.2277 163.497 49.5077 166.419 49.5077C167.149 49.5077 167.785 49.6255 168.162 49.6962V54.4321C167.762 54.2672 166.866 54.1493 165.877 54.1493C162.602 54.1493 160.575 56.3406 160.575 59.8512V74.6949H155.486ZM181.733 40.6958H194.48C201.077 40.6958 205.672 45.2431 205.672 51.8639C205.672 58.5082 200.983 63.0791 194.315 63.0791H187.011V74.6949H181.733V40.6958ZM187.011 45.1489V58.6496H193.067C197.661 58.6496 200.276 56.1756 200.276 51.8874C200.276 47.5993 197.661 45.1489 193.09 45.1489H187.011ZM219.243 75.1662C212.151 75.1662 207.486 70.289 207.486 62.3016C207.486 54.3378 212.175 49.4606 219.243 49.4606C226.312 49.4606 231.001 54.3378 231.001 62.3016C231.001 70.289 226.335 75.1662 219.243 75.1662ZM219.243 70.9722C223.249 70.9722 225.817 67.815 225.817 62.3016C225.817 56.8118 223.225 53.6546 219.243 53.6546C215.261 53.6546 212.67 56.8118 212.67 62.3016C212.67 67.815 215.261 70.9722 219.243 70.9722ZM234.488 56.9296C234.488 52.5 238.399 49.4606 244.195 49.4606C249.708 49.4606 253.572 52.5472 253.737 56.9532H248.954C248.719 54.7148 246.905 53.3247 244.054 53.3247C241.297 53.3247 239.459 54.6677 239.459 56.6233C239.459 58.1548 240.684 59.1915 243.252 59.8277L247.423 60.7937C252.418 61.9953 254.303 63.8802 254.303 67.5323C254.303 72.0561 250.085 75.1662 244.006 75.1662C238.14 75.1662 234.252 72.1267 233.851 67.5794H238.894C239.294 69.9591 241.132 71.2785 244.242 71.2785C247.305 71.2785 249.19 70.0062 249.19 68.0035C249.19 66.4249 248.248 65.5531 245.656 64.8934L241.226 63.8095C236.75 62.7257 234.488 60.3931 234.488 56.9296ZM258.426 74.6949V49.9083H263.515V74.6949H258.426ZM260.971 46.2798C259.345 46.2798 258.026 44.9839 258.026 43.3818C258.026 41.756 259.345 40.4601 260.971 40.4601C262.62 40.4601 263.939 41.756 263.939 43.3818C263.939 44.9839 262.62 46.2798 260.971 46.2798ZM270.207 44.0415H275.32V49.9083H280.032V53.9373H275.32V67.6029C275.32 69.747 276.262 70.7131 278.335 70.7131C278.854 70.7131 279.678 70.6659 280.008 70.5953V74.6243C279.443 74.7656 278.312 74.8599 277.181 74.8599C272.162 74.8599 270.207 72.9514 270.207 68.1684V53.9373H266.602V49.9083H270.207V44.0415ZM284.391 74.6949V49.9083H289.48V74.6949H284.391ZM286.935 46.2798C285.31 46.2798 283.99 44.9839 283.99 43.3818C283.99 41.756 285.31 40.4601 286.935 40.4601C288.585 40.4601 289.904 41.756 289.904 43.3818C289.904 44.9839 288.585 46.2798 286.935 46.2798ZM305.337 75.1662C298.245 75.1662 293.58 70.289 293.58 62.3016C293.58 54.3378 298.268 49.4606 305.337 49.4606C312.405 49.4606 317.094 54.3378 317.094 62.3016C317.094 70.289 312.429 75.1662 305.337 75.1662ZM305.337 70.9722C309.342 70.9722 311.911 67.815 311.911 62.3016C311.911 56.8118 309.319 53.6546 305.337 53.6546C301.355 53.6546 298.763 56.8118 298.763 62.3016C298.763 67.815 301.355 70.9722 305.337 70.9722ZM321.029 74.6949V49.9083H325.883V54.0551H326C327.343 51.2277 329.982 49.4842 333.799 49.4842C339.265 49.4842 342.399 52.9713 342.399 58.6496V74.6949H337.286V59.6392C337.286 55.9165 335.543 53.8666 332.009 53.8666C328.427 53.8666 326.118 56.4112 326.118 60.2518V74.6949H321.029Z" fill="url(#paint5_linear_337_509)" fill-opacity="0.62"/>
</g>
<defs>
<filter id="filter1_ddi_337_509" x="48.7061" y="26.7479" width="307.405" height="62.1303" filterUnits="userSpaceOnUse" color-interpolation-filters="sRGB">
<feFlood flood-opacity="0" result="BackgroundImageFix"/>
<feColorMatrix in="SourceAlpha" type="matrix" values="0 0 0 0 0 0 0 0 0 0 0 0 0 0 0 0 0 0 127 0" result="hardAlpha"/>
<feOffset/>
<feGaussianBlur stdDeviation="6.85607"/>
<feComposite in2="hardAlpha" operator="out"/>
<feColorMatrix type="matrix" values="0 0 0 0 0.711538 0 0 0 0 0.0821006 0 0 0 0 0.51101 0 0 0 0.35 0"/>
<feBlend mode="plus-lighter" in2="BackgroundImageFix" result="effect1_dropShadow_337_509"/>
<feColorMatrix in="SourceAlpha" type="matrix" values="0 0 0 0 0 0 0 0 0 0 0 0 0 0 0 0 0 0 127 0" result="hardAlpha"/>
<feOffset/>
<feGaussianBlur stdDeviation="2.59867"/>
<feComposite in2="hardAlpha" operator="out"/>
<feColorMatrix type="matrix" values="0 0 0 0 0.903846 0 0 0 0 0.234652 0 0 0 0 0.690652 0 0 0 0.27 0"/>
<feBlend mode="plus-lighter" in2="effect1_dropShadow_337_509" result="effect2_dropShadow_337_509"/>
<feBlend mode="normal" in="SourceGraphic" in2="effect2_dropShadow_337_509" result="shape"/>
<feColorMatrix in="SourceAlpha" type="matrix" values="0 0 0 0 0 0 0 0 0 0 0 0 0 0 0 0 0 0 127 0" result="hardAlpha"/>
<feOffset dy="1.10582"/>
<feGaussianBlur stdDeviation="1.10582"/>
<feComposite in2="hardAlpha" operator="arithmetic" k2="-1" k3="1"/>
<feColorMatrix type="matrix" values="0 0 0 0 1 0 0 0 0 1 0 0 0 0 1 0 0 0 0.4 0"/>
<feBlend mode="normal" in2="shape" result="effect3_innerShadow_337_509"/>
</filter>
<radialGradient id="paint0_radial_337_509" cx="0" cy="0" r="1" gradientUnits="userSpaceOnUse" gradientTransform="translate(202.985 1.33988) scale(175.538 39.202)">
<stop stop-color="white"/>
<stop offset="1" stop-color="white" stop-opacity="0"/>
</radialGradient>
<linearGradient id="paint1_linear_337_509" x1="202.285" y1="70.1144" x2="202.285" y2="103.649" gradientUnits="userSpaceOnUse">
<stop stop-color="#F242B1" stop-opacity="0"/>
<stop offset="1" stop-color="#F242B1"/>
</linearGradient>
<linearGradient id="paint2_linear_337_509" x1="202.285" y1="57.6955" x2="202.285" y2="103.649" gradientUnits="userSpaceOnUse">
<stop stop-color="white" stop-opacity="0"/>
<stop offset="1" stop-color="white"/>
</linearGradient>
<linearGradient id="paint3_linear_337_509" x1="202.285" y1="103.649" x2="202.285" y2="11.7413" gradientUnits="userSpaceOnUse">
<stop stop-color="white" stop-opacity="0"/>
<stop offset="1" stop-color="white"/>
</linearGradient>
<linearGradient id="paint4_linear_337_509" x1="202.285" y1="103.649" x2="202.285" y2="11.7413" gradientUnits="userSpaceOnUse">
<stop stop-color="white" stop-opacity="0"/>
<stop offset="1" stop-color="white"/>
</linearGradient>
<linearGradient id="paint5_linear_337_509" x1="162.144" y1="28.8937" x2="217.967" y2="102.834" gradientUnits="userSpaceOnUse">
<stop stop-color="#B84794" stop-opacity="0"/>
<stop offset="1" stop-color="#B84794"/>
</linearGradient>
</defs>
</svg>
