<svg width="172" height="57" viewBox="0 0 172 57" fill="none" xmlns="http://www.w3.org/2000/svg">
<mask id="path-1-inside-1_337_471" fill="white">
<path d="M0 28.4377C0 12.7319 12.732 -0.00012207 28.4378 -0.00012207H142.61C158.316 -0.00012207 171.048 12.7319 171.048 28.4377C171.048 44.1434 158.316 56.8755 142.61 56.8755H28.4378C12.732 56.8755 0 44.1434 0 28.4377Z"/>
</mask>
<path d="M0 28.4377C0 12.7319 12.732 -0.00012207 28.4378 -0.00012207H142.61C158.316 -0.00012207 171.048 12.7319 171.048 28.4377C171.048 44.1434 158.316 56.8755 142.61 56.8755H28.4378C12.732 56.8755 0 44.1434 0 28.4377Z" fill="#0F0E20" fill-opacity="0.6"/>
<path d="M28.4378 -0.00012207V0.999878H142.61V-0.00012207V-1.00012H28.4378V-0.00012207ZM142.61 56.8755V55.8755H28.4378V56.8755V57.8755H142.61V56.8755ZM28.4378 56.8755V55.8755C13.2843 55.8755 1 43.5912 1 28.4377H0H-1C-1 44.6957 12.1797 57.8755 28.4378 57.8755V56.8755ZM171.048 28.4377H170.048C170.048 43.5912 157.764 55.8755 142.61 55.8755V56.8755V57.8755C158.868 57.8755 172.048 44.6957 172.048 28.4377H171.048ZM142.61 -0.00012207V0.999878C157.764 0.999878 170.048 13.2842 170.048 28.4377H171.048H172.048C172.048 12.1796 158.868 -1.00012 142.61 -1.00012V-0.00012207ZM28.4378 -0.00012207V-1.00012C12.1798 -1.00012 -1 12.1796 -1 28.4377H0H1C1 13.2842 13.2843 0.999878 28.4378 0.999878V-0.00012207Z" fill="white" fill-opacity="0.08" mask="url(#path-1-inside-1_337_471)"/>
<rect x="8" y="7.99988" width="155.048" height="40.8756" rx="20.4378" fill="#44D2F6" fill-opacity="0.09"/>
<rect x="8" y="7.99988" width="155.048" height="40.8756" rx="20.4378" fill="url(#paint0_linear_337_471)" fill-opacity="0.14"/>
<rect x="8" y="7.99988" width="155.048" height="40.8756" rx="20.4378" fill="url(#paint1_linear_337_471)" fill-opacity="0.46" style="mix-blend-mode:overlay"/>
<rect x="8.24065" y="8.24053" width="154.567" height="40.3943" rx="20.1971" stroke="url(#paint2_linear_337_471)" stroke-opacity="0.02" stroke-width="0.481308"/>
<rect x="8.24065" y="8.24053" width="154.567" height="40.3943" rx="20.1971" stroke="url(#paint3_linear_337_471)" stroke-opacity="0.29" stroke-width="0.481308" style="mix-blend-mode:overlay"/>
<path d="M27.5003 23.4376L29.167 21.7709M29.167 21.7709L27.5003 20.1042M29.167 21.7709H27.5003C25.6593 21.7709 24.167 23.2633 24.167 25.1042M37.5003 33.4376L35.8336 35.1042M35.8336 35.1042L37.5003 36.7709M35.8336 35.1042H37.5003C39.3412 35.1042 40.8336 33.6119 40.8336 31.7709M30.9912 23.8542C31.5462 21.6977 33.5038 20.1042 35.8336 20.1042C38.5951 20.1042 40.8336 22.3428 40.8336 25.1042C40.8336 27.434 39.2402 29.3916 37.0837 29.9467M34.167 31.7709C34.167 34.5323 31.9284 36.7709 29.167 36.7709C26.4055 36.7709 24.167 34.5323 24.167 31.7709C24.167 29.0095 26.4055 26.7709 29.167 26.7709C31.9284 26.7709 34.167 29.0095 34.167 31.7709Z" stroke="white" stroke-width="1.66667" stroke-linecap="round" stroke-linejoin="round"/>
<path d="M27.5003 23.4376L29.167 21.7709M29.167 21.7709L27.5003 20.1042M29.167 21.7709H27.5003C25.6593 21.7709 24.167 23.2633 24.167 25.1042M37.5003 33.4376L35.8336 35.1042M35.8336 35.1042L37.5003 36.7709M35.8336 35.1042H37.5003C39.3412 35.1042 40.8336 33.6119 40.8336 31.7709M30.9912 23.8542C31.5462 21.6977 33.5038 20.1042 35.8336 20.1042C38.5951 20.1042 40.8336 22.3428 40.8336 25.1042C40.8336 27.434 39.2402 29.3916 37.0837 29.9467M34.167 31.7709C34.167 34.5323 31.9284 36.7709 29.167 36.7709C26.4055 36.7709 24.167 34.5323 24.167 31.7709C24.167 29.0095 26.4055 26.7709 29.167 26.7709C31.9284 26.7709 34.167 29.0095 34.167 31.7709Z" stroke="url(#paint4_linear_337_471)" stroke-opacity="0.62" stroke-width="1.66667" stroke-linecap="round" stroke-linejoin="round"/>
<g filter="url(#filter1_ddi_337_471)">
<path d="M50.9415 21.3165H56.6106C59.5447 21.3165 61.5881 23.339 61.5881 26.2836C61.5881 29.2386 59.5028 31.2715 56.5372 31.2715H53.2888V36.4376H50.9415V21.3165ZM53.2888 23.2971V29.3015H55.9819C58.0253 29.3015 59.1884 28.2012 59.1884 26.294C59.1884 24.3869 58.0253 23.2971 55.9923 23.2971H53.2888ZM67.4982 27.038C65.9159 27.038 64.8051 28.2431 64.6898 29.9093H70.2018C70.1494 28.2222 69.0805 27.038 67.4982 27.038ZM70.1913 33.1996H72.3395C72.0251 35.2116 70.1179 36.6472 67.5925 36.6472C64.3545 36.6472 62.395 34.4571 62.395 30.9781C62.395 27.5201 64.386 25.2147 67.4982 25.2147C70.558 25.2147 72.4652 27.3734 72.4652 30.7161V31.4916H64.6794V31.6278C64.6794 33.5454 65.832 34.8134 67.6449 34.8134C68.9338 34.8134 69.8874 34.1637 70.1913 33.1996ZM74.2257 36.4376V25.4138H76.3843V27.2895H76.4367C76.8035 26.0006 77.7885 25.2357 79.0879 25.2357C79.4127 25.2357 79.6956 25.2881 79.8633 25.3195V27.4258C79.6852 27.3524 79.287 27.3 78.8469 27.3C77.3903 27.3 76.4891 28.2745 76.4891 29.8359V36.4376H74.2257ZM87.0099 25.2357C89.8078 25.2357 91.6521 27.4362 91.6521 30.9257C91.6521 34.4152 89.8183 36.6262 87.0518 36.6262C85.4695 36.6262 84.2121 35.8508 83.5833 34.6248H83.5309V40.0843H81.2675V25.4138H83.4576V27.3105H83.4995C84.1492 26.0425 85.4171 25.2357 87.0099 25.2357ZM86.4126 34.7086C88.2045 34.7086 89.3258 33.2416 89.3258 30.9257C89.3258 28.6204 88.2045 27.1428 86.4126 27.1428C84.6836 27.1428 83.5205 28.6518 83.5205 30.9257C83.5205 33.2206 84.6731 34.7086 86.4126 34.7086ZM98.0128 27.038C96.4305 27.038 95.3197 28.2431 95.2044 29.9093H100.716C100.664 28.2222 99.5951 27.038 98.0128 27.038ZM100.706 33.1996H102.854C102.54 35.2116 100.633 36.6472 98.1071 36.6472C94.8691 36.6472 92.9096 34.4571 92.9096 30.9781C92.9096 27.5201 94.9006 25.2147 98.0128 25.2147C101.073 25.2147 102.98 27.3734 102.98 30.7161V31.4916H95.194V31.6278C95.194 33.5454 96.3466 34.8134 98.1595 34.8134C99.4484 34.8134 100.402 34.1637 100.706 33.1996ZM105.4 22.8046H107.674V25.4138H109.77V27.2057H107.674V33.2835C107.674 34.237 108.094 34.6667 109.016 34.6667C109.246 34.6667 109.613 34.6457 109.76 34.6143V36.4062C109.508 36.4691 109.005 36.511 108.502 36.511C106.27 36.511 105.4 35.6622 105.4 33.535V27.2057H103.797V25.4138H105.4V22.8046ZM121.087 25.4138V36.4376H118.918V34.5724H118.866C118.258 35.8927 117.137 36.6367 115.45 36.6367C113.05 36.6367 111.583 35.0754 111.583 32.5499V25.4138H113.846V32.1098C113.846 33.7865 114.643 34.6876 116.204 34.6876C117.839 34.6876 118.824 33.5559 118.824 31.8374V25.4138H121.087ZM127.186 34.8343C128.768 34.8343 130.005 33.7445 130.005 32.3089V31.4392L127.291 31.6068C125.939 31.7012 125.174 32.2985 125.174 33.2416C125.174 34.2056 125.971 34.8343 127.186 34.8343ZM126.557 36.6262C124.399 36.6262 122.89 35.2849 122.89 33.3044C122.89 31.3763 124.367 30.1922 126.987 30.0455L130.005 29.8673V29.0186C130.005 27.7925 129.177 27.059 127.794 27.059C126.484 27.059 125.667 27.6877 125.468 28.6727H123.33C123.456 26.6818 125.153 25.2147 127.878 25.2147C130.55 25.2147 132.258 26.6294 132.258 28.8404V36.4376H130.089V34.6248H130.036C129.397 35.8508 128.003 36.6262 126.557 36.6262ZM134.542 36.4376V21.3165H136.806V36.4376H134.542ZM138.933 28.5365C138.933 26.5665 140.672 25.2147 143.25 25.2147C145.702 25.2147 147.421 26.5874 147.494 28.547H145.367C145.262 27.5515 144.455 26.9332 143.187 26.9332C141.961 26.9332 141.144 27.5305 141.144 28.4003C141.144 29.0814 141.689 29.5425 142.831 29.8254L144.686 30.2551C146.907 30.7895 147.746 31.6278 147.746 33.252C147.746 35.264 145.87 36.6472 143.166 36.6472C140.557 36.6472 138.828 35.2954 138.65 33.273H140.893C141.071 34.3314 141.888 34.9182 143.271 34.9182C144.633 34.9182 145.472 34.3523 145.472 33.4616C145.472 32.7595 145.053 32.3718 143.9 32.0784L141.93 31.5964C139.939 31.1143 138.933 30.0769 138.933 28.5365Z" fill="white"/>
<path d="M50.9415 21.3165H56.6106C59.5447 21.3165 61.5881 23.339 61.5881 26.2836C61.5881 29.2386 59.5028 31.2715 56.5372 31.2715H53.2888V36.4376H50.9415V21.3165ZM53.2888 23.2971V29.3015H55.9819C58.0253 29.3015 59.1884 28.2012 59.1884 26.294C59.1884 24.3869 58.0253 23.2971 55.9923 23.2971H53.2888ZM67.4982 27.038C65.9159 27.038 64.8051 28.2431 64.6898 29.9093H70.2018C70.1494 28.2222 69.0805 27.038 67.4982 27.038ZM70.1913 33.1996H72.3395C72.0251 35.2116 70.1179 36.6472 67.5925 36.6472C64.3545 36.6472 62.395 34.4571 62.395 30.9781C62.395 27.5201 64.386 25.2147 67.4982 25.2147C70.558 25.2147 72.4652 27.3734 72.4652 30.7161V31.4916H64.6794V31.6278C64.6794 33.5454 65.832 34.8134 67.6449 34.8134C68.9338 34.8134 69.8874 34.1637 70.1913 33.1996ZM74.2257 36.4376V25.4138H76.3843V27.2895H76.4367C76.8035 26.0006 77.7885 25.2357 79.0879 25.2357C79.4127 25.2357 79.6956 25.2881 79.8633 25.3195V27.4258C79.6852 27.3524 79.287 27.3 78.8469 27.3C77.3903 27.3 76.4891 28.2745 76.4891 29.8359V36.4376H74.2257ZM87.0099 25.2357C89.8078 25.2357 91.6521 27.4362 91.6521 30.9257C91.6521 34.4152 89.8183 36.6262 87.0518 36.6262C85.4695 36.6262 84.2121 35.8508 83.5833 34.6248H83.5309V40.0843H81.2675V25.4138H83.4576V27.3105H83.4995C84.1492 26.0425 85.4171 25.2357 87.0099 25.2357ZM86.4126 34.7086C88.2045 34.7086 89.3258 33.2416 89.3258 30.9257C89.3258 28.6204 88.2045 27.1428 86.4126 27.1428C84.6836 27.1428 83.5205 28.6518 83.5205 30.9257C83.5205 33.2206 84.6731 34.7086 86.4126 34.7086ZM98.0128 27.038C96.4305 27.038 95.3197 28.2431 95.2044 29.9093H100.716C100.664 28.2222 99.5951 27.038 98.0128 27.038ZM100.706 33.1996H102.854C102.54 35.2116 100.633 36.6472 98.1071 36.6472C94.8691 36.6472 92.9096 34.4571 92.9096 30.9781C92.9096 27.5201 94.9006 25.2147 98.0128 25.2147C101.073 25.2147 102.98 27.3734 102.98 30.7161V31.4916H95.194V31.6278C95.194 33.5454 96.3466 34.8134 98.1595 34.8134C99.4484 34.8134 100.402 34.1637 100.706 33.1996ZM105.4 22.8046H107.674V25.4138H109.77V27.2057H107.674V33.2835C107.674 34.237 108.094 34.6667 109.016 34.6667C109.246 34.6667 109.613 34.6457 109.76 34.6143V36.4062C109.508 36.4691 109.005 36.511 108.502 36.511C106.27 36.511 105.4 35.6622 105.4 33.535V27.2057H103.797V25.4138H105.4V22.8046ZM121.087 25.4138V36.4376H118.918V34.5724H118.866C118.258 35.8927 117.137 36.6367 115.45 36.6367C113.05 36.6367 111.583 35.0754 111.583 32.5499V25.4138H113.846V32.1098C113.846 33.7865 114.643 34.6876 116.204 34.6876C117.839 34.6876 118.824 33.5559 118.824 31.8374V25.4138H121.087ZM127.186 34.8343C128.768 34.8343 130.005 33.7445 130.005 32.3089V31.4392L127.291 31.6068C125.939 31.7012 125.174 32.2985 125.174 33.2416C125.174 34.2056 125.971 34.8343 127.186 34.8343ZM126.557 36.6262C124.399 36.6262 122.89 35.2849 122.89 33.3044C122.89 31.3763 124.367 30.1922 126.987 30.0455L130.005 29.8673V29.0186C130.005 27.7925 129.177 27.059 127.794 27.059C126.484 27.059 125.667 27.6877 125.468 28.6727H123.33C123.456 26.6818 125.153 25.2147 127.878 25.2147C130.55 25.2147 132.258 26.6294 132.258 28.8404V36.4376H130.089V34.6248H130.036C129.397 35.8508 128.003 36.6262 126.557 36.6262ZM134.542 36.4376V21.3165H136.806V36.4376H134.542ZM138.933 28.5365C138.933 26.5665 140.672 25.2147 143.25 25.2147C145.702 25.2147 147.421 26.5874 147.494 28.547H145.367C145.262 27.5515 144.455 26.9332 143.187 26.9332C141.961 26.9332 141.144 27.5305 141.144 28.4003C141.144 29.0814 141.689 29.5425 142.831 29.8254L144.686 30.2551C146.907 30.7895 147.746 31.6278 147.746 33.252C147.746 35.264 145.87 36.6472 143.166 36.6472C140.557 36.6472 138.828 35.2954 138.65 33.273H140.893C141.071 34.3314 141.888 34.9182 143.271 34.9182C144.633 34.9182 145.472 34.3523 145.472 33.4616C145.472 32.7595 145.053 32.3718 143.9 32.0784L141.93 31.5964C139.939 31.1143 138.933 30.0769 138.933 28.5365Z" fill="url(#paint5_linear_337_471)" fill-opacity="0.62"/>
</g>
<defs>
<filter id="filter1_ddi_337_471" x="44.8431" y="15.2181" width="109.001" height="30.9646" filterUnits="userSpaceOnUse" color-interpolation-filters="sRGB">
<feFlood flood-opacity="0" result="BackgroundImageFix"/>
<feColorMatrix in="SourceAlpha" type="matrix" values="0 0 0 0 0 0 0 0 0 0 0 0 0 0 0 0 0 0 127 0" result="hardAlpha"/>
<feOffset/>
<feGaussianBlur stdDeviation="3.04922"/>
<feComposite in2="hardAlpha" operator="out"/>
<feColorMatrix type="matrix" values="0 0 0 0 0.266667 0 0 0 0 0.823529 0 0 0 0 0.964706 0 0 0 0.13 0"/>
<feBlend mode="plus-lighter" in2="BackgroundImageFix" result="effect1_dropShadow_337_471"/>
<feColorMatrix in="SourceAlpha" type="matrix" values="0 0 0 0 0 0 0 0 0 0 0 0 0 0 0 0 0 0 127 0" result="hardAlpha"/>
<feOffset/>
<feGaussianBlur stdDeviation="1.15575"/>
<feComposite in2="hardAlpha" operator="out"/>
<feColorMatrix type="matrix" values="0 0 0 0 0.266667 0 0 0 0 0.823529 0 0 0 0 0.964706 0 0 0 0.27 0"/>
<feBlend mode="plus-lighter" in2="effect1_dropShadow_337_471" result="effect2_dropShadow_337_471"/>
<feBlend mode="normal" in="SourceGraphic" in2="effect2_dropShadow_337_471" result="shape"/>
<feColorMatrix in="SourceAlpha" type="matrix" values="0 0 0 0 0 0 0 0 0 0 0 0 0 0 0 0 0 0 127 0" result="hardAlpha"/>
<feOffset dy="0.49181"/>
<feGaussianBlur stdDeviation="0.49181"/>
<feComposite in2="hardAlpha" operator="arithmetic" k2="-1" k3="1"/>
<feColorMatrix type="matrix" values="0 0 0 0 1 0 0 0 0 1 0 0 0 0 1 0 0 0 0.4 0"/>
<feBlend mode="normal" in2="shape" result="effect3_innerShadow_337_471"/>
</filter>
<linearGradient id="paint0_linear_337_471" x1="85.5241" y1="33.9612" x2="85.5241" y2="48.8755" gradientUnits="userSpaceOnUse">
<stop stop-color="#44D2F6" stop-opacity="0"/>
<stop offset="1" stop-color="#44D2F6"/>
</linearGradient>
<linearGradient id="paint1_linear_337_471" x1="85.5241" y1="28.4379" x2="85.5241" y2="48.8755" gradientUnits="userSpaceOnUse">
<stop stop-color="white" stop-opacity="0"/>
<stop offset="1" stop-color="white"/>
</linearGradient>
<linearGradient id="paint2_linear_337_471" x1="85.5241" y1="48.8755" x2="85.5241" y2="7.99988" gradientUnits="userSpaceOnUse">
<stop stop-color="white" stop-opacity="0"/>
<stop offset="1" stop-color="white"/>
</linearGradient>
<linearGradient id="paint3_linear_337_471" x1="85.5241" y1="48.8755" x2="85.5241" y2="7.99988" gradientUnits="userSpaceOnUse">
<stop stop-color="white" stop-opacity="0"/>
<stop offset="1" stop-color="white"/>
</linearGradient>
<linearGradient id="paint4_linear_337_471" x1="30.1611" y1="20.1614" x2="38.5185" y2="22.4063" gradientUnits="userSpaceOnUse">
<stop stop-color="#44D2F6" stop-opacity="0"/>
<stop offset="1" stop-color="#44D2F6"/>
</linearGradient>
<linearGradient id="paint5_linear_337_471" x1="85.1531" y1="15.5267" x2="111.165" y2="42.1322" gradientUnits="userSpaceOnUse">
<stop stop-color="#44D2F6" stop-opacity="0"/>
<stop offset="1" stop-color="#44D2F6"/>
</linearGradient>
</defs>
</svg>
