<svg width="119" height="58" viewBox="0 0 119 58" fill="none" xmlns="http://www.w3.org/2000/svg">
<mask id="path-1-inside-1_337_438" fill="white">
<path d="M0.000488281 28.5821C0.000488281 12.8759 12.7328 0.143555 28.439 0.143555H90.55C106.256 0.143555 118.988 12.8759 118.988 28.5821C118.988 44.2882 106.256 57.0206 90.55 57.0206H28.439C12.7328 57.0206 0.000488281 44.2882 0.000488281 28.5821Z"/>
</mask>
<path d="M0.000488281 28.5821C0.000488281 12.8759 12.7328 0.143555 28.439 0.143555H90.55C106.256 0.143555 118.988 12.8759 118.988 28.5821C118.988 44.2882 106.256 57.0206 90.55 57.0206H28.439C12.7328 57.0206 0.000488281 44.2882 0.000488281 28.5821Z" fill="#0F0E20" fill-opacity="0.6"/>
<path d="M28.439 0.143555V1.14355H90.55V0.143555V-0.856445H28.439V0.143555ZM90.55 57.0206V56.0206H28.439V57.0206V58.0206H90.55V57.0206ZM28.439 57.0206V56.0206C13.2851 56.0206 1.00049 43.7359 1.00049 28.5821H0.000488281H-0.999512C-0.999512 44.8405 12.1805 58.0206 28.439 58.0206V57.0206ZM118.988 28.5821H117.988C117.988 43.7359 105.704 56.0206 90.55 56.0206V57.0206V58.0206C106.808 58.0206 119.988 44.8405 119.988 28.5821H118.988ZM90.55 0.143555V1.14355C105.704 1.14355 117.988 13.4282 117.988 28.5821H118.988H119.988C119.988 12.3236 106.808 -0.856445 90.55 -0.856445V0.143555ZM28.439 0.143555V-0.856445C12.1805 -0.856445 -0.999512 12.3236 -0.999512 28.5821H0.000488281H1.00049C1.00049 13.4282 13.2851 1.14355 28.439 1.14355V0.143555Z" fill="white" fill-opacity="0.08" mask="url(#path-1-inside-1_337_438)"/>
<rect x="8.00049" y="8.14355" width="102.988" height="40.877" rx="20.4385" fill="#9545FD" fill-opacity="0.09"/>
<rect x="8.00049" y="8.14355" width="102.988" height="40.877" rx="20.4385" fill="url(#paint0_linear_337_438)" fill-opacity="0.14"/>
<rect x="8.00049" y="8.14355" width="102.988" height="40.877" rx="20.4385" fill="url(#paint1_linear_337_438)" fill-opacity="0.46" style="mix-blend-mode:overlay"/>
<rect x="8.24115" y="8.38422" width="102.507" height="40.3957" rx="20.1978" stroke="url(#paint2_linear_337_438)" stroke-opacity="0.02" stroke-width="0.481325"/>
<rect x="8.24115" y="8.38422" width="102.507" height="40.3957" rx="20.1978" stroke="url(#paint3_linear_337_438)" stroke-opacity="0.29" stroke-width="0.481325" style="mix-blend-mode:overlay"/>
<path d="M27.4859 36.0591H29.9782M34.9629 36.0591H37.4552M37.0398 24.0128V30.659M24.9936 23.7636L24.9936 30.9082C24.9936 31.8388 24.9936 32.3041 25.1747 32.6595C25.334 32.9721 25.5882 33.2263 25.9008 33.3856C26.2562 33.5667 26.7215 33.5667 27.6521 33.5667L37.2891 33.5667C38.2196 33.5667 38.6849 33.5667 39.0403 33.3856C39.353 33.2263 39.6071 32.9721 39.7664 32.6595C39.9475 32.3041 39.9475 31.8388 39.9475 30.9082V23.7636C39.9475 22.833 39.9475 22.3678 39.7664 22.0123C39.6071 21.6997 39.353 21.4455 39.0403 21.2862C38.6849 21.1051 38.2196 21.1051 37.2891 21.1051L27.6521 21.1051C26.7215 21.1051 26.2562 21.1051 25.9008 21.2862C25.5882 21.4455 25.334 21.6997 25.1747 22.0123C24.9936 22.3677 24.9936 22.833 24.9936 23.7636ZM32.0552 27.3359C32.0552 28.483 31.1253 29.4129 29.9782 29.4129C28.8312 29.4129 27.9013 28.483 27.9013 27.3359C27.9013 26.1889 28.8312 25.259 29.9782 25.259C31.1253 25.259 32.0552 26.1889 32.0552 27.3359Z" stroke="white" stroke-width="1.35945" stroke-linecap="round" stroke-linejoin="round"/>
<path d="M27.4859 36.0591H29.9782M34.9629 36.0591H37.4552M37.0398 24.0128V30.659M24.9936 23.7636L24.9936 30.9082C24.9936 31.8388 24.9936 32.3041 25.1747 32.6595C25.334 32.9721 25.5882 33.2263 25.9008 33.3856C26.2562 33.5667 26.7215 33.5667 27.6521 33.5667L37.2891 33.5667C38.2196 33.5667 38.6849 33.5667 39.0403 33.3856C39.353 33.2263 39.6071 32.9721 39.7664 32.6595C39.9475 32.3041 39.9475 31.8388 39.9475 30.9082V23.7636C39.9475 22.833 39.9475 22.3678 39.7664 22.0123C39.6071 21.6997 39.353 21.4455 39.0403 21.2862C38.6849 21.1051 38.2196 21.1051 37.2891 21.1051L27.6521 21.1051C26.7215 21.1051 26.2562 21.1051 25.9008 21.2862C25.5882 21.4455 25.334 21.6997 25.1747 22.0123C24.9936 22.3677 24.9936 22.833 24.9936 23.7636ZM32.0552 27.3359C32.0552 28.483 31.1253 29.4129 29.9782 29.4129C28.8312 29.4129 27.9013 28.483 27.9013 27.3359C27.9013 26.1889 28.8312 25.259 29.9782 25.259C31.1253 25.259 32.0552 26.1889 32.0552 27.3359Z" stroke="url(#paint4_linear_337_438)" stroke-opacity="0.62" stroke-width="1.35945" stroke-linecap="round" stroke-linejoin="round"/>
<g filter="url(#filter1_ddi_337_438)">
<path d="M57.7244 36.582H55.157L49.7601 21.4604H52.3066L56.425 33.9413H56.4878L60.6167 21.4604H63.1212L57.7244 36.582ZM66.8518 34.9787C68.4342 34.9787 69.6708 33.8889 69.6708 32.4532V31.5834L66.9566 31.7511C65.6048 31.8454 64.8398 32.4427 64.8398 33.3859C64.8398 34.3499 65.6362 34.9787 66.8518 34.9787ZM66.2231 36.7707C64.0643 36.7707 62.5553 35.4293 62.5553 33.4487C62.5553 31.5205 64.0329 30.3364 66.6527 30.1897L69.6708 30.0115V29.1627C69.6708 27.9366 68.8429 27.2031 67.4596 27.2031C66.1497 27.2031 65.3323 27.8318 65.1332 28.8169H62.9955C63.1212 26.8258 64.8189 25.3587 67.5435 25.3587C70.2157 25.3587 71.9238 26.7734 71.9238 28.9846V36.582H69.7546V34.7691H69.7022C69.063 35.9952 67.6692 36.7707 66.2231 36.7707ZM83.5768 25.5578V36.582H81.4075V34.7167H81.3552C80.7474 36.0371 79.6261 36.7811 77.9389 36.7811C75.5392 36.7811 74.0721 35.2197 74.0721 32.6942V25.5578H76.3356V32.2541C76.3356 33.9308 77.132 34.832 78.6934 34.832C80.3282 34.832 81.3132 33.7002 81.3132 31.9816V25.5578H83.5768ZM85.9032 36.582V21.4604H88.1667V36.582H85.9032ZM91.1533 22.9485H93.4273V25.5578H95.5231V27.3498H93.4273V33.4278C93.4273 34.3814 93.8465 34.811 94.7686 34.811C94.9992 34.811 95.3659 34.7901 95.5127 34.7586V36.5506C95.2612 36.6135 94.7581 36.6554 94.2551 36.6554C92.0231 36.6554 91.1533 35.8066 91.1533 33.6793V27.3498H89.5499V25.5578H91.1533V22.9485Z" fill="white"/>
<path d="M57.7244 36.582H55.157L49.7601 21.4604H52.3066L56.425 33.9413H56.4878L60.6167 21.4604H63.1212L57.7244 36.582ZM66.8518 34.9787C68.4342 34.9787 69.6708 33.8889 69.6708 32.4532V31.5834L66.9566 31.7511C65.6048 31.8454 64.8398 32.4427 64.8398 33.3859C64.8398 34.3499 65.6362 34.9787 66.8518 34.9787ZM66.2231 36.7707C64.0643 36.7707 62.5553 35.4293 62.5553 33.4487C62.5553 31.5205 64.0329 30.3364 66.6527 30.1897L69.6708 30.0115V29.1627C69.6708 27.9366 68.8429 27.2031 67.4596 27.2031C66.1497 27.2031 65.3323 27.8318 65.1332 28.8169H62.9955C63.1212 26.8258 64.8189 25.3587 67.5435 25.3587C70.2157 25.3587 71.9238 26.7734 71.9238 28.9846V36.582H69.7546V34.7691H69.7022C69.063 35.9952 67.6692 36.7707 66.2231 36.7707ZM83.5768 25.5578V36.582H81.4075V34.7167H81.3552C80.7474 36.0371 79.6261 36.7811 77.9389 36.7811C75.5392 36.7811 74.0721 35.2197 74.0721 32.6942V25.5578H76.3356V32.2541C76.3356 33.9308 77.132 34.832 78.6934 34.832C80.3282 34.832 81.3132 33.7002 81.3132 31.9816V25.5578H83.5768ZM85.9032 36.582V21.4604H88.1667V36.582H85.9032ZM91.1533 22.9485H93.4273V25.5578H95.5231V27.3498H93.4273V33.4278C93.4273 34.3814 93.8465 34.811 94.7686 34.811C94.9992 34.811 95.3659 34.7901 95.5127 34.7586V36.5506C95.2612 36.6135 94.7581 36.6554 94.2551 36.6554C92.0231 36.6554 91.1533 35.8066 91.1533 33.6793V27.3498H89.5499V25.5578H91.1533V22.9485Z" fill="url(#paint5_linear_337_438)" fill-opacity="0.62"/>
</g>
<defs>
<filter id="filter1_ddi_337_438" x="43.6615" y="15.3618" width="57.9603" height="27.518" filterUnits="userSpaceOnUse" color-interpolation-filters="sRGB">
<feFlood flood-opacity="0" result="BackgroundImageFix"/>
<feColorMatrix in="SourceAlpha" type="matrix" values="0 0 0 0 0 0 0 0 0 0 0 0 0 0 0 0 0 0 127 0" result="hardAlpha"/>
<feOffset/>
<feGaussianBlur stdDeviation="3.04933"/>
<feComposite in2="hardAlpha" operator="out"/>
<feColorMatrix type="matrix" values="0 0 0 0 0.584314 0 0 0 0 0.270588 0 0 0 0 0.992157 0 0 0 0.35 0"/>
<feBlend mode="plus-lighter" in2="BackgroundImageFix" result="effect1_dropShadow_337_438"/>
<feColorMatrix in="SourceAlpha" type="matrix" values="0 0 0 0 0 0 0 0 0 0 0 0 0 0 0 0 0 0 127 0" result="hardAlpha"/>
<feOffset/>
<feGaussianBlur stdDeviation="1.15579"/>
<feComposite in2="hardAlpha" operator="out"/>
<feColorMatrix type="matrix" values="0 0 0 0 0.584314 0 0 0 0 0.270588 0 0 0 0 0.992157 0 0 0 0.27 0"/>
<feBlend mode="plus-lighter" in2="effect1_dropShadow_337_438" result="effect2_dropShadow_337_438"/>
<feBlend mode="normal" in="SourceGraphic" in2="effect2_dropShadow_337_438" result="shape"/>
<feColorMatrix in="SourceAlpha" type="matrix" values="0 0 0 0 0 0 0 0 0 0 0 0 0 0 0 0 0 0 127 0" result="hardAlpha"/>
<feOffset dy="0.491827"/>
<feGaussianBlur stdDeviation="0.491827"/>
<feComposite in2="hardAlpha" operator="arithmetic" k2="-1" k3="1"/>
<feColorMatrix type="matrix" values="0 0 0 0 1 0 0 0 0 1 0 0 0 0 1 0 0 0 0.4 0"/>
<feBlend mode="normal" in2="shape" result="effect3_innerShadow_337_438"/>
</filter>
<linearGradient id="paint0_linear_337_438" x1="59.4945" y1="34.1057" x2="59.4945" y2="49.0206" gradientUnits="userSpaceOnUse">
<stop stop-color="#A662FF" stop-opacity="0"/>
<stop offset="1" stop-color="#A662FF"/>
</linearGradient>
<linearGradient id="paint1_linear_337_438" x1="59.4945" y1="28.5823" x2="59.4945" y2="49.0206" gradientUnits="userSpaceOnUse">
<stop stop-color="white" stop-opacity="0"/>
<stop offset="1" stop-color="white"/>
</linearGradient>
<linearGradient id="paint2_linear_337_438" x1="59.4945" y1="49.0206" x2="59.4945" y2="8.14355" gradientUnits="userSpaceOnUse">
<stop stop-color="white" stop-opacity="0"/>
<stop offset="1" stop-color="white"/>
</linearGradient>
<linearGradient id="paint3_linear_337_438" x1="59.4945" y1="49.0206" x2="59.4945" y2="8.14355" gradientUnits="userSpaceOnUse">
<stop stop-color="white" stop-opacity="0"/>
<stop offset="1" stop-color="white"/>
</linearGradient>
<linearGradient id="paint4_linear_337_438" x1="30.3718" y1="21.1564" x2="37.8703" y2="23.1706" gradientUnits="userSpaceOnUse">
<stop stop-color="#9545FD" stop-opacity="0"/>
<stop offset="1" stop-color="#9545FD"/>
</linearGradient>
<linearGradient id="paint5_linear_337_438" x1="66.3912" y1="15.6711" x2="86.8383" y2="25.5998" gradientUnits="userSpaceOnUse">
<stop stop-color="#9545FD" stop-opacity="0"/>
<stop offset="1" stop-color="#9545FD"/>
</linearGradient>
</defs>
</svg>
