<svg width="1014" height="281" viewBox="0 0 1014 281" fill="none" xmlns="http://www.w3.org/2000/svg">
<path d="M178.499 76.1546V68.1566C178.499 63.4449 182.319 59.6254 187.03 59.6254H261.678C297.016 59.6254 325.663 88.272 325.663 123.609V138.539C325.663 151.496 336.166 162 349.123 162H501.619" stroke="#252638" stroke-width="1.0664"/>
<path d="M178.499 247.845V255.843C178.499 260.555 182.319 264.375 187.03 264.375H261.678C297.016 264.375 325.663 235.728 325.663 200.391V185.461C325.663 172.504 336.166 162 349.123 162H501.619" stroke="#252638" stroke-width="1.0664"/>
<path d="M810.876 247.845L810.876 255.843C810.876 260.555 807.056 264.375 802.345 264.375L727.696 264.375C692.359 264.375 663.712 235.728 663.712 200.391L663.712 185.461C663.712 172.504 653.209 162 640.252 162L487.756 162" stroke="#252638" stroke-width="1.0664"/>
<path d="M810.876 76.1546L810.876 68.1566C810.876 63.4449 807.056 59.6254 802.345 59.6254L727.696 59.6254C692.359 59.6254 663.712 88.272 663.712 123.609L663.712 138.539C663.712 151.496 653.209 162 640.252 162L487.756 162" stroke="#252638" stroke-width="1.0664"/>
<rect x="50.1465" y="76.6879" width="257.756" height="168.575" rx="44.5907" fill="#0F0E20"/>
<rect x="49.6482" y="76.1896" width="258.753" height="169.571" rx="45.089" stroke="url(#paint0_radial_222_206)" stroke-opacity="0.71" stroke-width="0.996631" style="mix-blend-mode:soft-light"/>
<g clip-path="url(#clip0_222_206)">
<rect x="61.022" y="87.5635" width="236.005" height="146.823" rx="33.7149" fill="white" fill-opacity="0.01"/>
<rect x="61.022" y="87.5635" width="236.005" height="146.823" rx="33.7149" fill="url(#paint1_linear_222_206)" fill-opacity="0.46" style="mix-blend-mode:overlay"/>
<g opacity="0.14">
<rect x="52.3704" y="50.5153" width="26.8976" height="220.369" fill="url(#paint2_radial_222_206)" style="mix-blend-mode:overlay"/>
<rect x="52.5009" y="50.6457" width="26.6366" height="220.108" stroke="white" stroke-opacity="0.04" stroke-width="0.26098"/>
<rect x="52.5009" y="50.6457" width="26.6366" height="220.108" stroke="white" stroke-opacity="0.1" stroke-width="0.26098" style="mix-blend-mode:overlay"/>
<rect x="84.5959" y="50.5154" width="26.8976" height="220.369" fill="url(#paint3_radial_222_206)" style="mix-blend-mode:overlay"/>
<rect x="84.7264" y="50.6459" width="26.6366" height="220.108" stroke="white" stroke-opacity="0.04" stroke-width="0.26098"/>
<rect x="84.7264" y="50.6459" width="26.6366" height="220.108" stroke="white" stroke-opacity="0.1" stroke-width="0.26098" style="mix-blend-mode:overlay"/>
<rect x="116.822" y="50.5153" width="26.8976" height="220.369" fill="url(#paint4_radial_222_206)" style="mix-blend-mode:overlay"/>
<rect x="116.952" y="50.6457" width="26.6366" height="220.108" stroke="white" stroke-opacity="0.04" stroke-width="0.26098"/>
<rect x="116.952" y="50.6457" width="26.6366" height="220.108" stroke="white" stroke-opacity="0.1" stroke-width="0.26098" style="mix-blend-mode:overlay"/>
<rect x="149.047" y="50.5153" width="26.8976" height="220.369" fill="url(#paint5_radial_222_206)" style="mix-blend-mode:overlay"/>
<rect x="149.178" y="50.6457" width="26.6366" height="220.108" stroke="white" stroke-opacity="0.04" stroke-width="0.26098"/>
<rect x="149.178" y="50.6457" width="26.6366" height="220.108" stroke="white" stroke-opacity="0.1" stroke-width="0.26098" style="mix-blend-mode:overlay"/>
<rect x="181.273" y="50.5153" width="26.8976" height="220.369" fill="url(#paint6_radial_222_206)" style="mix-blend-mode:overlay"/>
<rect x="181.404" y="50.6457" width="26.6366" height="220.108" stroke="white" stroke-opacity="0.04" stroke-width="0.26098"/>
<rect x="181.404" y="50.6457" width="26.6366" height="220.108" stroke="white" stroke-opacity="0.1" stroke-width="0.26098" style="mix-blend-mode:overlay"/>
<rect x="213.499" y="50.5153" width="26.8976" height="220.369" fill="url(#paint7_radial_222_206)" style="mix-blend-mode:overlay"/>
<rect x="213.629" y="50.6457" width="26.6366" height="220.108" stroke="white" stroke-opacity="0.04" stroke-width="0.26098"/>
<rect x="213.629" y="50.6457" width="26.6366" height="220.108" stroke="white" stroke-opacity="0.1" stroke-width="0.26098" style="mix-blend-mode:overlay"/>
<rect x="245.724" y="50.5153" width="26.8976" height="220.369" fill="url(#paint8_radial_222_206)" style="mix-blend-mode:overlay"/>
<rect x="245.855" y="50.6457" width="26.6366" height="220.108" stroke="white" stroke-opacity="0.04" stroke-width="0.26098"/>
<rect x="245.855" y="50.6457" width="26.6366" height="220.108" stroke="white" stroke-opacity="0.1" stroke-width="0.26098" style="mix-blend-mode:overlay"/>
<rect x="277.95" y="50.5153" width="26.8976" height="220.369" fill="url(#paint9_radial_222_206)" style="mix-blend-mode:overlay"/>
<rect x="278.081" y="50.6457" width="26.6366" height="220.108" stroke="white" stroke-opacity="0.04" stroke-width="0.26098"/>
<rect x="278.081" y="50.6457" width="26.6366" height="220.108" stroke="white" stroke-opacity="0.1" stroke-width="0.26098" style="mix-blend-mode:overlay"/>
</g>
</g>
<rect x="61.5203" y="88.0618" width="235.008" height="145.826" rx="33.2166" stroke="url(#paint10_linear_222_206)" stroke-opacity="0.02" stroke-width="0.996631"/>
<rect x="61.5203" y="88.0618" width="235.008" height="145.826" rx="33.2166" stroke="url(#paint11_linear_222_206)" stroke-opacity="0.29" stroke-width="0.996631" style="mix-blend-mode:overlay"/>
<g filter="url(#filter0_ddi_222_206)">
<path d="M93.1177 170.385C95.6982 170.385 97.7148 168.608 97.7148 166.267V164.848L93.2886 165.122C91.084 165.275 89.8364 166.25 89.8364 167.788C89.8364 169.36 91.1353 170.385 93.1177 170.385ZM92.0923 173.308C88.5718 173.308 86.1108 171.12 86.1108 167.89C86.1108 164.746 88.5205 162.814 92.793 162.575L97.7148 162.285V160.9C97.7148 158.901 96.3647 157.705 94.1089 157.705C91.9727 157.705 90.6396 158.73 90.3149 160.336H86.8286C87.0337 157.089 89.8022 154.697 94.2456 154.697C98.6035 154.697 101.389 157.004 101.389 160.61V173H97.8516V170.043H97.7661C96.7236 172.043 94.4507 173.308 92.0923 173.308ZM104.978 173V155.021H108.499V158.046H108.584C109.387 156.047 111.267 154.714 113.694 154.714C116.189 154.714 118 155.996 118.718 158.234H118.804C119.727 156.047 121.846 154.714 124.409 154.714C127.964 154.714 130.288 157.072 130.288 160.644V173H126.58V161.533C126.58 159.208 125.332 157.875 123.145 157.875C120.957 157.875 119.436 159.499 119.436 161.772V173H115.813V161.259C115.813 159.191 114.497 157.875 112.412 157.875C110.225 157.875 108.669 159.584 108.669 161.892V173H104.978ZM133.979 173V155.021H137.671V173H133.979ZM135.825 152.39C134.646 152.39 133.689 151.45 133.689 150.288C133.689 149.108 134.646 148.168 135.825 148.168C137.021 148.168 137.979 149.108 137.979 150.288C137.979 151.45 137.021 152.39 135.825 152.39ZM141.448 173V155.021H144.968V158.081H145.054C145.652 155.979 147.258 154.731 149.377 154.731C149.907 154.731 150.369 154.816 150.642 154.868V158.303C150.352 158.183 149.702 158.098 148.984 158.098C146.609 158.098 145.139 159.687 145.139 162.233V173H141.448ZM153.923 173.188C152.676 173.188 151.685 172.197 151.685 170.949C151.685 169.702 152.676 168.71 153.923 168.71C155.171 168.71 156.162 169.702 156.162 170.949C156.162 172.197 155.171 173.188 153.923 173.188ZM160.486 173V148.339H164.143V158.029H164.229C165.22 155.927 167.185 154.714 169.919 154.714C173.867 154.714 176.226 157.346 176.226 161.413V173H172.517V162.131C172.517 159.482 171.184 157.893 168.586 157.893C165.852 157.893 164.177 159.772 164.177 162.609V173H160.486ZM195.212 155.021V173H191.675V169.958H191.589C190.598 172.111 188.77 173.325 186.018 173.325C182.104 173.325 179.712 170.778 179.712 166.66V155.021H183.403V165.942C183.403 168.676 184.702 170.146 187.249 170.146C189.915 170.146 191.521 168.3 191.521 165.498V155.021H195.212ZM208.44 173.308C205.808 173.308 203.774 172.026 202.664 169.941H202.595V173H199.006V148.339H202.698V158.081H202.783C203.86 155.996 205.911 154.731 208.457 154.731C212.986 154.731 215.942 158.32 215.942 164.011C215.942 169.719 213.003 173.308 208.44 173.308ZM207.449 157.841C204.646 157.841 202.681 160.302 202.681 164.011C202.681 167.753 204.646 170.18 207.449 170.18C210.354 170.18 212.148 167.822 212.148 164.011C212.148 160.234 210.354 157.841 207.449 157.841Z" fill="white"/>
<path d="M93.1177 170.385C95.6982 170.385 97.7148 168.608 97.7148 166.267V164.848L93.2886 165.122C91.084 165.275 89.8364 166.25 89.8364 167.788C89.8364 169.36 91.1353 170.385 93.1177 170.385ZM92.0923 173.308C88.5718 173.308 86.1108 171.12 86.1108 167.89C86.1108 164.746 88.5205 162.814 92.793 162.575L97.7148 162.285V160.9C97.7148 158.901 96.3647 157.705 94.1089 157.705C91.9727 157.705 90.6396 158.73 90.3149 160.336H86.8286C87.0337 157.089 89.8022 154.697 94.2456 154.697C98.6035 154.697 101.389 157.004 101.389 160.61V173H97.8516V170.043H97.7661C96.7236 172.043 94.4507 173.308 92.0923 173.308ZM104.978 173V155.021H108.499V158.046H108.584C109.387 156.047 111.267 154.714 113.694 154.714C116.189 154.714 118 155.996 118.718 158.234H118.804C119.727 156.047 121.846 154.714 124.409 154.714C127.964 154.714 130.288 157.072 130.288 160.644V173H126.58V161.533C126.58 159.208 125.332 157.875 123.145 157.875C120.957 157.875 119.436 159.499 119.436 161.772V173H115.813V161.259C115.813 159.191 114.497 157.875 112.412 157.875C110.225 157.875 108.669 159.584 108.669 161.892V173H104.978ZM133.979 173V155.021H137.671V173H133.979ZM135.825 152.39C134.646 152.39 133.689 151.45 133.689 150.288C133.689 149.108 134.646 148.168 135.825 148.168C137.021 148.168 137.979 149.108 137.979 150.288C137.979 151.45 137.021 152.39 135.825 152.39ZM141.448 173V155.021H144.968V158.081H145.054C145.652 155.979 147.258 154.731 149.377 154.731C149.907 154.731 150.369 154.816 150.642 154.868V158.303C150.352 158.183 149.702 158.098 148.984 158.098C146.609 158.098 145.139 159.687 145.139 162.233V173H141.448ZM153.923 173.188C152.676 173.188 151.685 172.197 151.685 170.949C151.685 169.702 152.676 168.71 153.923 168.71C155.171 168.71 156.162 169.702 156.162 170.949C156.162 172.197 155.171 173.188 153.923 173.188ZM160.486 173V148.339H164.143V158.029H164.229C165.22 155.927 167.185 154.714 169.919 154.714C173.867 154.714 176.226 157.346 176.226 161.413V173H172.517V162.131C172.517 159.482 171.184 157.893 168.586 157.893C165.852 157.893 164.177 159.772 164.177 162.609V173H160.486ZM195.212 155.021V173H191.675V169.958H191.589C190.598 172.111 188.77 173.325 186.018 173.325C182.104 173.325 179.712 170.778 179.712 166.66V155.021H183.403V165.942C183.403 168.676 184.702 170.146 187.249 170.146C189.915 170.146 191.521 168.3 191.521 165.498V155.021H195.212ZM208.44 173.308C205.808 173.308 203.774 172.026 202.664 169.941H202.595V173H199.006V148.339H202.698V158.081H202.783C203.86 155.996 205.911 154.731 208.457 154.731C212.986 154.731 215.942 158.32 215.942 164.011C215.942 169.719 213.003 173.308 208.44 173.308ZM207.449 157.841C204.646 157.841 202.681 160.302 202.681 164.011C202.681 167.753 204.646 170.18 207.449 170.18C210.354 170.18 212.148 167.822 212.148 164.011C212.148 160.234 210.354 157.841 207.449 157.841Z" fill="url(#paint12_linear_222_206)" fill-opacity="0.62"/>
</g>
<g style="mix-blend-mode:plus-lighter" opacity="0.11" filter="url(#filter1_f_222_206)">
<ellipse cx="180.518" cy="154.993" rx="121.265" ry="65.2547" fill="#FF68CF"/>
</g>
<g style="mix-blend-mode:plus-lighter" opacity="0.27" filter="url(#filter2_f_222_206)">
<ellipse cx="157.939" cy="161.099" rx="108.474" ry="14.8066" fill="#E02BA7"/>
</g>
<rect x="680.775" y="76.6879" width="277.265" height="168.492" rx="44.5907" fill="#0F0E20"/>
<rect x="680.277" y="76.1896" width="278.261" height="169.488" rx="45.089" stroke="url(#paint13_radial_222_206)" stroke-opacity="0.71" stroke-width="0.996631" style="mix-blend-mode:soft-light"/>
<g clip-path="url(#clip1_222_206)">
<rect x="691.439" y="87.3518" width="255.936" height="147.163" rx="33.7149" fill="white" fill-opacity="0.03"/>
<rect x="691.439" y="87.3518" width="255.936" height="147.163" rx="33.7149" fill="url(#paint14_linear_222_206)" fill-opacity="0.46" style="mix-blend-mode:overlay"/>
<g opacity="0.14">
<rect x="671.717" y="50.5153" width="26.8976" height="220.369" fill="url(#paint15_radial_222_206)" style="mix-blend-mode:overlay"/>
<rect x="671.848" y="50.6457" width="26.6366" height="220.108" stroke="white" stroke-opacity="0.04" stroke-width="0.26098"/>
<rect x="671.848" y="50.6457" width="26.6366" height="220.108" stroke="white" stroke-opacity="0.1" stroke-width="0.26098" style="mix-blend-mode:overlay"/>
<rect x="703.943" y="50.5153" width="26.8976" height="220.369" fill="url(#paint16_radial_222_206)" style="mix-blend-mode:overlay"/>
<rect x="704.073" y="50.6457" width="26.6366" height="220.108" stroke="white" stroke-opacity="0.04" stroke-width="0.26098"/>
<rect x="704.073" y="50.6457" width="26.6366" height="220.108" stroke="white" stroke-opacity="0.1" stroke-width="0.26098" style="mix-blend-mode:overlay"/>
<rect x="736.169" y="50.5153" width="26.8976" height="220.369" fill="url(#paint17_radial_222_206)" style="mix-blend-mode:overlay"/>
<rect x="736.299" y="50.6457" width="26.6366" height="220.108" stroke="white" stroke-opacity="0.04" stroke-width="0.26098"/>
<rect x="736.299" y="50.6457" width="26.6366" height="220.108" stroke="white" stroke-opacity="0.1" stroke-width="0.26098" style="mix-blend-mode:overlay"/>
<rect x="768.394" y="50.5153" width="26.8976" height="220.369" fill="url(#paint18_radial_222_206)" style="mix-blend-mode:overlay"/>
<rect x="768.525" y="50.6457" width="26.6366" height="220.108" stroke="white" stroke-opacity="0.04" stroke-width="0.26098"/>
<rect x="768.525" y="50.6457" width="26.6366" height="220.108" stroke="white" stroke-opacity="0.1" stroke-width="0.26098" style="mix-blend-mode:overlay"/>
<rect x="800.62" y="50.5153" width="26.8976" height="220.369" fill="url(#paint19_radial_222_206)" style="mix-blend-mode:overlay"/>
<rect x="800.75" y="50.6457" width="26.6366" height="220.108" stroke="white" stroke-opacity="0.04" stroke-width="0.26098"/>
<rect x="800.75" y="50.6457" width="26.6366" height="220.108" stroke="white" stroke-opacity="0.1" stroke-width="0.26098" style="mix-blend-mode:overlay"/>
<rect x="832.846" y="50.5153" width="26.8976" height="220.369" fill="url(#paint20_radial_222_206)" style="mix-blend-mode:overlay"/>
<rect x="832.976" y="50.6457" width="26.6366" height="220.108" stroke="white" stroke-opacity="0.04" stroke-width="0.26098"/>
<rect x="832.976" y="50.6457" width="26.6366" height="220.108" stroke="white" stroke-opacity="0.1" stroke-width="0.26098" style="mix-blend-mode:overlay"/>
<rect x="865.071" y="50.5153" width="26.8976" height="220.369" fill="url(#paint21_radial_222_206)" style="mix-blend-mode:overlay"/>
<rect x="865.202" y="50.6457" width="26.6366" height="220.108" stroke="white" stroke-opacity="0.04" stroke-width="0.26098"/>
<rect x="865.202" y="50.6457" width="26.6366" height="220.108" stroke="white" stroke-opacity="0.1" stroke-width="0.26098" style="mix-blend-mode:overlay"/>
<rect x="897.297" y="50.5153" width="26.8976" height="220.369" fill="url(#paint22_radial_222_206)" style="mix-blend-mode:overlay"/>
<rect x="897.427" y="50.6457" width="26.6366" height="220.108" stroke="white" stroke-opacity="0.04" stroke-width="0.26098"/>
<rect x="897.427" y="50.6457" width="26.6366" height="220.108" stroke="white" stroke-opacity="0.1" stroke-width="0.26098" style="mix-blend-mode:overlay"/>
<rect x="929.523" y="50.5153" width="26.8976" height="220.369" fill="url(#paint23_radial_222_206)" style="mix-blend-mode:overlay"/>
<rect x="929.653" y="50.6457" width="26.6366" height="220.108" stroke="white" stroke-opacity="0.04" stroke-width="0.26098"/>
<rect x="929.653" y="50.6457" width="26.6366" height="220.108" stroke="white" stroke-opacity="0.1" stroke-width="0.26098" style="mix-blend-mode:overlay"/>
</g>
</g>
<rect x="691.937" y="87.8501" width="254.94" height="146.167" rx="33.2166" stroke="url(#paint24_linear_222_206)" stroke-opacity="0.02" stroke-width="0.996631"/>
<rect x="691.937" y="87.8501" width="254.94" height="146.167" rx="33.2166" stroke="url(#paint25_linear_222_206)" stroke-opacity="0.29" stroke-width="0.996631" style="mix-blend-mode:overlay"/>
<g filter="url(#filter3_ddi_222_206)">
<path d="M715.008 173V157.944H712.53V155.056H715.008V153.295C715.008 149.809 716.648 148.168 720.306 148.168C721.058 148.168 721.895 148.254 722.374 148.339V151.074C722.015 151.005 721.519 150.971 721.023 150.971C719.417 150.971 718.665 151.774 718.665 153.364V155.056H722.305V157.944H718.716V173H715.008ZM725.21 173V155.021H728.731V158.081H728.816C729.415 155.979 731.021 154.731 733.14 154.731C733.67 154.731 734.131 154.816 734.405 154.868V158.303C734.114 158.183 733.465 158.098 732.747 158.098C730.372 158.098 728.902 159.687 728.902 162.233V173H725.21ZM736.814 173V155.021H740.506V173H736.814ZM738.66 152.39C737.481 152.39 736.524 151.45 736.524 150.288C736.524 149.108 737.481 148.168 738.66 148.168C739.856 148.168 740.813 149.108 740.813 150.288C740.813 151.45 739.856 152.39 738.66 152.39ZM751.802 157.67C749.222 157.67 747.41 159.636 747.222 162.353H756.211C756.126 159.602 754.383 157.67 751.802 157.67ZM756.194 167.719H759.698C759.185 171 756.075 173.342 751.956 173.342C746.675 173.342 743.479 169.77 743.479 164.096C743.479 158.457 746.727 154.697 751.802 154.697C756.792 154.697 759.903 158.217 759.903 163.669V164.934H747.205V165.156C747.205 168.283 749.085 170.351 752.042 170.351C754.144 170.351 755.699 169.292 756.194 167.719ZM762.774 173V155.021H766.294V158.029H766.38C767.354 155.979 769.268 154.714 772.037 154.714C776.001 154.714 778.274 157.243 778.274 161.362V173H774.566V162.08C774.566 159.379 773.301 157.893 770.738 157.893C768.14 157.893 766.465 159.738 766.465 162.524V173H762.774ZM788.597 173.308C784.051 173.308 781.043 169.685 781.043 164.011C781.043 158.337 784.051 154.731 788.562 154.731C791.143 154.731 793.194 156.03 794.202 158.012H794.271V148.339H797.979V173H794.39V169.941H794.322C793.262 171.992 791.211 173.308 788.597 173.308ZM789.571 157.841C786.648 157.841 784.82 160.234 784.82 164.011C784.82 167.805 786.648 170.18 789.571 170.18C792.408 170.18 794.305 167.771 794.305 164.011C794.305 160.285 792.408 157.841 789.571 157.841ZM804.542 173.188C803.294 173.188 802.303 172.197 802.303 170.949C802.303 169.702 803.294 168.71 804.542 168.71C805.789 168.71 806.78 169.702 806.78 170.949C806.78 172.197 805.789 173.188 804.542 173.188ZM811.104 173V148.339H814.761V158.029H814.847C815.838 155.927 817.803 154.714 820.538 154.714C824.485 154.714 826.844 157.346 826.844 161.413V173H823.135V162.131C823.135 159.482 821.802 157.893 819.205 157.893C816.47 157.893 814.795 159.772 814.795 162.609V173H811.104ZM845.831 155.021V173H842.293V169.958H842.208C841.216 172.111 839.388 173.325 836.636 173.325C832.723 173.325 830.33 170.778 830.33 166.66V155.021H834.021V165.942C834.021 168.676 835.32 170.146 837.867 170.146C840.533 170.146 842.139 168.3 842.139 165.498V155.021H845.831ZM859.058 173.308C856.426 173.308 854.393 172.026 853.282 169.941H853.213V173H849.625V148.339H853.316V158.081H853.401C854.478 155.996 856.529 154.731 859.075 154.731C863.604 154.731 866.561 158.32 866.561 164.011C866.561 169.719 863.621 173.308 859.058 173.308ZM858.067 157.841C855.264 157.841 853.299 160.302 853.299 164.011C853.299 167.753 855.264 170.18 858.067 170.18C860.972 170.18 862.767 167.822 862.767 164.011C862.767 160.234 860.972 157.841 858.067 157.841Z" fill="white"/>
<path d="M715.008 173V157.944H712.53V155.056H715.008V153.295C715.008 149.809 716.648 148.168 720.306 148.168C721.058 148.168 721.895 148.254 722.374 148.339V151.074C722.015 151.005 721.519 150.971 721.023 150.971C719.417 150.971 718.665 151.774 718.665 153.364V155.056H722.305V157.944H718.716V173H715.008ZM725.21 173V155.021H728.731V158.081H728.816C729.415 155.979 731.021 154.731 733.14 154.731C733.67 154.731 734.131 154.816 734.405 154.868V158.303C734.114 158.183 733.465 158.098 732.747 158.098C730.372 158.098 728.902 159.687 728.902 162.233V173H725.21ZM736.814 173V155.021H740.506V173H736.814ZM738.66 152.39C737.481 152.39 736.524 151.45 736.524 150.288C736.524 149.108 737.481 148.168 738.66 148.168C739.856 148.168 740.813 149.108 740.813 150.288C740.813 151.45 739.856 152.39 738.66 152.39ZM751.802 157.67C749.222 157.67 747.41 159.636 747.222 162.353H756.211C756.126 159.602 754.383 157.67 751.802 157.67ZM756.194 167.719H759.698C759.185 171 756.075 173.342 751.956 173.342C746.675 173.342 743.479 169.77 743.479 164.096C743.479 158.457 746.727 154.697 751.802 154.697C756.792 154.697 759.903 158.217 759.903 163.669V164.934H747.205V165.156C747.205 168.283 749.085 170.351 752.042 170.351C754.144 170.351 755.699 169.292 756.194 167.719ZM762.774 173V155.021H766.294V158.029H766.38C767.354 155.979 769.268 154.714 772.037 154.714C776.001 154.714 778.274 157.243 778.274 161.362V173H774.566V162.08C774.566 159.379 773.301 157.893 770.738 157.893C768.14 157.893 766.465 159.738 766.465 162.524V173H762.774ZM788.597 173.308C784.051 173.308 781.043 169.685 781.043 164.011C781.043 158.337 784.051 154.731 788.562 154.731C791.143 154.731 793.194 156.03 794.202 158.012H794.271V148.339H797.979V173H794.39V169.941H794.322C793.262 171.992 791.211 173.308 788.597 173.308ZM789.571 157.841C786.648 157.841 784.82 160.234 784.82 164.011C784.82 167.805 786.648 170.18 789.571 170.18C792.408 170.18 794.305 167.771 794.305 164.011C794.305 160.285 792.408 157.841 789.571 157.841ZM804.542 173.188C803.294 173.188 802.303 172.197 802.303 170.949C802.303 169.702 803.294 168.71 804.542 168.71C805.789 168.71 806.78 169.702 806.78 170.949C806.78 172.197 805.789 173.188 804.542 173.188ZM811.104 173V148.339H814.761V158.029H814.847C815.838 155.927 817.803 154.714 820.538 154.714C824.485 154.714 826.844 157.346 826.844 161.413V173H823.135V162.131C823.135 159.482 821.802 157.893 819.205 157.893C816.47 157.893 814.795 159.772 814.795 162.609V173H811.104ZM845.831 155.021V173H842.293V169.958H842.208C841.216 172.111 839.388 173.325 836.636 173.325C832.723 173.325 830.33 170.778 830.33 166.66V155.021H834.021V165.942C834.021 168.676 835.32 170.146 837.867 170.146C840.533 170.146 842.139 168.3 842.139 165.498V155.021H845.831ZM859.058 173.308C856.426 173.308 854.393 172.026 853.282 169.941H853.213V173H849.625V148.339H853.316V158.081H853.401C854.478 155.996 856.529 154.731 859.075 154.731C863.604 154.731 866.561 158.32 866.561 164.011C866.561 169.719 863.621 173.308 859.058 173.308ZM858.067 157.841C855.264 157.841 853.299 160.302 853.299 164.011C853.299 167.753 855.264 170.18 858.067 170.18C860.972 170.18 862.767 167.822 862.767 164.011C862.767 160.234 860.972 157.841 858.067 157.841Z" fill="url(#paint26_linear_222_206)" fill-opacity="0.62"/>
</g>
<g style="mix-blend-mode:plus-lighter" opacity="0.11" filter="url(#filter4_f_222_206)">
<ellipse cx="832.089" cy="125.946" rx="121.265" ry="65.2547" fill="#FF68CF"/>
</g>
<g style="mix-blend-mode:plus-lighter" opacity="0.27" filter="url(#filter5_f_222_206)">
<ellipse cx="793.475" cy="155.807" rx="108.474" ry="14.8066" fill="#E02BA7"/>
</g>
<g style="mix-blend-mode:plus-lighter" opacity="0.27" filter="url(#filter6_f_222_206)">
<ellipse cx="814.475" cy="112.807" rx="108.474" ry="14.8066" fill="#E02BA7"/>
</g>
<defs>
<filter id="filter0_ddi_222_206" x="76.0416" y="138.099" width="149.97" height="45.2947" filterUnits="userSpaceOnUse" color-interpolation-filters="sRGB">
<feFlood flood-opacity="0" result="BackgroundImageFix"/>
<feColorMatrix in="SourceAlpha" type="matrix" values="0 0 0 0 0 0 0 0 0 0 0 0 0 0 0 0 0 0 127 0" result="hardAlpha"/>
<feOffset/>
<feGaussianBlur stdDeviation="5.03461"/>
<feComposite in2="hardAlpha" operator="out"/>
<feColorMatrix type="matrix" values="0 0 0 0 0.711538 0 0 0 0 0.0821006 0 0 0 0 0.51101 0 0 0 0.35 0"/>
<feBlend mode="plus-lighter" in2="BackgroundImageFix" result="effect1_dropShadow_222_206"/>
<feColorMatrix in="SourceAlpha" type="matrix" values="0 0 0 0 0 0 0 0 0 0 0 0 0 0 0 0 0 0 127 0" result="hardAlpha"/>
<feOffset/>
<feGaussianBlur stdDeviation="1.90828"/>
<feComposite in2="hardAlpha" operator="out"/>
<feColorMatrix type="matrix" values="0 0 0 0 0.903846 0 0 0 0 0.234652 0 0 0 0 0.690652 0 0 0 0.27 0"/>
<feBlend mode="plus-lighter" in2="effect1_dropShadow_222_206" result="effect2_dropShadow_222_206"/>
<feBlend mode="normal" in="SourceGraphic" in2="effect2_dropShadow_222_206" result="shape"/>
<feColorMatrix in="SourceAlpha" type="matrix" values="0 0 0 0 0 0 0 0 0 0 0 0 0 0 0 0 0 0 127 0" result="hardAlpha"/>
<feOffset dy="0.812034"/>
<feGaussianBlur stdDeviation="0.812034"/>
<feComposite in2="hardAlpha" operator="arithmetic" k2="-1" k3="1"/>
<feColorMatrix type="matrix" values="0 0 0 0 1 0 0 0 0 1 0 0 0 0 1 0 0 0 0.4 0"/>
<feBlend mode="normal" in2="shape" result="effect3_innerShadow_222_206"/>
</filter>
<filter id="filter1_f_222_206" x="-0.890026" y="29.5957" width="362.816" height="250.796" filterUnits="userSpaceOnUse" color-interpolation-filters="sRGB">
<feFlood flood-opacity="0" result="BackgroundImageFix"/>
<feBlend mode="normal" in="SourceGraphic" in2="BackgroundImageFix" result="shape"/>
<feGaussianBlur stdDeviation="30.0715" result="effect1_foregroundBlur_222_206"/>
</filter>
<filter id="filter2_f_222_206" x="13.8647" y="110.693" width="288.149" height="100.813" filterUnits="userSpaceOnUse" color-interpolation-filters="sRGB">
<feFlood flood-opacity="0" result="BackgroundImageFix"/>
<feBlend mode="normal" in="SourceGraphic" in2="BackgroundImageFix" result="shape"/>
<feGaussianBlur stdDeviation="17.8001" result="effect1_foregroundBlur_222_206"/>
</filter>
<filter id="filter3_ddi_222_206" x="700.985" y="136.624" width="177.12" height="48.2623" filterUnits="userSpaceOnUse" color-interpolation-filters="sRGB">
<feFlood flood-opacity="0" result="BackgroundImageFix"/>
<feColorMatrix in="SourceAlpha" type="matrix" values="0 0 0 0 0 0 0 0 0 0 0 0 0 0 0 0 0 0 127 0" result="hardAlpha"/>
<feOffset/>
<feGaussianBlur stdDeviation="5.77225"/>
<feComposite in2="hardAlpha" operator="out"/>
<feColorMatrix type="matrix" values="0 0 0 0 0.711538 0 0 0 0 0.0821006 0 0 0 0 0.51101 0 0 0 0.35 0"/>
<feBlend mode="plus-lighter" in2="BackgroundImageFix" result="effect1_dropShadow_222_206"/>
<feColorMatrix in="SourceAlpha" type="matrix" values="0 0 0 0 0 0 0 0 0 0 0 0 0 0 0 0 0 0 127 0" result="hardAlpha"/>
<feOffset/>
<feGaussianBlur stdDeviation="2.18787"/>
<feComposite in2="hardAlpha" operator="out"/>
<feColorMatrix type="matrix" values="0 0 0 0 0.903846 0 0 0 0 0.234652 0 0 0 0 0.690652 0 0 0 0.27 0"/>
<feBlend mode="plus-lighter" in2="effect1_dropShadow_222_206" result="effect2_dropShadow_222_206"/>
<feBlend mode="normal" in="SourceGraphic" in2="effect2_dropShadow_222_206" result="shape"/>
<feColorMatrix in="SourceAlpha" type="matrix" values="0 0 0 0 0 0 0 0 0 0 0 0 0 0 0 0 0 0 127 0" result="hardAlpha"/>
<feOffset dy="0.931008"/>
<feGaussianBlur stdDeviation="0.931008"/>
<feComposite in2="hardAlpha" operator="arithmetic" k2="-1" k3="1"/>
<feColorMatrix type="matrix" values="0 0 0 0 1 0 0 0 0 1 0 0 0 0 1 0 0 0 0.4 0"/>
<feBlend mode="normal" in2="shape" result="effect3_innerShadow_222_206"/>
</filter>
<filter id="filter4_f_222_206" x="650.681" y="0.548695" width="362.816" height="250.796" filterUnits="userSpaceOnUse" color-interpolation-filters="sRGB">
<feFlood flood-opacity="0" result="BackgroundImageFix"/>
<feBlend mode="normal" in="SourceGraphic" in2="BackgroundImageFix" result="shape"/>
<feGaussianBlur stdDeviation="30.0715" result="effect1_foregroundBlur_222_206"/>
</filter>
<filter id="filter5_f_222_206" x="649.4" y="105.4" width="288.149" height="100.813" filterUnits="userSpaceOnUse" color-interpolation-filters="sRGB">
<feFlood flood-opacity="0" result="BackgroundImageFix"/>
<feBlend mode="normal" in="SourceGraphic" in2="BackgroundImageFix" result="shape"/>
<feGaussianBlur stdDeviation="17.8001" result="effect1_foregroundBlur_222_206"/>
</filter>
<filter id="filter6_f_222_206" x="670.4" y="62.3999" width="288.149" height="100.813" filterUnits="userSpaceOnUse" color-interpolation-filters="sRGB">
<feFlood flood-opacity="0" result="BackgroundImageFix"/>
<feBlend mode="normal" in="SourceGraphic" in2="BackgroundImageFix" result="shape"/>
<feGaussianBlur stdDeviation="17.8001" result="effect1_foregroundBlur_222_206"/>
</filter>
<radialGradient id="paint0_radial_222_206" cx="0" cy="0" r="1" gradientUnits="userSpaceOnUse" gradientTransform="translate(179.474 77.0455) scale(112.712 58.5627)">
<stop stop-color="white"/>
<stop offset="1" stop-color="white" stop-opacity="0"/>
</radialGradient>
<linearGradient id="paint1_linear_222_206" x1="179.024" y1="160.976" x2="179.024" y2="234.387" gradientUnits="userSpaceOnUse">
<stop stop-color="white" stop-opacity="0"/>
<stop offset="1" stop-color="white"/>
</linearGradient>
<radialGradient id="paint2_radial_222_206" cx="0" cy="0" r="1" gradientUnits="userSpaceOnUse" gradientTransform="translate(65.8192 238.916) rotate(-90) scale(75.0373 50.8072)">
<stop stop-color="white"/>
<stop offset="1" stop-color="white" stop-opacity="0"/>
</radialGradient>
<radialGradient id="paint3_radial_222_206" cx="0" cy="0" r="1" gradientUnits="userSpaceOnUse" gradientTransform="translate(98.0448 238.916) rotate(-90) scale(75.0373 50.8072)">
<stop stop-color="white"/>
<stop offset="1" stop-color="white" stop-opacity="0"/>
</radialGradient>
<radialGradient id="paint4_radial_222_206" cx="0" cy="0" r="1" gradientUnits="userSpaceOnUse" gradientTransform="translate(130.27 238.916) rotate(-90) scale(75.0373 50.8072)">
<stop stop-color="white"/>
<stop offset="1" stop-color="white" stop-opacity="0"/>
</radialGradient>
<radialGradient id="paint5_radial_222_206" cx="0" cy="0" r="1" gradientUnits="userSpaceOnUse" gradientTransform="translate(162.496 238.916) rotate(-90) scale(75.0373 50.8072)">
<stop stop-color="white"/>
<stop offset="1" stop-color="white" stop-opacity="0"/>
</radialGradient>
<radialGradient id="paint6_radial_222_206" cx="0" cy="0" r="1" gradientUnits="userSpaceOnUse" gradientTransform="translate(194.722 238.916) rotate(-90) scale(75.0373 50.8072)">
<stop stop-color="white"/>
<stop offset="1" stop-color="white" stop-opacity="0"/>
</radialGradient>
<radialGradient id="paint7_radial_222_206" cx="0" cy="0" r="1" gradientUnits="userSpaceOnUse" gradientTransform="translate(226.948 238.916) rotate(-90) scale(75.0373 50.8072)">
<stop stop-color="white"/>
<stop offset="1" stop-color="white" stop-opacity="0"/>
</radialGradient>
<radialGradient id="paint8_radial_222_206" cx="0" cy="0" r="1" gradientUnits="userSpaceOnUse" gradientTransform="translate(259.173 238.916) rotate(-90) scale(75.0373 50.8072)">
<stop stop-color="white"/>
<stop offset="1" stop-color="white" stop-opacity="0"/>
</radialGradient>
<radialGradient id="paint9_radial_222_206" cx="0" cy="0" r="1" gradientUnits="userSpaceOnUse" gradientTransform="translate(291.399 238.916) rotate(-90) scale(75.0373 50.8072)">
<stop stop-color="white"/>
<stop offset="1" stop-color="white" stop-opacity="0"/>
</radialGradient>
<linearGradient id="paint10_linear_222_206" x1="179.024" y1="234.387" x2="179.024" y2="87.5635" gradientUnits="userSpaceOnUse">
<stop stop-color="white" stop-opacity="0"/>
<stop offset="1" stop-color="white"/>
</linearGradient>
<linearGradient id="paint11_linear_222_206" x1="179.024" y1="234.387" x2="179.024" y2="87.5635" gradientUnits="userSpaceOnUse">
<stop stop-color="white" stop-opacity="0"/>
<stop offset="1" stop-color="white"/>
</linearGradient>
<linearGradient id="paint12_linear_222_206" x1="132.833" y1="140.144" x2="174.32" y2="175.433" gradientUnits="userSpaceOnUse">
<stop stop-color="#B84794" stop-opacity="0"/>
<stop offset="1" stop-color="#B84794"/>
</linearGradient>
<radialGradient id="paint13_radial_222_206" cx="0" cy="0" r="1" gradientUnits="userSpaceOnUse" gradientTransform="translate(819.89 77.0453) scale(121.243 58.5338)">
<stop stop-color="white"/>
<stop offset="1" stop-color="white" stop-opacity="0"/>
</radialGradient>
<linearGradient id="paint14_linear_222_206" x1="819.407" y1="160.934" x2="819.407" y2="234.515" gradientUnits="userSpaceOnUse">
<stop stop-color="white" stop-opacity="0"/>
<stop offset="1" stop-color="white"/>
</linearGradient>
<radialGradient id="paint15_radial_222_206" cx="0" cy="0" r="1" gradientUnits="userSpaceOnUse" gradientTransform="translate(685.166 238.916) rotate(-90) scale(75.0373 50.8072)">
<stop stop-color="white"/>
<stop offset="1" stop-color="white" stop-opacity="0"/>
</radialGradient>
<radialGradient id="paint16_radial_222_206" cx="0" cy="0" r="1" gradientUnits="userSpaceOnUse" gradientTransform="translate(717.392 238.916) rotate(-90) scale(75.0373 50.8072)">
<stop stop-color="white"/>
<stop offset="1" stop-color="white" stop-opacity="0"/>
</radialGradient>
<radialGradient id="paint17_radial_222_206" cx="0" cy="0" r="1" gradientUnits="userSpaceOnUse" gradientTransform="translate(749.617 238.916) rotate(-90) scale(75.0373 50.8072)">
<stop stop-color="white"/>
<stop offset="1" stop-color="white" stop-opacity="0"/>
</radialGradient>
<radialGradient id="paint18_radial_222_206" cx="0" cy="0" r="1" gradientUnits="userSpaceOnUse" gradientTransform="translate(781.843 238.916) rotate(-90) scale(75.0373 50.8072)">
<stop stop-color="white"/>
<stop offset="1" stop-color="white" stop-opacity="0"/>
</radialGradient>
<radialGradient id="paint19_radial_222_206" cx="0" cy="0" r="1" gradientUnits="userSpaceOnUse" gradientTransform="translate(814.069 238.916) rotate(-90) scale(75.0373 50.8072)">
<stop stop-color="white"/>
<stop offset="1" stop-color="white" stop-opacity="0"/>
</radialGradient>
<radialGradient id="paint20_radial_222_206" cx="0" cy="0" r="1" gradientUnits="userSpaceOnUse" gradientTransform="translate(846.294 238.916) rotate(-90) scale(75.0373 50.8072)">
<stop stop-color="white"/>
<stop offset="1" stop-color="white" stop-opacity="0"/>
</radialGradient>
<radialGradient id="paint21_radial_222_206" cx="0" cy="0" r="1" gradientUnits="userSpaceOnUse" gradientTransform="translate(878.52 238.916) rotate(-90) scale(75.0373 50.8072)">
<stop stop-color="white"/>
<stop offset="1" stop-color="white" stop-opacity="0"/>
</radialGradient>
<radialGradient id="paint22_radial_222_206" cx="0" cy="0" r="1" gradientUnits="userSpaceOnUse" gradientTransform="translate(910.746 238.916) rotate(-90) scale(75.0373 50.8072)">
<stop stop-color="white"/>
<stop offset="1" stop-color="white" stop-opacity="0"/>
</radialGradient>
<radialGradient id="paint23_radial_222_206" cx="0" cy="0" r="1" gradientUnits="userSpaceOnUse" gradientTransform="translate(942.971 238.916) rotate(-90) scale(75.0373 50.8072)">
<stop stop-color="white"/>
<stop offset="1" stop-color="white" stop-opacity="0"/>
</radialGradient>
<linearGradient id="paint24_linear_222_206" x1="819.407" y1="234.515" x2="819.407" y2="87.3518" gradientUnits="userSpaceOnUse">
<stop stop-color="white" stop-opacity="0"/>
<stop offset="1" stop-color="white"/>
</linearGradient>
<linearGradient id="paint25_linear_222_206" x1="819.407" y1="234.515" x2="819.407" y2="87.3518" gradientUnits="userSpaceOnUse">
<stop stop-color="white" stop-opacity="0"/>
<stop offset="1" stop-color="white"/>
</linearGradient>
<linearGradient id="paint26_linear_222_206" x1="768.208" y1="140.144" x2="810.238" y2="182.078" gradientUnits="userSpaceOnUse">
<stop stop-color="#B84794" stop-opacity="0"/>
<stop offset="1" stop-color="#B84794"/>
</linearGradient>
<clipPath id="clip0_222_206">
<rect x="61.022" y="87.5635" width="236.005" height="146.823" rx="33.7149" fill="white"/>
</clipPath>
<clipPath id="clip1_222_206">
<rect x="691.439" y="87.3518" width="255.936" height="147.163" rx="33.7149" fill="white"/>
</clipPath>
</defs>
</svg>
